STARTFONT 2.1
COMMENT
COMMENT Converted from OpenType font "ChivoMono-Regular.ttf" by "otf2bdf 3.0".
COMMENT
FONT -FreeType-chivo mono-Medium-R-Normal--33-240-100-100-P-157-ISO10646-1
SIZE 24 100 100
FONTBOUNDINGBOX 24 47 -2 -10
STARTPROPERTIES 19
FOUNDRY "FreeType"
FAMILY_NAME "chivo mono"
WEIGHT_NAME "Medium"
SLANT "R"
SETWIDTH_NAME "Normal"
ADD_STYLE_NAME ""
PIXEL_SIZE 33
POINT_SIZE 240
RESOLUTION_X 100
RESOLUTION_Y 100
SPACING "P"
AVERAGE_WIDTH 157
CHARSET_REGISTRY "ISO10646"
CHARSET_ENCODING "1"
FONT_ASCENT 31
FONT_DESCENT 8
COPYRIGHT "Copyright 2018 The Chivo Project Authors (https://github.com/Omnibus-Type/Chivo)"
_OTF_FONTFILE "ChivoMono-Regular.ttf"
_OTF_PSNAME "ChivoMono-Regular"
ENDPROPERTIES
CHARS 642
STARTCHAR 000D
ENCODING 13
SWIDTH 600 0
DWIDTH 20 0
BBX 0 0 0 0
BITMAP
ENDCHAR
STARTCHAR 0020
ENCODING 32
SWIDTH 600 0
DWIDTH 20 0
BBX 0 0 0 0
BITMAP
ENDCHAR
STARTCHAR 0021
ENCODING 33
SWIDTH 600 0
DWIDTH 20 0
BBX 4 23 8 0
BITMAP
F0
F0
F0
F0
F0
F0
F0
F0
F0
F0
70
60
60
60
60
60
60
00
00
F0
F0
F0
F0
ENDCHAR
STARTCHAR 0022
ENCODING 34
SWIDTH 600 0
DWIDTH 20 0
BBX 8 9 6 14
BITMAP
E7
E7
E7
E7
E7
E7
E7
E6
42
ENDCHAR
STARTCHAR 0023
ENCODING 35
SWIDTH 600 0
DWIDTH 20 0
BBX 20 23 0 0
BITMAP
00C1C0
01C1C0
01C180
01C380
018380
038380
038300
3FFFF0
3FFFF0
030700
070700
070600
070E00
060E00
FFFFE0
FFFFE0
FFFFE0
0C1C00
0C1C00
1C1800
1C1800
1C3800
183800
ENDCHAR
STARTCHAR 0024
ENCODING 36
SWIDTH 600 0
DWIDTH 20 0
BBX 16 27 2 -2
BITMAP
0180
0180
0180
1FF8
3FFC
7C3E
F00F
E007
E007
F000
F800
7F80
3FF0
0FFC
01FE
001F
000F
E007
E007
E007
F00F
7E7E
7FFE
1FF8
0180
0180
0180
ENDCHAR
STARTCHAR 0025
ENCODING 37
SWIDTH 600 0
DWIDTH 20 0
BBX 20 23 0 0
BITMAP
3C0070
7E0060
E300C0
C30180
C30380
C30300
C30600
C30C00
C31800
E70000
7E0000
3C0180
0007E0
000E70
018C30
030C30
060C30
0E0C30
0C0C30
180C30
300C70
700FE0
E003C0
ENDCHAR
STARTCHAR 0026
ENCODING 38
SWIDTH 600 0
DWIDTH 20 0
BBX 18 23 2 0
BITMAP
0FC000
3FC000
7FC000
780000
F00000
F00600
F00E00
F00E00
700E00
3C0E00
1FFFC0
1FFFC0
3FFFC0
780E00
F00E00
E00E00
E00E00
E00E00
E00E00
F00E00
7FFE00
3FFE00
0FFE00
ENDCHAR
STARTCHAR 0027
ENCODING 39
SWIDTH 600 0
DWIDTH 20 0
BBX 2 9 9 14
BITMAP
C0
C0
C0
C0
C0
C0
C0
C0
C0
ENDCHAR
STARTCHAR 0028
ENCODING 40
SWIDTH 600 0
DWIDTH 20 0
BBX 7 28 7 -5
BITMAP
06
0C
0C
18
38
38
30
70
70
60
E0
E0
E0
E0
E0
E0
E0
E0
60
70
70
70
30
38
18
1C
0C
06
ENDCHAR
STARTCHAR 0029
ENCODING 41
SWIDTH 600 0
DWIDTH 20 0
BBX 7 28 6 -5
BITMAP
C0
60
60
30
38
38
18
1C
1C
1C
0E
0E
0E
0E
0E
0E
0E
0E
0C
1C
1C
1C
38
38
30
70
60
C0
ENDCHAR
STARTCHAR 002A
ENCODING 42
SWIDTH 600 0
DWIDTH 20 0
BBX 14 13 3 10
BITMAP
0300
0300
0300
8300
6318
FFFC
3FF0
0780
0F80
0CC0
1CE0
3870
1060
ENDCHAR
STARTCHAR 002B
ENCODING 43
SWIDTH 600 0
DWIDTH 20 0
BBX 18 17 1 0
BITMAP
00C000
00C000
00C000
00C000
00C000
00C000
00C000
FFFFC0
FFFFC0
FFFFC0
00C000
00C000
00C000
00C000
00C000
00C000
00C000
ENDCHAR
STARTCHAR 002C
ENCODING 44
SWIDTH 600 0
DWIDTH 20 0
BBX 4 10 8 -5
BITMAP
F0
F0
F0
F0
F0
30
30
60
60
C0
ENDCHAR
STARTCHAR 002D
ENCODING 45
SWIDTH 600 0
DWIDTH 20 0
BBX 8 4 6 7
BITMAP
FF
FF
FF
FF
ENDCHAR
STARTCHAR 002E
ENCODING 46
SWIDTH 600 0
DWIDTH 20 0
BBX 4 4 8 0
BITMAP
F0
F0
F0
F0
ENDCHAR
STARTCHAR 002F
ENCODING 47
SWIDTH 600 0
DWIDTH 20 0
BBX 18 29 1 -6
BITMAP
0001C0
0001C0
000380
000380
000700
000600
000E00
001C00
001C00
003800
003800
007000
006000
00E000
00C000
01C000
038000
038000
070000
070000
0E0000
0C0000
1C0000
380000
380000
700000
700000
E00000
C00000
ENDCHAR
STARTCHAR 0030
ENCODING 48
SWIDTH 600 0
DWIDTH 20 0
BBX 16 23 2 0
BITMAP
0FF0
1FF8
3FFC
781E
700E
F00F
F00F
E007
E007
E007
E007
E007
E007
E007
E007
E007
E00F
F00F
700E
781E
3E7C
1FF8
0FF0
ENDCHAR
STARTCHAR 0031
ENCODING 49
SWIDTH 600 0
DWIDTH 20 0
BBX 15 23 3 0
BITMAP
0380
1F80
FF80
FF80
0380
0380
0380
0380
0380
0380
0380
0380
0380
0380
0380
0380
0380
0380
0380
0380
FFFE
FFFE
FFFE
ENDCHAR
STARTCHAR 0032
ENCODING 50
SWIDTH 600 0
DWIDTH 20 0
BBX 16 23 2 0
BITMAP
07F0
1FFC
3FFE
781E
700F
F00F
E00F
E00F
000F
000E
001E
003C
00F8
01F0
07E0
0F80
3E00
7C00
7800
F000
FFFF
FFFF
FFFF
ENDCHAR
STARTCHAR 0033
ENCODING 51
SWIDTH 600 0
DWIDTH 20 0
BBX 16 23 2 0
BITMAP
0FF0
3FF8
7FFC
701E
F00E
E00E
E00E
000E
001E
003C
07F8
07F8
07FC
001E
000F
000F
E007
E00F
E00F
F01E
7E7E
3FFC
1FF0
ENDCHAR
STARTCHAR 0034
ENCODING 52
SWIDTH 600 0
DWIDTH 20 0
BBX 17 23 1 0
BITMAP
01E000
01C000
03C000
038400
078400
070C00
070C00
0E1C00
0E1C00
1C1C00
1C1C00
381C00
701C00
701C00
FFFF80
FFFF80
FFFF80
001C00
001C00
001C00
001C00
001C00
001C00
ENDCHAR
STARTCHAR 0035
ENCODING 53
SWIDTH 600 0
DWIDTH 20 0
BBX 16 23 2 0
BITMAP
3FFE
3FFE
3FFE
3800
3800
7000
7000
7000
73E0
77F8
7FFC
783E
700E
000F
0007
0007
E007
F00F
700F
781E
3E7C
1FF8
0FF0
ENDCHAR
STARTCHAR 0036
ENCODING 54
SWIDTH 600 0
DWIDTH 20 0
BBX 16 23 2 0
BITMAP
07F0
1FF8
3FFC
781E
780E
700F
F007
F000
F000
F3F8
FFFC
FC1E
F80F
F00F
F007
F007
F007
7007
700F
780E
3E3E
1FFC
0FF0
ENDCHAR
STARTCHAR 0037
ENCODING 55
SWIDTH 600 0
DWIDTH 20 0
BBX 16 23 2 0
BITMAP
FFFF
FFFF
FFFF
000E
001C
003C
0038
0070
00F0
00E0
01E0
01C0
03C0
0380
0780
0780
0700
0700
0F00
0F00
0F00
0F00
0F00
ENDCHAR
STARTCHAR 0038
ENCODING 56
SWIDTH 600 0
DWIDTH 20 0
BBX 16 23 2 0
BITMAP
0FF0
1FF8
3E7C
781E
700E
700E
700E
700E
700E
3C3C
1FF8
1FF8
3FFC
781E
F00F
E007
E007
E007
F00F
F00F
7C3E
3FFC
0FF8
ENDCHAR
STARTCHAR 0039
ENCODING 57
SWIDTH 600 0
DWIDTH 20 0
BBX 16 23 2 0
BITMAP
0FE0
3FF8
7EFC
781E
F01E
E00E
E00F
E00F
E00F
E00F
F01F
783F
3FFF
1FEF
020F
000F
E00F
E00E
F00E
781E
7EFC
3FF8
0FF0
ENDCHAR
STARTCHAR 003A
ENCODING 58
SWIDTH 600 0
DWIDTH 20 0
BBX 4 17 8 0
BITMAP
F0
F0
F0
F0
00
00
00
00
00
00
00
00
00
F0
F0
F0
F0
ENDCHAR
STARTCHAR 003B
ENCODING 59
SWIDTH 600 0
DWIDTH 20 0
BBX 4 22 8 -5
BITMAP
F0
F0
F0
F0
00
00
00
00
00
00
00
00
F0
F0
F0
F0
F0
30
30
60
60
C0
ENDCHAR
STARTCHAR 003C
ENCODING 60
SWIDTH 600 0
DWIDTH 20 0
BBX 17 17 1 0
BITMAP
000080
000380
001F80
007F00
03FC00
0FE000
7F0000
FC0000
E00000
FC0000
7F0000
1FE000
03F800
00FF00
001F80
000380
000080
ENDCHAR
STARTCHAR 003D
ENCODING 61
SWIDTH 600 0
DWIDTH 20 0
BBX 18 9 1 4
BITMAP
FFFFC0
FFFFC0
000000
000000
000000
000000
000000
FFFFC0
FFFFC0
ENDCHAR
STARTCHAR 003E
ENCODING 62
SWIDTH 600 0
DWIDTH 20 0
BBX 17 17 2 0
BITMAP
800000
E00000
FC0000
7F0000
1FE000
03FC00
007F00
001F80
000380
001F80
007F00
03FC00
0FE000
7F0000
FC0000
E00000
800000
ENDCHAR
STARTCHAR 003F
ENCODING 63
SWIDTH 600 0
DWIDTH 20 0
BBX 14 23 3 0
BITMAP
0FE0
3FF0
7FF8
F03C
E03C
E01C
E01C
E01C
003C
0078
00F8
01F0
03C0
0380
0380
0380
0380
0000
0000
07C0
07C0
07C0
07C0
ENDCHAR
STARTCHAR 0040
ENCODING 64
SWIDTH 600 0
DWIDTH 20 0
BBX 20 28 0 -5
BITMAP
03FC00
07FF00
1C0380
1801C0
3000C0
300060
61F860
63FC60
670E30
C70E30
C70E30
C00630
C00630
C0FE30
C3FE30
C78630
C70630
CE0E30
CE0E30
CE0E20
671E60
67F7E0
63E3C0
300000
380000
1C0000
0F9E00
07FE00
ENDCHAR
STARTCHAR 0041
ENCODING 65
SWIDTH 600 0
DWIDTH 20 0
BBX 20 23 0 0
BITMAP
00F000
01F800
01F800
01F800
03FC00
039C00
039C00
079E00
071E00
070E00
0F0E00
0E0F00
0E0700
0E0700
1E0780
1FFF80
1FFF80
3FFFC0
3801C0
3801C0
7801E0
7000E0
F000F0
ENDCHAR
STARTCHAR 0042
ENCODING 66
SWIDTH 600 0
DWIDTH 20 0
BBX 16 23 2 0
BITMAP
FFF0
FFFC
FFFE
F01F
F00F
F00F
F00F
F00F
F00E
F01E
FFF8
FFF8
FFFE
F00F
F007
F007
F007
F007
F00F
F01F
FFFE
FFFC
FFF8
ENDCHAR
STARTCHAR 0043
ENCODING 67
SWIDTH 600 0
DWIDTH 20 0
BBX 17 23 1 0
BITMAP
07F800
1FFE00
3FFF00
3C0F00
780780
700380
700380
F00380
F00380
F00000
F00000
F00000
F00000
F00000
F00380
F00380
F00380
700380
780780
3C0700
3FFF00
1FFE00
07F800
ENDCHAR
STARTCHAR 0044
ENCODING 68
SWIDTH 600 0
DWIDTH 20 0
BBX 17 23 2 0
BITMAP
FFE000
FFFC00
FFFE00
F01F00
F00F00
F00780
F00380
F00380
F00380
F00380
F00380
F00380
F00380
F00380
F00380
F00380
F00380
F00780
F00780
F01F00
FFFE00
FFFC00
FFF000
ENDCHAR
STARTCHAR 0045
ENCODING 69
SWIDTH 600 0
DWIDTH 20 0
BBX 15 23 3 0
BITMAP
FFFE
FFFE
FFFC
E000
E000
E000
E000
E000
E000
E000
FFF8
FFF8
FFF8
E000
E000
E000
E000
E000
E000
E000
FFFE
FFFE
FFFE
ENDCHAR
STARTCHAR 0046
ENCODING 70
SWIDTH 600 0
DWIDTH 20 0
BBX 14 23 3 0
BITMAP
FFFC
FFFC
FFFC
E000
E000
E000
E000
E000
E000
E000
FFF8
FFF8
FFF8
E000
E000
E000
E000
E000
E000
E000
E000
E000
E000
ENDCHAR
STARTCHAR 0047
ENCODING 71
SWIDTH 600 0
DWIDTH 20 0
BBX 18 23 1 0
BITMAP
07F800
1FFE00
3FFF00
3C0F00
780780
700380
700380
F00380
F00000
F00000
F00000
F0FF80
F0FF80
F0FF80
F00380
F00380
F00380
700380
780780
3C0F80
3FFF80
1FFDC0
07F0C0
ENDCHAR
STARTCHAR 0048
ENCODING 72
SWIDTH 600 0
DWIDTH 20 0
BBX 16 23 2 0
BITMAP
F00F
F00F
F00F
F00F
F00F
F00F
F00F
F00F
F00F
F00F
FFFF
FFFF
FFFF
F00F
F00F
F00F
F00F
F00F
F00F
F00F
F00F
F00F
F00F
ENDCHAR
STARTCHAR 0049
ENCODING 73
SWIDTH 600 0
DWIDTH 20 0
BBX 12 23 4 0
BITMAP
FFF0
FFF0
FFF0
0F00
0F00
0F00
0F00
0F00
0F00
0F00
0F00
0F00
0F00
0F00
0F00
0F00
0F00
0F00
0F00
0F00
FFF0
FFF0
FFF0
ENDCHAR
STARTCHAR 004A
ENCODING 74
SWIDTH 600 0
DWIDTH 20 0
BBX 14 23 3 0
BITMAP
003C
003C
003C
003C
003C
003C
003C
003C
003C
003C
003C
003C
003C
003C
003C
003C
E03C
E03C
F03C
F03C
7CF8
3FF0
1FE0
ENDCHAR
STARTCHAR 004B
ENCODING 75
SWIDTH 600 0
DWIDTH 20 0
BBX 18 23 2 0
BITMAP
F00780
F00F00
F00E00
F01E00
F03C00
F07800
F07800
F0F000
F1E000
F3C000
F7C000
F7C000
FFE000
FDE000
FCF000
F87800
F07800
F03C00
F01E00
F01E00
F00F00
F00780
F007C0
ENDCHAR
STARTCHAR 004C
ENCODING 76
SWIDTH 600 0
DWIDTH 20 0
BBX 15 23 3 0
BITMAP
F000
F000
F000
F000
F000
F000
F000
F000
F000
F000
F000
F000
F000
F000
F000
F000
F000
F000
F000
F000
FFFC
FFFE
FFFE
ENDCHAR
STARTCHAR 004D
ENCODING 77
SWIDTH 600 0
DWIDTH 20 0
BBX 16 23 2 0
BITMAP
F81F
F81F
F81F
F81F
FC1F
FC37
FC37
EC37
EC37
EC37
EE77
EE67
EE67
E667
E667
E667
E7E7
E7C7
E7C7
E3C7
E3C7
E3C7
E387
ENDCHAR
STARTCHAR 004E
ENCODING 78
SWIDTH 600 0
DWIDTH 20 0
BBX 16 23 2 0
BITMAP
F00F
F80F
F80F
FC0F
FC0F
FE0F
FE0F
FF0F
F70F
F78F
F38F
F3CF
F1CF
F1EF
F0EF
F0FF
F07F
F07F
F03F
F03F
F01F
F01F
F00F
ENDCHAR
STARTCHAR 004F
ENCODING 79
SWIDTH 600 0
DWIDTH 20 0
BBX 18 23 1 0
BITMAP
07F800
1FFE00
3FFF00
3C0F00
780780
700380
700380
F003C0
F003C0
F003C0
F003C0
F003C0
F003C0
F003C0
F003C0
F003C0
F00380
700380
780780
3C0F00
3FFF00
1FFE00
07F800
ENDCHAR
STARTCHAR 0050
ENCODING 80
SWIDTH 600 0
DWIDTH 20 0
BBX 17 23 2 0
BITMAP
FFF800
FFFE00
FFFF00
F00F00
F00780
F00780
F00380
F00780
F00780
F00F80
F01F00
FFFE00
FFFC00
F00000
F00000
F00000
F00000
F00000
F00000
F00000
F00000
F00000
F00000
ENDCHAR
STARTCHAR 0051
ENCODING 81
SWIDTH 600 0
DWIDTH 20 0
BBX 18 28 1 -5
BITMAP
07F800
1FFE00
3FFF00
3C0F00
780780
700380
700380
F003C0
F003C0
F003C0
F003C0
F003C0
F003C0
F003C0
F003C0
F003C0
F00380
700380
780780
7C0F00
3FFF00
1FFE00
07F800
00E000
00F000
00FDC0
007FC0
000F00
ENDCHAR
STARTCHAR 0052
ENCODING 82
SWIDTH 600 0
DWIDTH 20 0
BBX 18 23 2 0
BITMAP
FFF800
FFFE00
FFFF00
F00F00
F00780
F00780
F00780
F00780
F00700
F00F00
FFFE00
FFF800
FFFC00
F03E00
F00F00
F00F00
F00700
F00700
F00700
F00700
F00780
F00780
F003C0
ENDCHAR
STARTCHAR 0053
ENCODING 83
SWIDTH 600 0
DWIDTH 20 0
BBX 18 23 1 0
BITMAP
07F800
1FFE00
3FFF00
780780
780380
700380
700380
780000
7C0000
3FC000
1FF800
07FE00
00FF00
001F80
0007C0
0003C0
F003C0
F003C0
700380
780780
3FFF00
3FFF00
0FFC00
ENDCHAR
STARTCHAR 0054
ENCODING 84
SWIDTH 600 0
DWIDTH 20 0
BBX 18 23 1 0
BITMAP
FFFFC0
FFFFC0
FFFFC0
01E000
01E000
01E000
01E000
01E000
01E000
01E000
01E000
01E000
01E000
01E000
01E000
01E000
01E000
01E000
01E000
01E000
01E000
01E000
01E000
ENDCHAR
STARTCHAR 0055
ENCODING 85
SWIDTH 600 0
DWIDTH 20 0
BBX 16 23 2 0
BITMAP
F00F
F00F
F00F
F00F
F00F
F00F
F00F
F00F
F00F
F00F
F00F
F00F
F00F
F00F
F00F
F00F
F00F
F00F
F00E
781E
7FFE
3FFC
0FF0
ENDCHAR
STARTCHAR 0056
ENCODING 86
SWIDTH 600 0
DWIDTH 20 0
BBX 20 23 0 0
BITMAP
F000F0
7000E0
7801E0
3801C0
3801C0
3C03C0
1C03C0
1C0380
1E0380
0E0780
0E0700
0F0700
0F0F00
070E00
070E00
079E00
039C00
039C00
03DC00
01F800
01F800
01F800
00F000
ENDCHAR
STARTCHAR 0057
ENCODING 87
SWIDTH 600 0
DWIDTH 20 0
BBX 20 23 0 0
BITMAP
E07070
E0F070
F0F070
70F060
70F0E0
70F8E0
70F8E0
70F8E0
79F8E0
7998E0
3998C0
3999C0
399DC0
399DC0
3B9DC0
3F8DC0
1F0D80
1F0F80
1F0F80
1F0F80
1F0F80
1F0F80
1E0780
ENDCHAR
STARTCHAR 0058
ENCODING 88
SWIDTH 600 0
DWIDTH 20 0
BBX 20 23 0 0
BITMAP
7801E0
3C01C0
1E03C0
1E0780
0F0700
0F0F00
079E00
03DC00
03FC00
01F800
01F800
01F800
01F800
03FC00
03BC00
079E00
0F0F00
0E0F00
1E0780
3C07C0
3C03C0
7801E0
F001F0
ENDCHAR
STARTCHAR 0059
ENCODING 89
SWIDTH 600 0
DWIDTH 20 0
BBX 18 23 1 0
BITMAP
F001C0
F003C0
780380
780780
3C0700
3C0F00
1E1E00
0E1E00
0F3C00
073800
07F800
03F000
03F000
01E000
01E000
01E000
01E000
01E000
01E000
01E000
01E000
01E000
01E000
ENDCHAR
STARTCHAR 005A
ENCODING 90
SWIDTH 600 0
DWIDTH 20 0
BBX 18 23 1 0
BITMAP
7FFF80
7FFF80
7FFF80
000F00
001E00
001E00
003C00
007C00
007800
00F000
00F000
01E000
03C000
03C000
078000
0F0000
0F0000
1E0000
3C0000
3C0000
7FFFC0
FFFFC0
FFFFC0
ENDCHAR
STARTCHAR 005B
ENCODING 91
SWIDTH 600 0
DWIDTH 20 0
BBX 7 28 8 -5
BITMAP
FE
FE
E0
E0
E0
E0
E0
E0
E0
E0
E0
E0
E0
E0
E0
E0
E0
E0
E0
E0
E0
E0
E0
E0
E0
E0
E0
FE
ENDCHAR
STARTCHAR 005C
ENCODING 92
SWIDTH 600 0
DWIDTH 20 0
BBX 18 29 1 -6
BITMAP
E00000
E00000
700000
700000
380000
180000
1C0000
0C0000
0E0000
070000
070000
038000
018000
01C000
00C000
00E000
007000
007000
003800
003800
001C00
000C00
000E00
000700
000700
000380
000380
0001C0
0000C0
ENDCHAR
STARTCHAR 005D
ENCODING 93
SWIDTH 600 0
DWIDTH 20 0
BBX 7 28 5 -5
BITMAP
FE
FE
0E
0E
0E
0E
0E
0E
0E
0E
0E
0E
0E
0E
0E
0E
0E
0E
0E
0E
0E
0E
0E
0E
0E
0E
0E
FE
ENDCHAR
STARTCHAR 005E
ENCODING 94
SWIDTH 600 0
DWIDTH 20 0
BBX 16 17 2 0
BITMAP
03C0
03C0
07E0
07E0
0E60
0E70
0E70
1C38
1C38
1818
381C
381C
700E
700E
700E
E007
E007
ENDCHAR
STARTCHAR 005F
ENCODING 95
SWIDTH 600 0
DWIDTH 20 0
BBX 16 2 2 -4
BITMAP
FFFF
FFFF
ENDCHAR
STARTCHAR 0060
ENCODING 96
SWIDTH 600 0
DWIDTH 20 0
BBX 6 5 7 20
BITMAP
F0
70
30
38
1C
ENDCHAR
STARTCHAR 0061
ENCODING 97
SWIDTH 600 0
DWIDTH 20 0
BBX 17 17 2 0
BITMAP
1FF000
3FF800
783C00
701C00
701E00
001E00
001E00
07FE00
3FFE00
7C1E00
701E00
F01E00
F01E00
F03E00
787E00
7FEF80
3FCF80
ENDCHAR
STARTCHAR 0062
ENCODING 98
SWIDTH 600 0
DWIDTH 20 0
BBX 15 24 3 0
BITMAP
E000
E000
E000
E000
E000
E000
E000
E7F0
EFF8
FC3C
F01C
F01E
F00E
E00E
E00E
E00E
E00E
E00E
F00E
F01E
F01C
FC7C
EFF8
E7F0
ENDCHAR
STARTCHAR 0063
ENCODING 99
SWIDTH 600 0
DWIDTH 20 0
BBX 15 17 2 0
BITMAP
0FF0
1FF8
3C3C
781C
700E
F00E
F00E
F000
F000
F000
F00E
F00E
700E
781E
3C3C
1FF8
0FF0
ENDCHAR
STARTCHAR 0064
ENCODING 100
SWIDTH 600 0
DWIDTH 20 0
BBX 15 24 2 0
BITMAP
000E
000E
000E
000E
000E
000E
000E
1FCE
3FEE
7C7E
701E
F01E
E01E
E00E
E00E
E00E
E00E
E00E
E01E
F01E
703E
7C7E
3FEE
1FCE
ENDCHAR
STARTCHAR 0065
ENCODING 101
SWIDTH 600 0
DWIDTH 20 0
BBX 16 17 2 0
BITMAP
0FF0
1FF8
3C3C
781E
700E
F00E
F00F
FFFF
FFFF
F000
F000
F00F
700E
780E
3C3C
1FFC
0FF0
ENDCHAR
STARTCHAR 0066
ENCODING 102
SWIDTH 600 0
DWIDTH 20 0
BBX 15 24 3 0
BITMAP
01FE
03FE
07C2
0700
0700
0700
0700
FFFE
FFFE
FFFE
0700
0700
0700
0700
0700
0700
0700
0700
0700
0700
0700
FFFE
FFFE
FFFE
ENDCHAR
STARTCHAR 0067
ENCODING 103
SWIDTH 600 0
DWIDTH 20 0
BBX 17 26 2 -6
BITMAP
000380
000380
000700
0FFE00
3FFC00
3C1E00
780E00
700E00
700E00
780E00
381E00
3FFC00
1FF800
7C0000
700000
700000
700000
7FFE00
3FFF00
7FFF80
E00780
E00380
E00380
E00780
FFFF00
7FFE00
ENDCHAR
STARTCHAR 0068
ENCODING 104
SWIDTH 600 0
DWIDTH 20 0
BBX 14 24 3 0
BITMAP
E000
E000
E000
E000
E000
E000
E000
E7F0
EFF8
FC7C
F03C
F01C
E01C
E01C
E01C
E01C
E01C
E01C
E01C
E01C
E01C
E01C
E01C
E01C
ENDCHAR
STARTCHAR 0069
ENCODING 105
SWIDTH 600 0
DWIDTH 20 0
BBX 15 24 3 0
BITMAP
0380
0380
0380
0000
0000
0000
0000
FFC0
FFC0
FFC0
03C0
03C0
03C0
03C0
03C0
03C0
03C0
03C0
03C0
03C0
03C0
FFFE
FFFE
FFFE
ENDCHAR
STARTCHAR 006A
ENCODING 106
SWIDTH 600 0
DWIDTH 20 0
BBX 10 30 3 -6
BITMAP
0380
0380
0380
0000
0000
0000
0000
FFC0
FFC0
FFC0
03C0
03C0
03C0
03C0
03C0
03C0
03C0
03C0
03C0
03C0
03C0
03C0
03C0
03C0
03C0
03C0
0380
C780
FF00
7E00
ENDCHAR
STARTCHAR 006B
ENCODING 107
SWIDTH 600 0
DWIDTH 20 0
BBX 15 24 3 0
BITMAP
E000
E000
E000
E000
E000
E000
E000
E03E
E038
E078
E0F0
E1E0
E3C0
E780
EF00
EF00
FF80
FBC0
F1E0
E1F0
E0F0
E078
E03C
E01E
ENDCHAR
STARTCHAR 006C
ENCODING 108
SWIDTH 600 0
DWIDTH 20 0
BBX 16 24 2 0
BITMAP
FFC0
FFC0
FFC0
01C0
01C0
01C0
01C0
01C0
01C0
01C0
01C0
01C0
01C0
01C0
01C0
01C0
01C0
01C0
01C0
01C0
01C0
FFFF
FFFF
FFFF
ENDCHAR
STARTCHAR 006D
ENCODING 109
SWIDTH 600 0
DWIDTH 20 0
BBX 16 17 2 0
BITMAP
DF3E
FFFF
F3EF
E3C7
E187
E187
E187
E187
E187
E187
E187
E187
E187
E187
E187
E187
E187
ENDCHAR
STARTCHAR 006E
ENCODING 110
SWIDTH 600 0
DWIDTH 20 0
BBX 14 17 3 0
BITMAP
E7F0
FFF8
FC7C
F03C
F01C
E01C
E01C
E01C
E01C
E01C
E01C
E01C
E01C
E01C
E01C
E01C
E01C
ENDCHAR
STARTCHAR 006F
ENCODING 111
SWIDTH 600 0
DWIDTH 20 0
BBX 16 17 2 0
BITMAP
0FF0
1FF8
3C3C
781E
700E
F00F
F00F
F00F
F00F
F00F
F00F
F00F
700E
781E
3C3C
1FF8
0FF0
ENDCHAR
STARTCHAR 0070
ENCODING 112
SWIDTH 600 0
DWIDTH 20 0
BBX 15 23 3 -6
BITMAP
E7F0
EFF8
FC3C
F01C
F01E
F00E
E00E
E00E
E00E
E00E
E00E
F00E
F01E
F01C
FC7C
EFF8
E7E0
E000
E000
E000
E000
E000
E000
ENDCHAR
STARTCHAR 0071
ENCODING 113
SWIDTH 600 0
DWIDTH 20 0
BBX 15 23 2 -6
BITMAP
0FCE
3FEE
7C7E
701E
F01E
E01E
E00E
E00E
E00E
E00E
E00E
E01E
F01E
703E
7C7E
3FEE
1FCE
000E
000E
000E
000E
000E
000E
ENDCHAR
STARTCHAR 0072
ENCODING 114
SWIDTH 600 0
DWIDTH 20 0
BBX 18 17 1 0
BITMAP
7F7F00
7FFF80
7FCF80
078380
0701C0
0701C0
070000
070000
070000
070000
070000
070000
070000
070000
FFFF00
FFFF00
FFFF00
ENDCHAR
STARTCHAR 0073
ENCODING 115
SWIDTH 600 0
DWIDTH 20 0
BBX 14 17 3 0
BITMAP
1FE0
7FF8
F038
E01C
E01C
F000
FC00
7FE0
3FF8
03FC
003C
001C
E01C
E01C
F03C
7FF8
3FF0
ENDCHAR
STARTCHAR 0074
ENCODING 116
SWIDTH 600 0
DWIDTH 20 0
BBX 16 22 2 0
BITMAP
0300
0700
0700
0700
0700
FFFF
FFFF
FFFF
0700
0700
0700
0700
0700
0700
0700
0700
0700
0700
0780
07E7
03FF
01FE
ENDCHAR
STARTCHAR 0075
ENCODING 117
SWIDTH 600 0
DWIDTH 20 0
BBX 17 17 2 0
BITMAP
F00E00
F00E00
F00E00
F00E00
F00E00
F00E00
F00E00
F00E00
F00E00
F00E00
F00E00
F01E00
701E00
783E00
7C7E00
3FEF80
1FCF80
ENDCHAR
STARTCHAR 0076
ENCODING 118
SWIDTH 600 0
DWIDTH 20 0
BBX 16 17 2 0
BITMAP
E007
F007
700E
700E
781E
381C
3C1C
1C38
1C38
1E38
0E70
0F70
0FF0
07E0
07E0
03C0
03C0
ENDCHAR
STARTCHAR 0077
ENCODING 119
SWIDTH 600 0
DWIDTH 20 0
BBX 20 17 0 0
BITMAP
E0F070
E0F070
60F060
70F0E0
70F8E0
71F8E0
71D8E0
3998C0
399DC0
3B9DC0
3B8DC0
1F0D80
1F0F80
1F0F80
1F0F80
0F0780
0E0700
ENDCHAR
STARTCHAR 0078
ENCODING 120
SWIDTH 600 0
DWIDTH 20 0
BBX 16 17 2 0
BITMAP
F80F
781E
3C1C
1E38
1E78
0FF0
07E0
07E0
03C0
07E0
0FF0
0E70
1E78
3C3C
381C
781E
F00F
ENDCHAR
STARTCHAR 0079
ENCODING 121
SWIDTH 600 0
DWIDTH 20 0
BBX 16 23 2 -6
BITMAP
F007
F00F
700E
780E
381C
381C
3C1C
1C38
1E38
0E70
0E70
0F70
07E0
07E0
03E0
03C0
03C0
0380
0380
0700
4F00
7E00
7C00
ENDCHAR
STARTCHAR 007A
ENCODING 122
SWIDTH 600 0
DWIDTH 20 0
BBX 14 17 3 0
BITMAP
7FF8
7FF8
0070
00F0
01E0
01E0
03C0
0380
0780
0F00
0F00
1E00
3C00
3C00
7800
7FFC
FFFC
ENDCHAR
STARTCHAR 007B
ENCODING 123
SWIDTH 600 0
DWIDTH 20 0
BBX 8 28 6 -5
BITMAP
07
0F
1C
18
18
18
18
18
18
18
18
18
38
F0
E0
F8
38
18
18
18
18
18
18
18
18
1C
1E
0F
ENDCHAR
STARTCHAR 007C
ENCODING 124
SWIDTH 600 0
DWIDTH 20 0
BBX 2 31 9 -7
BITMAP
C0
C0
C0
C0
C0
C0
C0
C0
C0
C0
C0
C0
C0
C0
C0
C0
C0
C0
C0
C0
C0
C0
C0
C0
C0
C0
C0
C0
C0
C0
C0
ENDCHAR
STARTCHAR 007D
ENCODING 125
SWIDTH 600 0
DWIDTH 20 0
BBX 8 28 6 -5
BITMAP
E0
F8
38
18
18
18
18
18
18
18
18
18
1C
0F
07
1F
1C
18
18
18
18
18
18
18
18
38
78
F0
ENDCHAR
STARTCHAR 007E
ENCODING 126
SWIDTH 600 0
DWIDTH 20 0
BBX 18 6 1 7
BITMAP
000040
3F8040
FFE3C0
F3FFC0
807F00
800800
ENDCHAR
STARTCHAR 00A0
ENCODING 160
SWIDTH 600 0
DWIDTH 20 0
BBX 0 0 0 0
BITMAP
ENDCHAR
STARTCHAR 00A1
ENCODING 161
SWIDTH 600 0
DWIDTH 20 0
BBX 4 23 8 -6
BITMAP
F0
F0
F0
F0
00
00
60
60
60
60
60
60
60
F0
F0
F0
F0
F0
F0
F0
F0
F0
F0
ENDCHAR
STARTCHAR 00A2
ENCODING 162
SWIDTH 600 0
DWIDTH 20 0
BBX 15 23 3 0
BITMAP
0380
0300
0300
0FE0
3FF0
7C78
701C
F01C
E01C
E01E
E000
E000
E000
E00E
E00C
F01C
701C
7838
3FF8
1FE0
0300
0300
0380
ENDCHAR
STARTCHAR 00A3
ENCODING 163
SWIDTH 600 0
DWIDTH 20 0
BBX 18 23 1 0
BITMAP
01FC00
07FF00
0FDF80
0F0780
0E0380
1E03C0
1E03C0
1E0000
1E0000
1E0000
FFF800
FFF800
FFF800
1E0000
1E0000
1E0000
1E0000
1E0000
1E0000
1C0000
FFFF80
FFFF80
FFFF80
ENDCHAR
STARTCHAR 00A4
ENCODING 164
SWIDTH 600 0
DWIDTH 20 0
BBX 16 17 2 3
BITMAP
4102
CFF3
FFFF
781E
700E
E007
E007
C003
C003
C003
C003
E007
6006
700E
7C3E
FFFF
C7E3
ENDCHAR
STARTCHAR 00A5
ENCODING 165
SWIDTH 600 0
DWIDTH 20 0
BBX 18 23 1 0
BITMAP
F001C0
F003C0
780380
780780
3C0700
3C0F00
1E1E00
0E1C00
FF3FC0
FF3FC0
07F800
03F000
03F000
FFFFC0
FFFFC0
01E000
01E000
01E000
01E000
01E000
01E000
01E000
01E000
ENDCHAR
STARTCHAR 00A6
ENCODING 166
SWIDTH 600 0
DWIDTH 20 0
BBX 2 31 9 -7
BITMAP
C0
C0
C0
C0
C0
C0
C0
C0
C0
C0
C0
C0
00
00
00
00
00
00
00
C0
C0
C0
C0
C0
C0
C0
C0
C0
C0
C0
C0
ENDCHAR
STARTCHAR 00A7
ENCODING 167
SWIDTH 600 0
DWIDTH 20 0
BBX 14 29 3 -6
BITMAP
1FE0
3FF0
7878
F01C
E01C
E000
F000
7800
3E00
1F80
7FE0
E1F8
E07C
C01C
E01C
E00C
F81C
7E1C
1FF8
07E0
01F0
0078
003C
001C
E01C
F03C
7878
3FF0
1FE0
ENDCHAR
STARTCHAR 00A8
ENCODING 168
SWIDTH 600 0
DWIDTH 20 0
BBX 10 4 5 20
BITMAP
E1C0
E1C0
E1C0
E1C0
ENDCHAR
STARTCHAR 00A9
ENCODING 169
SWIDTH 600 0
DWIDTH 20 0
BBX 20 23 0 0
BITMAP
03FC00
0E0700
180180
3000C0
206040
61FC60
439E20
470620
C60630
C60630
C60130
C60030
C60030
C60730
C60630
460620
478E20
63FC60
20F040
3000C0
180180
0E0700
03FC00
ENDCHAR
STARTCHAR 00AA
ENCODING 170
SWIDTH 600 0
DWIDTH 20 0
BBX 10 11 5 12
BITMAP
3F00
7780
C180
0180
1F80
7F80
C180
C380
E780
FDC0
3080
ENDCHAR
STARTCHAR 00AB
ENCODING 171
SWIDTH 600 0
DWIDTH 20 0
BBX 13 12 3 5
BITMAP
0E18
1C38
3870
38F0
70E0
F1C0
71E0
70E0
3870
1C30
1C38
0E18
ENDCHAR
STARTCHAR 00AC
ENCODING 172
SWIDTH 600 0
DWIDTH 20 0
BBX 17 9 1 6
BITMAP
FFFF80
FFFF80
FFFF80
000380
000380
000380
000380
000380
000380
ENDCHAR
STARTCHAR 00AD
ENCODING 173
SWIDTH 600 0
DWIDTH 20 0
BBX 8 4 6 7
BITMAP
FF
FF
FF
FF
ENDCHAR
STARTCHAR 00AE
ENCODING 174
SWIDTH 600 0
DWIDTH 20 0
BBX 20 23 0 0
BITMAP
03FC00
0E0700
180180
3000C0
200040
67FC60
47FE20
470620
C70630
C70630
C70E30
C7F830
C71C30
C70E30
C70630
470620
470620
670760
270140
3000C0
180180
0E0700
03FC00
ENDCHAR
STARTCHAR 00AF
ENCODING 175
SWIDTH 600 0
DWIDTH 20 0
BBX 10 2 5 21
BITMAP
FFC0
FFC0
ENDCHAR
STARTCHAR 00B0
ENCODING 176
SWIDTH 600 0
DWIDTH 20 0
BBX 10 10 5 13
BITMAP
3F00
7F80
E1C0
C0C0
C0C0
C0C0
C0C0
6180
7F80
1E00
ENDCHAR
STARTCHAR 00B1
ENCODING 177
SWIDTH 600 0
DWIDTH 20 0
BBX 18 17 1 0
BITMAP
00C000
00C000
00C000
00C000
00C000
FFFFC0
FFFFC0
FFFFC0
00C000
00C000
00C000
00C000
00C000
000000
7FFF80
7FFF80
7FFF80
ENDCHAR
STARTCHAR 00B2
ENCODING 178
SWIDTH 600 0
DWIDTH 20 0
BBX 9 13 5 14
BITMAP
1E00
3F00
6380
6180
6180
0180
0380
0F00
1C00
3800
6000
7F80
FF80
ENDCHAR
STARTCHAR 00B3
ENCODING 179
SWIDTH 600 0
DWIDTH 20 0
BBX 9 13 5 14
BITMAP
1E00
3F00
6380
6180
0180
0380
1E00
0780
0180
C180
E180
7F80
3F00
ENDCHAR
STARTCHAR 00B4
ENCODING 180
SWIDTH 600 0
DWIDTH 20 0
BBX 6 5 7 20
BITMAP
3C
38
70
70
E0
ENDCHAR
STARTCHAR 00B5
ENCODING 181
SWIDTH 600 0
DWIDTH 20 0
BBX 17 22 2 -5
BITMAP
F00E00
F00E00
F00E00
F00E00
F00E00
F00E00
F00E00
F00E00
F00E00
F00E00
F00E00
F01E00
F01E00
F83E00
FC7E00
FFEF80
FFCF80
F00000
F00000
F00000
F00000
F00000
ENDCHAR
STARTCHAR 00B6
ENCODING 182
SWIDTH 600 0
DWIDTH 20 0
BBX 16 29 1 -6
BITMAP
07FF
1FFF
3F9C
7F9C
7F9C
7F9C
FF9C
FF9C
7F9C
7F9C
7F9C
3F9C
3F9C
0F9C
039C
019C
019C
019C
019C
019C
019C
019C
019C
019C
019C
019C
019C
019C
019C
ENDCHAR
STARTCHAR 00B7
ENCODING 183
SWIDTH 600 0
DWIDTH 20 0
BBX 4 5 8 10
BITMAP
F0
F0
F0
F0
F0
ENDCHAR
STARTCHAR 00B8
ENCODING 184
SWIDTH 600 0
DWIDTH 20 0
BBX 8 6 6 -7
BITMAP
1C
0E
07
06
7E
FC
ENDCHAR
STARTCHAR 00B9
ENCODING 185
SWIDTH 600 0
DWIDTH 20 0
BBX 8 13 6 14
BITMAP
08
F8
F8
18
18
18
18
18
18
18
18
FF
FF
ENDCHAR
STARTCHAR 00BA
ENCODING 186
SWIDTH 600 0
DWIDTH 20 0
BBX 10 10 5 13
BITMAP
3F00
7380
6180
E1C0
E1C0
E1C0
E1C0
6180
7380
3F00
ENDCHAR
STARTCHAR 00BB
ENCODING 187
SWIDTH 600 0
DWIDTH 20 0
BBX 13 12 4 5
BITMAP
C380
E1C0
70E0
38E0
3870
1C78
3C70
3870
70E0
61C0
E1C0
C380
ENDCHAR
STARTCHAR 00BC
ENCODING 188
SWIDTH 600 0
DWIDTH 20 0
BBX 20 23 0 0
BITMAP
080070
780060
F800C0
180180
180380
180300
180600
180C00
181800
180000
180300
FF0300
FF0340
000640
0186C0
030CC0
060CC0
0E18C0
0C1FF0
181FF0
3000C0
7000C0
E000C0
ENDCHAR
STARTCHAR 00BD
ENCODING 189
SWIDTH 600 0
DWIDTH 20 0
BBX 20 23 0 0
BITMAP
080070
7800E0
F800C0
180180
180300
180700
180600
180C00
181800
180000
1803C0
FF0FE0
FF0C70
001830
019830
030070
060060
0C01C0
1C0380
180E00
300C00
701FF0
E01FF0
ENDCHAR
STARTCHAR 00BE
ENCODING 190
SWIDTH 600 0
DWIDTH 20 0
BBX 20 24 0 0
BITMAP
1C0000
7F0070
E38060
C180C0
018180
030380
1E0300
070600
018C00
C19800
C18000
F70300
7E0300
000340
000640
0186C0
030CC0
060CC0
0E18C0
0C1FF0
181FF0
3000C0
7000C0
E000C0
ENDCHAR
STARTCHAR 00BF
ENCODING 191
SWIDTH 600 0
DWIDTH 20 0
BBX 14 23 3 -6
BITMAP
0F80
0F80
0F80
0F80
0000
0000
0700
0700
0700
0700
0F00
3E00
7C00
7800
F000
E01C
E01C
E01C
F01C
F038
7EF8
3FF0
1FC0
ENDCHAR
STARTCHAR 00C0
ENCODING 192
SWIDTH 600 0
DWIDTH 20 0
BBX 20 30 0 0
BITMAP
070000
038000
01C000
00E000
007000
000000
000000
00F000
01F800
01F800
01F800
03FC00
039C00
039C00
079E00
071E00
070E00
0F0E00
0E0F00
0E0700
0E0700
1E0780
1FFF80
1FFF80
3FFFC0
3801C0
3801C0
7801E0
7000E0
F000F0
ENDCHAR
STARTCHAR 00C1
ENCODING 193
SWIDTH 600 0
DWIDTH 20 0
BBX 20 30 0 0
BITMAP
000E00
001C00
003800
003000
007000
000000
000000
00F000
01F800
01F800
01F800
03FC00
039C00
039C00
079E00
071E00
070E00
0F0E00
0E0F00
0E0700
0E0700
1E0780
1FFF80
1FFF80
3FFFC0
3801C0
3801C0
7801E0
7000E0
F000F0
ENDCHAR
STARTCHAR 00C2
ENCODING 194
SWIDTH 600 0
DWIDTH 20 0
BBX 20 30 0 0
BITMAP
00F000
01F800
039C00
071C00
0F0F00
000000
000000
00F000
01F800
01F800
01F800
03FC00
039C00
039C00
079E00
071E00
070E00
0F0E00
0E0F00
0E0700
0E0700
1E0780
1FFF80
1FFF80
3FFFC0
3801C0
3801C0
7801E0
7000E0
F000F0
ENDCHAR
STARTCHAR 00C3
ENCODING 195
SWIDTH 600 0
DWIDTH 20 0
BBX 20 29 0 0
BITMAP
07E300
07FE00
0C7E00
000000
000000
000000
00F000
01F800
01F800
01F800
03FC00
039C00
039C00
079E00
071E00
070E00
0F0E00
0E0F00
0E0700
0E0700
1E0780
1FFF80
1FFF80
3FFFC0
3801C0
3801C0
7801E0
7000E0
F000F0
ENDCHAR
STARTCHAR 00C4
ENCODING 196
SWIDTH 600 0
DWIDTH 20 0
BBX 20 29 0 0
BITMAP
070E00
070E00
070E00
000000
000000
000000
00F000
01F800
01F800
01F800
03FC00
039C00
039C00
079E00
071E00
070E00
0F0E00
0E0F00
0E0700
0E0700
1E0780
1FFF80
1FFF80
3FFFC0
3801C0
3801C0
7801E0
7000E0
F000F0
ENDCHAR
STARTCHAR 00C5
ENCODING 197
SWIDTH 600 0
DWIDTH 20 0
BBX 20 31 0 0
BITMAP
01F800
019800
030C00
010C00
019800
00F000
000000
000000
00F000
01F800
01F800
01F800
03FC00
039C00
039C00
079E00
071E00
070E00
0F0E00
0E0F00
0E0700
0E0700
1E0780
1FFF80
1FFF80
3FFFC0
3801C0
3801C0
7801E0
7000E0
F000F0
ENDCHAR
STARTCHAR 00C6
ENCODING 198
SWIDTH 600 0
DWIDTH 20 0
BBX 20 23 0 0
BITMAP
01FFE0
01FFE0
01FFE0
03F800
03B800
03B800
07B800
073800
073800
0F3800
0E3FC0
0E3FC0
1E3FC0
1C3800
1C3800
3FF800
3FF800
3FF800
783800
783800
703FE0
F03FE0
F03FF0
ENDCHAR
STARTCHAR 00C7
ENCODING 199
SWIDTH 600 0
DWIDTH 20 0
BBX 17 30 1 -7
BITMAP
07F800
1FFE00
3FFF00
3C0F00
780780
700380
700380
F00380
F00380
F00000
F00000
F00000
F00000
F00000
F00380
F00380
F00380
700380
780780
3C0700
3FFF00
1FFE00
07F800
000000
00E000
007000
003800
003000
03F000
07E000
ENDCHAR
STARTCHAR 00C8
ENCODING 200
SWIDTH 600 0
DWIDTH 20 0
BBX 15 30 3 0
BITMAP
3C00
1E00
0E00
0700
0380
0000
0000
FFFE
FFFE
FFFC
E000
E000
E000
E000
E000
E000
E000
FFF8
FFF8
FFF8
E000
E000
E000
E000
E000
E000
E000
FFFE
FFFE
FFFE
ENDCHAR
STARTCHAR 00C9
ENCODING 201
SWIDTH 600 0
DWIDTH 20 0
BBX 15 30 3 0
BITMAP
0078
0070
00E0
01C0
0380
0000
0000
FFFE
FFFE
FFFC
E000
E000
E000
E000
E000
E000
E000
FFF8
FFF8
FFF8
E000
E000
E000
E000
E000
E000
E000
FFFE
FFFE
FFFE
ENDCHAR
STARTCHAR 00CA
ENCODING 202
SWIDTH 600 0
DWIDTH 20 0
BBX 15 30 3 0
BITMAP
0380
07C0
0EE0
1C70
3838
0000
0000
FFFE
FFFE
FFFC
E000
E000
E000
E000
E000
E000
E000
FFF8
FFF8
FFF8
E000
E000
E000
E000
E000
E000
E000
FFFE
FFFE
FFFE
ENDCHAR
STARTCHAR 00CB
ENCODING 203
SWIDTH 600 0
DWIDTH 20 0
BBX 15 29 3 0
BITMAP
3838
3838
3838
0000
0000
0000
FFFE
FFFE
FFFC
E000
E000
E000
E000
E000
E000
E000
FFF8
FFF8
FFF8
E000
E000
E000
E000
E000
E000
E000
FFFE
FFFE
FFFE
ENDCHAR
STARTCHAR 00CC
ENCODING 204
SWIDTH 600 0
DWIDTH 20 0
BBX 12 30 4 0
BITMAP
7000
3800
1C00
0E00
0700
0000
0000
FFF0
FFF0
FFF0
0F00
0F00
0F00
0F00
0F00
0F00
0F00
0F00
0F00
0F00
0F00
0F00
0F00
0F00
0F00
0F00
0F00
FFF0
FFF0
FFF0
ENDCHAR
STARTCHAR 00CD
ENCODING 205
SWIDTH 600 0
DWIDTH 20 0
BBX 12 30 4 0
BITMAP
00E0
01C0
0380
0300
0700
0000
0000
FFF0
FFF0
FFF0
0F00
0F00
0F00
0F00
0F00
0F00
0F00
0F00
0F00
0F00
0F00
0F00
0F00
0F00
0F00
0F00
0F00
FFF0
FFF0
FFF0
ENDCHAR
STARTCHAR 00CE
ENCODING 206
SWIDTH 600 0
DWIDTH 20 0
BBX 12 30 4 0
BITMAP
0F00
1F80
39C0
71C0
F0F0
0000
0000
FFF0
FFF0
FFF0
0F00
0F00
0F00
0F00
0F00
0F00
0F00
0F00
0F00
0F00
0F00
0F00
0F00
0F00
0F00
0F00
0F00
FFF0
FFF0
FFF0
ENDCHAR
STARTCHAR 00CF
ENCODING 207
SWIDTH 600 0
DWIDTH 20 0
BBX 12 29 4 0
BITMAP
70E0
70E0
70E0
0000
0000
0000
FFF0
FFF0
FFF0
0F00
0F00
0F00
0F00
0F00
0F00
0F00
0F00
0F00
0F00
0F00
0F00
0F00
0F00
0F00
0F00
0F00
FFF0
FFF0
FFF0
ENDCHAR
STARTCHAR 00D0
ENCODING 208
SWIDTH 600 0
DWIDTH 20 0
BBX 19 23 0 0
BITMAP
3FF800
3FFF00
3FFF80
3C07C0
3C03C0
3C01E0
3C00E0
3C00E0
3C00E0
3C00E0
FFF0E0
FFF0E0
FFF0E0
3C00E0
3C00E0
3C00E0
3C00E0
3C01E0
3C01E0
3C07C0
3FFF80
3FFF00
3FFC00
ENDCHAR
STARTCHAR 00D1
ENCODING 209
SWIDTH 600 0
DWIDTH 20 0
BBX 16 29 2 0
BITMAP
1F8C
1FF8
31F8
0000
0000
0000
F00F
F80F
F80F
FC0F
FC0F
FE0F
FE0F
FF0F
F70F
F78F
F38F
F3CF
F1CF
F1EF
F0EF
F0FF
F07F
F07F
F03F
F03F
F01F
F01F
F00F
ENDCHAR
STARTCHAR 00D2
ENCODING 210
SWIDTH 600 0
DWIDTH 20 0
BBX 18 30 1 0
BITMAP
0E0000
070000
038000
01C000
00E000
000000
000000
07F800
1FFE00
3FFF00
3C0F00
780780
700380
700380
F003C0
F003C0
F003C0
F003C0
F003C0
F003C0
F003C0
F003C0
F003C0
F00380
700380
780780
3C0F00
3FFF00
1FFE00
07F800
ENDCHAR
STARTCHAR 00D3
ENCODING 211
SWIDTH 600 0
DWIDTH 20 0
BBX 18 30 1 0
BITMAP
001C00
003800
007000
006000
00E000
000000
000000
07F800
1FFE00
3FFF00
3C0F00
780780
700380
700380
F003C0
F003C0
F003C0
F003C0
F003C0
F003C0
F003C0
F003C0
F003C0
F00380
700380
780780
3C0F00
3FFF00
1FFE00
07F800
ENDCHAR
STARTCHAR 00D4
ENCODING 212
SWIDTH 600 0
DWIDTH 20 0
BBX 18 30 1 0
BITMAP
01E000
03F000
073800
0E3800
1E1E00
000000
000000
07F800
1FFE00
3FFF00
3C0F00
780780
700380
700380
F003C0
F003C0
F003C0
F003C0
F003C0
F003C0
F003C0
F003C0
F003C0
F00380
700380
780780
3C0F00
3FFF00
1FFE00
07F800
ENDCHAR
STARTCHAR 00D5
ENCODING 213
SWIDTH 600 0
DWIDTH 20 0
BBX 18 29 1 0
BITMAP
0FC600
0FFC00
18FC00
000000
000000
000000
07F800
1FFE00
3FFF00
3C0F00
780780
700380
700380
F003C0
F003C0
F003C0
F003C0
F003C0
F003C0
F003C0
F003C0
F003C0
F00380
700380
780780
3C0F00
3FFF00
1FFE00
07F800
ENDCHAR
STARTCHAR 00D6
ENCODING 214
SWIDTH 600 0
DWIDTH 20 0
BBX 18 29 1 0
BITMAP
0E1C00
0E1C00
0E1C00
000000
000000
000000
07F800
1FFE00
3FFF00
3C0F00
780780
700380
700380
F003C0
F003C0
F003C0
F003C0
F003C0
F003C0
F003C0
F003C0
F003C0
F00380
700380
780780
3C0F00
3FFF00
1FFE00
07F800
ENDCHAR
STARTCHAR 00D7
ENCODING 215
SWIDTH 600 0
DWIDTH 20 0
BBX 14 14 3 2
BITMAP
4008
6018
F03C
7878
3CF0
1FE0
0FC0
0780
0FC0
1FE0
3CF0
7878
F03C
6018
ENDCHAR
STARTCHAR 00D8
ENCODING 216
SWIDTH 600 0
DWIDTH 20 0
BBX 18 27 1 -2
BITMAP
0000C0
000180
07F980
1FFF00
3FFF00
3C0F00
780F80
700F80
701B80
F03BC0
F033C0
F063C0
F063C0
F0C3C0
F1C3C0
F183C0
F303C0
F303C0
F60380
7E0380
7C0780
3C0F00
3FFF00
3FFE00
77F800
600000
C00000
ENDCHAR
STARTCHAR 00D9
ENCODING 217
SWIDTH 600 0
DWIDTH 20 0
BBX 16 30 2 0
BITMAP
1C00
0E00
0700
0380
01C0
0000
0000
F00F
F00F
F00F
F00F
F00F
F00F
F00F
F00F
F00F
F00F
F00F
F00F
F00F
F00F
F00F
F00F
F00F
F00F
F00E
781E
7FFE
3FFC
0FF0
ENDCHAR
STARTCHAR 00DA
ENCODING 218
SWIDTH 600 0
DWIDTH 20 0
BBX 16 30 2 0
BITMAP
0038
0070
00E0
00C0
01C0
0000
0000
F00F
F00F
F00F
F00F
F00F
F00F
F00F
F00F
F00F
F00F
F00F
F00F
F00F
F00F
F00F
F00F
F00F
F00F
F00E
781E
7FFE
3FFC
0FF0
ENDCHAR
STARTCHAR 00DB
ENCODING 219
SWIDTH 600 0
DWIDTH 20 0
BBX 16 30 2 0
BITMAP
03C0
07E0
0E70
1C70
3C3C
0000
0000
F00F
F00F
F00F
F00F
F00F
F00F
F00F
F00F
F00F
F00F
F00F
F00F
F00F
F00F
F00F
F00F
F00F
F00F
F00E
781E
7FFE
3FFC
0FF0
ENDCHAR
STARTCHAR 00DC
ENCODING 220
SWIDTH 600 0
DWIDTH 20 0
BBX 16 29 2 0
BITMAP
1C38
1C38
1C38
0000
0000
0000
F00F
F00F
F00F
F00F
F00F
F00F
F00F
F00F
F00F
F00F
F00F
F00F
F00F
F00F
F00F
F00F
F00F
F00F
F00E
781E
7FFE
3FFC
0FF0
ENDCHAR
STARTCHAR 00DD
ENCODING 221
SWIDTH 600 0
DWIDTH 20 0
BBX 18 30 1 0
BITMAP
001C00
003800
007000
006000
00E000
000000
000000
F001C0
F003C0
780380
780780
3C0700
3C0F00
1E1E00
0E1E00
0F3C00
073800
07F800
03F000
03F000
01E000
01E000
01E000
01E000
01E000
01E000
01E000
01E000
01E000
01E000
ENDCHAR
STARTCHAR 00DE
ENCODING 222
SWIDTH 600 0
DWIDTH 20 0
BBX 16 23 3 0
BITMAP
E000
E000
E000
E000
FFE0
FFF8
FFFC
E01E
E00F
E00F
E007
E007
E00F
E00F
E03E
FFFC
FFF8
E000
E000
E000
E000
E000
E000
ENDCHAR
STARTCHAR 00DF
ENCODING 223
SWIDTH 600 0
DWIDTH 20 0
BBX 18 26 0 -2
BITMAP
01FC00
07FF00
0FDF80
0E0780
1E03C0
1C03C0
1C03C0
FC0380
FC0380
FC0700
1CFE00
1CFE00
1C1F80
1C0380
1C03C0
1C01C0
1C01C0
1C01C0
1C01C0
1C03C0
1C07C0
1CFF80
1CFF00
1CFC00
1C0000
1C0000
ENDCHAR
STARTCHAR 00E0
ENCODING 224
SWIDTH 600 0
DWIDTH 20 0
BBX 17 25 2 0
BITMAP
0E0000
070000
070000
030000
038000
000000
000000
000000
1FF000
3FF800
783C00
701C00
701E00
001E00
001E00
07FE00
3FFE00
7C1E00
701E00
F01E00
F01E00
F03E00
787E00
7FEF80
3FCF80
ENDCHAR
STARTCHAR 00E1
ENCODING 225
SWIDTH 600 0
DWIDTH 20 0
BBX 17 25 2 0
BITMAP
00F000
00E000
01C000
018000
038000
000000
000000
000000
1FF000
3FF800
783C00
701C00
701E00
001E00
001E00
07FE00
3FFE00
7C1E00
701E00
F01E00
F01E00
F03E00
787E00
7FEF80
3FCF80
ENDCHAR
STARTCHAR 00E2
ENCODING 226
SWIDTH 600 0
DWIDTH 20 0
BBX 17 25 2 0
BITMAP
03C000
07C000
0EE000
1C7000
1C3800
200000
000000
000000
1FF000
3FF800
783C00
701C00
701E00
001E00
001E00
07FE00
3FFE00
7C1E00
701E00
F01E00
F01E00
F03E00
787E00
7FEF80
3FCF80
ENDCHAR
STARTCHAR 00E3
ENCODING 227
SWIDTH 600 0
DWIDTH 20 0
BBX 17 24 2 0
BITMAP
1F0C00
3FF800
31F800
207000
000000
000000
000000
1FF000
3FF800
783C00
701C00
701E00
001E00
001E00
07FE00
3FFE00
7C1E00
701E00
F01E00
F01E00
F03E00
787E00
7FEF80
3FCF80
ENDCHAR
STARTCHAR 00E4
ENCODING 228
SWIDTH 600 0
DWIDTH 20 0
BBX 17 24 2 0
BITMAP
3C3800
3C3800
3C3800
3C3800
000000
000000
000000
1FF000
3FF800
783C00
701C00
701E00
001E00
001E00
07FE00
3FFE00
7C1E00
701E00
F01E00
F01E00
F03E00
787E00
7FEF80
3FCF80
ENDCHAR
STARTCHAR 00E5
ENCODING 229
SWIDTH 600 0
DWIDTH 20 0
BBX 17 26 2 0
BITMAP
07C000
06E000
0C6000
0C6000
0E6000
07C000
010000
000000
000000
1FF000
3FF800
783C00
701C00
701E00
001E00
001E00
07FE00
3FFE00
7C1E00
701E00
F01E00
F01E00
F03E00
787E00
7FEF80
3FCF80
ENDCHAR
STARTCHAR 00E6
ENCODING 230
SWIDTH 600 0
DWIDTH 20 0
BBX 20 17 0 0
BITMAP
1F8F80
3FDFC0
70F8E0
70F0E0
707060
007060
007060
0FFFF0
3FFFF0
787000
707010
607060
E0F060
60F060
71F8E0
7FBFC0
3F0F80
ENDCHAR
STARTCHAR 00E7
ENCODING 231
SWIDTH 600 0
DWIDTH 20 0
BBX 15 24 2 -7
BITMAP
0FF0
1FF8
3C3C
781C
700E
F00E
F00E
F000
F000
F000
F00E
F00E
700E
781E
3C3C
1FF8
0FF0
0000
01C0
00E0
0070
0060
07E0
0FC0
ENDCHAR
STARTCHAR 00E8
ENCODING 232
SWIDTH 600 0
DWIDTH 20 0
BBX 16 25 2 0
BITMAP
0F00
0700
0380
0380
01C0
0000
0000
0000
0FF0
1FF8
3C3C
781E
700E
F00E
F00F
FFFF
FFFF
F000
F000
F00F
700E
780E
3C3C
1FFC
0FF0
ENDCHAR
STARTCHAR 00E9
ENCODING 233
SWIDTH 600 0
DWIDTH 20 0
BBX 16 25 2 0
BITMAP
0070
00E0
00E0
01C0
0180
0200
0000
0000
0FF0
1FF8
3C3C
781E
700E
F00E
F00F
FFFF
FFFF
F000
F000
F00F
700E
780E
3C3C
1FFC
0FF0
ENDCHAR
STARTCHAR 00EA
ENCODING 234
SWIDTH 600 0
DWIDTH 20 0
BBX 16 25 2 0
BITMAP
03C0
07E0
0770
0E30
1C38
0004
0000
0000
0FF0
1FF8
3C3C
781E
700E
F00E
F00F
FFFF
FFFF
F000
F000
F00F
700E
780E
3C3C
1FFC
0FF0
ENDCHAR
STARTCHAR 00EB
ENCODING 235
SWIDTH 600 0
DWIDTH 20 0
BBX 16 24 2 0
BITMAP
1C38
1C38
1C38
1C38
0000
0000
0000
0FF0
1FF8
3C3C
781E
700E
F00E
F00F
FFFF
FFFF
F000
F000
F00F
700E
780E
3C3C
1FFC
0FF0
ENDCHAR
STARTCHAR 00EC
ENCODING 236
SWIDTH 600 0
DWIDTH 20 0
BBX 15 25 3 0
BITMAP
0E00
0700
0700
0300
0380
0000
0000
0000
FFC0
FFC0
FFC0
03C0
03C0
03C0
03C0
03C0
03C0
03C0
03C0
03C0
03C0
03C0
FFFE
FFFE
FFFE
ENDCHAR
STARTCHAR 00ED
ENCODING 237
SWIDTH 600 0
DWIDTH 20 0
BBX 15 25 3 0
BITMAP
00F0
00E0
01C0
0180
0380
0000
0000
0000
FFC0
FFC0
FFC0
03C0
03C0
03C0
03C0
03C0
03C0
03C0
03C0
03C0
03C0
03C0
FFFE
FFFE
FFFE
ENDCHAR
STARTCHAR 00EE
ENCODING 238
SWIDTH 600 0
DWIDTH 20 0
BBX 15 25 3 0
BITMAP
03C0
07C0
0EE0
1C70
1C38
2000
0000
0000
FFC0
FFC0
FFC0
03C0
03C0
03C0
03C0
03C0
03C0
03C0
03C0
03C0
03C0
03C0
FFFE
FFFE
FFFE
ENDCHAR
STARTCHAR 00EF
ENCODING 239
SWIDTH 600 0
DWIDTH 20 0
BBX 15 24 3 0
BITMAP
3C38
3C38
3C38
3C38
0000
0000
0000
FFC0
FFC0
FFC0
03C0
03C0
03C0
03C0
03C0
03C0
03C0
03C0
03C0
03C0
03C0
FFFE
FFFE
FFFE
ENDCHAR
STARTCHAR 00F0
ENCODING 240
SWIDTH 600 0
DWIDTH 20 0
BBX 16 24 2 0
BITMAP
3C20
0EF0
0780
1FC0
39E0
00F0
0078
0FF8
1FFC
3C3E
781E
700E
F00F
F00F
F00F
F00F
F00F
F00F
F00F
700E
781E
3C3C
1FF8
0FF0
ENDCHAR
STARTCHAR 00F1
ENCODING 241
SWIDTH 600 0
DWIDTH 20 0
BBX 14 24 3 0
BITMAP
3E18
3FF8
63F0
60E0
0000
0000
0000
E7F0
FFF8
FC7C
F03C
F01C
E01C
E01C
E01C
E01C
E01C
E01C
E01C
E01C
E01C
E01C
E01C
E01C
ENDCHAR
STARTCHAR 00F2
ENCODING 242
SWIDTH 600 0
DWIDTH 20 0
BBX 16 25 2 0
BITMAP
0E00
0700
0700
0380
0180
0040
0000
0000
0FF0
1FF8
3C3C
781E
700E
F00F
F00F
F00F
F00F
F00F
F00F
F00F
700E
781E
3C3C
1FF8
0FF0
ENDCHAR
STARTCHAR 00F3
ENCODING 243
SWIDTH 600 0
DWIDTH 20 0
BBX 16 25 2 0
BITMAP
00F0
00E0
01C0
01C0
0180
0200
0000
0000
0FF0
1FF8
3C3C
781E
700E
F00F
F00F
F00F
F00F
F00F
F00F
F00F
700E
781E
3C3C
1FF8
0FF0
ENDCHAR
STARTCHAR 00F4
ENCODING 244
SWIDTH 600 0
DWIDTH 20 0
BBX 16 25 2 0
BITMAP
03C0
07E0
0E60
0E70
1C38
2004
0000
0000
0FF0
1FF8
3C3C
781E
700E
F00F
F00F
F00F
F00F
F00F
F00F
F00F
700E
781E
3C3C
1FF8
0FF0
ENDCHAR
STARTCHAR 00F5
ENCODING 245
SWIDTH 600 0
DWIDTH 20 0
BBX 16 24 2 0
BITMAP
1F0C
1FFC
31F8
3070
0000
0000
0000
0FF0
1FF8
3C3C
781E
700E
F00F
F00F
F00F
F00F
F00F
F00F
F00F
700E
781E
3C3C
1FF8
0FF0
ENDCHAR
STARTCHAR 00F6
ENCODING 246
SWIDTH 600 0
DWIDTH 20 0
BBX 16 24 2 0
BITMAP
1C38
1C38
1C38
1C38
0000
0000
0000
0FF0
1FF8
3C3C
781E
700E
F00F
F00F
F00F
F00F
F00F
F00F
F00F
700E
781E
3C3C
1FF8
0FF0
ENDCHAR
STARTCHAR 00F7
ENCODING 247
SWIDTH 600 0
DWIDTH 20 0
BBX 18 13 1 2
BITMAP
00C000
00C000
00C000
000000
000000
FFFFC0
FFFFC0
FFFFC0
000000
000000
00C000
00C000
00C000
ENDCHAR
STARTCHAR 00F8
ENCODING 248
SWIDTH 600 0
DWIDTH 20 0
BBX 16 21 2 -2
BITMAP
0007
000E
0FFC
1FF8
3C3C
783E
706E
F06F
F0CF
F1CF
F18F
F30F
F30F
F60F
7C0E
7C1E
3C3C
3FF8
3FF0
6000
E000
ENDCHAR
STARTCHAR 00F9
ENCODING 249
SWIDTH 600 0
DWIDTH 20 0
BBX 17 25 2 0
BITMAP
0E0000
070000
070000
030000
038000
000000
000000
000000
F00E00
F00E00
F00E00
F00E00
F00E00
F00E00
F00E00
F00E00
F00E00
F00E00
F00E00
F01E00
701E00
783E00
7C7E00
3FEF80
1FCF80
ENDCHAR
STARTCHAR 00FA
ENCODING 250
SWIDTH 600 0
DWIDTH 20 0
BBX 17 25 2 0
BITMAP
00F000
00E000
01C000
018000
038000
000000
000000
000000
F00E00
F00E00
F00E00
F00E00
F00E00
F00E00
F00E00
F00E00
F00E00
F00E00
F00E00
F01E00
701E00
783E00
7C7E00
3FEF80
1FCF80
ENDCHAR
STARTCHAR 00FB
ENCODING 251
SWIDTH 600 0
DWIDTH 20 0
BBX 17 25 2 0
BITMAP
03C000
07C000
0EE000
1C7000
1C3800
200000
000000
000000
F00E00
F00E00
F00E00
F00E00
F00E00
F00E00
F00E00
F00E00
F00E00
F00E00
F00E00
F01E00
701E00
783E00
7C7E00
3FEF80
1FCF80
ENDCHAR
STARTCHAR 00FC
ENCODING 252
SWIDTH 600 0
DWIDTH 20 0
BBX 17 24 2 0
BITMAP
3C3800
3C3800
3C3800
3C3800
000000
000000
000000
F00E00
F00E00
F00E00
F00E00
F00E00
F00E00
F00E00
F00E00
F00E00
F00E00
F00E00
F01E00
701E00
783E00
7C7E00
3FEF80
1FCF80
ENDCHAR
STARTCHAR 00FD
ENCODING 253
SWIDTH 600 0
DWIDTH 20 0
BBX 16 31 2 -6
BITMAP
0070
00E0
00E0
01C0
0180
0200
0000
0000
F007
F00F
700E
780E
381C
381C
3C1C
1C38
1E38
0E70
0E70
0F70
07E0
07E0
03E0
03C0
03C0
0380
0380
0700
4F00
7E00
7C00
ENDCHAR
STARTCHAR 00FE
ENCODING 254
SWIDTH 600 0
DWIDTH 20 0
BBX 15 30 3 -6
BITMAP
E000
E000
E000
E000
E000
E000
E000
E7F0
EFF8
FC3C
F01C
F01E
F00E
E00E
E00E
E00E
E00E
E00E
F00E
F01E
F81C
FC7C
EFF8
E7F0
E000
E000
E000
E000
E000
E000
ENDCHAR
STARTCHAR 00FF
ENCODING 255
SWIDTH 600 0
DWIDTH 20 0
BBX 16 30 2 -6
BITMAP
1C3C
1C3C
1C3C
1C3C
0000
0000
0000
F007
F00F
700E
780E
381C
381C
3C1C
1C38
1E38
0E70
0E70
0F70
07E0
07E0
03E0
03C0
03C0
0380
0380
0700
4F00
7E00
7C00
ENDCHAR
STARTCHAR 0100
ENCODING 256
SWIDTH 600 0
DWIDTH 20 0
BBX 20 28 0 0
BITMAP
07FE00
07FE00
000000
000000
000000
00F000
01F800
01F800
01F800
03FC00
039C00
039C00
079E00
071E00
070E00
0F0E00
0E0F00
0E0700
0E0700
1E0780
1FFF80
1FFF80
3FFFC0
3801C0
3801C0
7801E0
7000E0
F000F0
ENDCHAR
STARTCHAR 0101
ENCODING 257
SWIDTH 600 0
DWIDTH 20 0
BBX 17 23 2 0
BITMAP
3FF800
3FF800
000000
000000
000000
000000
1FF000
3FF800
783C00
701C00
701E00
001E00
001E00
07FE00
3FFE00
7C1E00
701E00
F01E00
F01E00
F03E00
787E00
7FEF80
3FCF80
ENDCHAR
STARTCHAR 0102
ENCODING 258
SWIDTH 600 0
DWIDTH 20 0
BBX 20 29 0 0
BITMAP
060600
079E00
03FC00
006000
000000
000000
00F000
01F800
01F800
01F800
03FC00
039C00
039C00
079E00
071E00
070E00
0F0E00
0E0F00
0E0700
0E0700
1E0780
1FFF80
1FFF80
3FFFC0
3801C0
3801C0
7801E0
7000E0
F000F0
ENDCHAR
STARTCHAR 0103
ENCODING 259
SWIDTH 600 0
DWIDTH 20 0
BBX 17 25 2 0
BITMAP
301800
381800
383800
1FF000
0FE000
000000
000000
000000
1FF000
3FF800
783C00
701C00
701E00
001E00
001E00
07FE00
3FFE00
7C1E00
701E00
F01E00
F01E00
F03E00
787E00
7FEF80
3FCF80
ENDCHAR
STARTCHAR 0104
ENCODING 260
SWIDTH 600 0
DWIDTH 20 0
BBX 21 28 0 -5
BITMAP
00F000
01F800
01F800
01F800
03FC00
039C00
039C00
079E00
071E00
070E00
0F0E00
0E0F00
0E0700
0E0700
1E0780
1FFF80
1FFF80
3FFFC0
3801C0
3801C0
7801E0
7000E0
F000F0
0001C0
000380
000380
0003F8
0000E0
ENDCHAR
STARTCHAR 0105
ENCODING 261
SWIDTH 600 0
DWIDTH 20 0
BBX 19 22 2 -5
BITMAP
1FF000
3FF800
783C00
701C00
701E00
001E00
001E00
07FE00
3FFE00
7C1E00
701E00
F01E00
F01E00
F03E00
787E00
7FEF80
3FCF80
000600
000E00
000E00
000FE0
000380
ENDCHAR
STARTCHAR 0106
ENCODING 262
SWIDTH 600 0
DWIDTH 20 0
BBX 17 30 1 0
BITMAP
001C00
003800
007000
006000
00E000
000000
000000
07F800
1FFE00
3FFF00
3C0F00
780780
700380
700380
F00380
F00380
F00000
F00000
F00000
F00000
F00000
F00380
F00380
F00380
700380
780780
3C0700
3FFF00
1FFE00
07F800
ENDCHAR
STARTCHAR 0107
ENCODING 263
SWIDTH 600 0
DWIDTH 20 0
BBX 15 25 2 0
BITMAP
00F0
00E0
01C0
01C0
0180
0200
0000
0000
0FF0
1FF8
3C3C
781C
700E
F00E
F00E
F000
F000
F000
F00E
F00E
700E
781E
3C3C
1FF8
0FF0
ENDCHAR
STARTCHAR 0108
ENCODING 264
SWIDTH 600 0
DWIDTH 20 0
BBX 17 30 1 0
BITMAP
01E000
03F000
073800
0E3800
1E1E00
000000
000000
07F800
1FFE00
3FFF00
3C0F00
780780
700380
700380
F00380
F00380
F00000
F00000
F00000
F00000
F00000
F00380
F00380
F00380
700380
780780
3C0700
3FFF00
1FFE00
07F800
ENDCHAR
STARTCHAR 0109
ENCODING 265
SWIDTH 600 0
DWIDTH 20 0
BBX 15 25 2 0
BITMAP
03C0
07E0
0E60
0E70
1C38
2004
0000
0000
0FF0
1FF8
3C3C
781C
700E
F00E
F00E
F000
F000
F000
F00E
F00E
700E
781E
3C3C
1FF8
0FF0
ENDCHAR
STARTCHAR 010A
ENCODING 266
SWIDTH 600 0
DWIDTH 20 0
BBX 17 29 1 0
BITMAP
01E000
01E000
01E000
000000
000000
000000
07F800
1FFE00
3FFF00
3C0F00
780780
700380
700380
F00380
F00380
F00000
F00000
F00000
F00000
F00000
F00380
F00380
F00380
700380
780780
3C0700
3FFF00
1FFE00
07F800
ENDCHAR
STARTCHAR 010B
ENCODING 267
SWIDTH 600 0
DWIDTH 20 0
BBX 15 24 2 0
BITMAP
03C0
03C0
03C0
0000
0000
0000
0000
0FF0
1FF8
3C3C
781C
700E
F00E
F00E
F000
F000
F000
F00E
F00E
700E
781E
3C3C
1FF8
0FF0
ENDCHAR
STARTCHAR 010C
ENCODING 268
SWIDTH 600 0
DWIDTH 20 0
BBX 17 29 1 0
BITMAP
1E1E00
073800
03F000
01E000
000000
000000
07F800
1FFE00
3FFF00
3C0F00
780780
700380
700380
F00380
F00380
F00000
F00000
F00000
F00000
F00000
F00380
F00380
F00380
700380
780780
3C0700
3FFF00
1FFE00
07F800
ENDCHAR
STARTCHAR 010D
ENCODING 269
SWIDTH 600 0
DWIDTH 20 0
BBX 15 25 2 0
BITMAP
3C3C
0C70
0E70
07E0
03C0
0000
0000
0000
0FF0
1FF8
3C3C
781C
700E
F00E
F00E
F000
F000
F000
F00E
F00E
700E
781E
3C3C
1FF8
0FF0
ENDCHAR
STARTCHAR 010E
ENCODING 270
SWIDTH 600 0
DWIDTH 20 0
BBX 17 29 2 0
BITMAP
3C3C00
0E7000
07E000
03C000
000000
000000
FFE000
FFFC00
FFFE00
F01F00
F00F00
F00780
F00380
F00380
F00380
F00380
F00380
F00380
F00380
F00380
F00380
F00380
F00380
F00780
F00780
F01F00
FFFE00
FFFC00
FFF000
ENDCHAR
STARTCHAR 010F
ENCODING 271
SWIDTH 600 0
DWIDTH 20 0
BBX 20 24 2 0
BITMAP
000E00
000E70
000E70
000E70
000E70
000E30
000E30
1FCE30
3FEE60
7C7E00
701E00
F01E00
E01E00
E00E00
E00E00
E00E00
E00E00
E00E00
E01E00
F01E00
703E00
7C7E00
3FEE00
1FCE00
ENDCHAR
STARTCHAR 0110
ENCODING 272
SWIDTH 600 0
DWIDTH 20 0
BBX 19 23 0 0
BITMAP
3FF800
3FFF00
3FFF80
3C07C0
3C03C0
3C01E0
3C00E0
3C00E0
3C00E0
3C00E0
FFF0E0
FFF0E0
FFF0E0
3C00E0
3C00E0
3C00E0
3C00E0
3C01E0
3C01E0
3C07C0
3FFF80
3FFF00
3FFC00
ENDCHAR
STARTCHAR 0111
ENCODING 273
SWIDTH 600 0
DWIDTH 20 0
BBX 18 24 2 0
BITMAP
000E00
000E00
000E00
03FFC0
03FFC0
000E00
000E00
1FCE00
3FEE00
7C7E00
701E00
F01E00
E01E00
E00E00
E00E00
E00E00
E00E00
E00E00
E01E00
F01E00
703E00
7C7E00
3FEE00
1FCE00
ENDCHAR
STARTCHAR 0112
ENCODING 274
SWIDTH 600 0
DWIDTH 20 0
BBX 15 28 3 0
BITMAP
3FF8
3FF8
0000
0000
0000
FFFE
FFFE
FFFC
E000
E000
E000
E000
E000
E000
E000
FFF8
FFF8
FFF8
E000
E000
E000
E000
E000
E000
E000
FFFE
FFFE
FFFE
ENDCHAR
STARTCHAR 0113
ENCODING 275
SWIDTH 600 0
DWIDTH 20 0
BBX 16 23 2 0
BITMAP
1FF8
1FF8
0000
0000
0000
0000
0FF0
1FF8
3C3C
781E
700E
F00E
F00F
FFFF
FFFF
F000
F000
F00F
700E
780E
3C3C
1FFC
0FF0
ENDCHAR
STARTCHAR 0114
ENCODING 276
SWIDTH 600 0
DWIDTH 20 0
BBX 15 29 3 0
BITMAP
3838
1EF0
0FE0
0380
0000
0000
FFFE
FFFE
FFFC
E000
E000
E000
E000
E000
E000
E000
FFF8
FFF8
FFF8
E000
E000
E000
E000
E000
E000
E000
FFFE
FFFE
FFFE
ENDCHAR
STARTCHAR 0115
ENCODING 277
SWIDTH 600 0
DWIDTH 20 0
BBX 16 25 2 0
BITMAP
180C
181C
1C18
0FF8
07E0
0000
0000
0000
0FF0
1FF8
3C3C
781E
700E
F00E
F00F
FFFF
FFFF
F000
F000
F00F
700E
780E
3C3C
1FFC
0FF0
ENDCHAR
STARTCHAR 0116
ENCODING 278
SWIDTH 600 0
DWIDTH 20 0
BBX 15 29 3 0
BITMAP
0380
0380
0380
0000
0000
0000
FFFE
FFFE
FFFC
E000
E000
E000
E000
E000
E000
E000
FFF8
FFF8
FFF8
E000
E000
E000
E000
E000
E000
E000
FFFE
FFFE
FFFE
ENDCHAR
STARTCHAR 0117
ENCODING 279
SWIDTH 600 0
DWIDTH 20 0
BBX 16 24 2 0
BITMAP
01C0
01C0
01C0
0000
0000
0000
0000
0FF0
1FF8
3C3C
781E
700E
F00E
F00F
FFFF
FFFF
F000
F000
F00F
700E
780E
3C3C
1FFC
0FF0
ENDCHAR
STARTCHAR 0118
ENCODING 280
SWIDTH 600 0
DWIDTH 20 0
BBX 16 28 3 -5
BITMAP
FFFE
FFFE
FFFC
E000
E000
E000
E000
E000
E000
E000
FFF8
FFF8
FFF8
E000
E000
E000
E000
E000
E000
E000
FFFE
FFFE
FFFE
0038
0030
0030
003F
001E
ENDCHAR
STARTCHAR 0119
ENCODING 281
SWIDTH 600 0
DWIDTH 20 0
BBX 16 22 2 -5
BITMAP
0FF0
1FF8
3C3C
781E
700E
F00E
F00F
FFFF
FFFF
F000
F000
F00F
700E
780E
3C3C
1FFC
0FF0
01C0
0180
0180
01F8
00F0
ENDCHAR
STARTCHAR 011A
ENCODING 282
SWIDTH 600 0
DWIDTH 20 0
BBX 15 29 3 0
BITMAP
3C78
0EE0
07C0
0380
0000
0000
FFFE
FFFE
FFFC
E000
E000
E000
E000
E000
E000
E000
FFF8
FFF8
FFF8
E000
E000
E000
E000
E000
E000
E000
FFFE
FFFE
FFFE
ENDCHAR
STARTCHAR 011B
ENCODING 283
SWIDTH 600 0
DWIDTH 20 0
BBX 16 25 2 0
BITMAP
3C3C
0E38
0670
07E0
03C0
0000
0000
0000
0FF0
1FF8
3C3C
781E
700E
F00E
F00F
FFFF
FFFF
F000
F000
F00F
700E
780E
3C3C
1FFC
0FF0
ENDCHAR
STARTCHAR 011C
ENCODING 284
SWIDTH 600 0
DWIDTH 20 0
BBX 18 30 1 0
BITMAP
01E000
03F000
073800
071C00
1E1E00
000000
000000
07F800
1FFE00
3FFF00
3C0F00
780780
700380
700380
F00380
F00000
F00000
F00000
F0FF80
F0FF80
F0FF80
F00380
F00380
F00380
700380
780780
3C0F80
3FFF80
1FFDC0
07F0C0
ENDCHAR
STARTCHAR 011D
ENCODING 285
SWIDTH 600 0
DWIDTH 20 0
BBX 18 30 2 -6
BITMAP
03C000
03E000
077000
0E3800
1C1DC0
000180
000380
0FFF00
3FFC00
3C1E00
780E00
700E00
700E00
780E00
381E00
3FFC00
1FF800
7C0000
700000
700000
700000
7FFE00
3FFF00
7FFF80
E00780
E00380
E00380
E00780
FFFF00
7FFE00
ENDCHAR
STARTCHAR 011E
ENCODING 286
SWIDTH 600 0
DWIDTH 20 0
BBX 18 29 1 0
BITMAP
0C0C00
0F3C00
07F800
00C000
000000
000000
07F800
1FFE00
3FFF00
3C0F00
780780
700380
700380
F00380
F00000
F00000
F00000
F0FF80
F0FF80
F0FF80
F00380
F00380
F00380
700380
780780
3C0F80
3FFF80
1FFDC0
07F0C0
ENDCHAR
STARTCHAR 011F
ENCODING 287
SWIDTH 600 0
DWIDTH 20 0
BBX 17 31 2 -6
BITMAP
381C00
381800
1C3800
1FF000
07E000
000380
000380
000700
0FFE00
3FFC00
3C1E00
780E00
700E00
700E00
780E00
381E00
3FFC00
1FF800
7C0000
700000
700000
700000
7FFE00
3FFF00
7FFF80
E00780
E00380
E00380
E00780
FFFF00
7FFE00
ENDCHAR
STARTCHAR 0120
ENCODING 288
SWIDTH 600 0
DWIDTH 20 0
BBX 18 29 1 0
BITMAP
01E000
01E000
01E000
000000
000000
000000
07F800
1FFE00
3FFF00
3C0F00
780780
700380
700380
F00380
F00000
F00000
F00000
F0FF80
F0FF80
F0FF80
F00380
F00380
F00380
700380
780780
3C0F80
3FFF80
1FFDC0
07F0C0
ENDCHAR
STARTCHAR 0121
ENCODING 289
SWIDTH 600 0
DWIDTH 20 0
BBX 17 30 2 -6
BITMAP
03C000
03C000
03C000
000000
000380
000380
000700
0FFE00
3FFC00
3C1E00
780E00
700E00
700E00
780E00
381E00
3FFC00
1FF800
7C0000
700000
700000
700000
7FFE00
3FFF00
7FFF80
E00780
E00380
E00380
E00780
FFFF00
7FFE00
ENDCHAR
STARTCHAR 0122
ENCODING 290
SWIDTH 600 0
DWIDTH 20 0
BBX 18 33 1 -10
BITMAP
07F800
1FFE00
3FFF00
3C0F00
780780
700380
700380
F00380
F00000
F00000
F00000
F0FF80
F0FF80
F0FF80
F00380
F00380
F00380
700380
780780
3C0F80
3FFF80
1FFDC0
07F0C0
000000
000000
01E000
01E000
01E000
01E000
006000
004000
00C000
01C000
ENDCHAR
STARTCHAR 0123
ENCODING 291
SWIDTH 600 0
DWIDTH 20 0
BBX 17 34 2 -6
BITMAP
01C000
018000
010000
030000
03C000
03C000
03C000
03C000
000380
000380
000700
0FFE00
3FFC00
3C1E00
780E00
700E00
700E00
780E00
381E00
3FFC00
1FF800
7C0000
700000
700000
700000
7FFE00
3FFF00
7FFF80
E00780
E00380
E00380
E00780
FFFF00
7FFE00
ENDCHAR
STARTCHAR 0124
ENCODING 292
SWIDTH 600 0
DWIDTH 20 0
BBX 16 30 2 0
BITMAP
03C0
07E0
0E70
1C70
3C3C
0000
0000
F00F
F00F
F00F
F00F
F00F
F00F
F00F
F00F
F00F
F00F
FFFF
FFFF
FFFF
F00F
F00F
F00F
F00F
F00F
F00F
F00F
F00F
F00F
F00F
ENDCHAR
STARTCHAR 0125
ENCODING 293
SWIDTH 600 0
DWIDTH 20 0
BBX 18 30 -1 0
BITMAP
0E0000
1F0000
3B8000
71C000
E0E000
000000
0E0000
0E0000
0E0000
0E0000
0E0000
0E0000
0E0000
0E7F00
0EFF80
0FC7C0
0F03C0
0F01C0
0E01C0
0E01C0
0E01C0
0E01C0
0E01C0
0E01C0
0E01C0
0E01C0
0E01C0
0E01C0
0E01C0
0E01C0
ENDCHAR
STARTCHAR 0126
ENCODING 294
SWIDTH 600 0
DWIDTH 20 0
BBX 20 23 0 0
BITMAP
3C03C0
3C03C0
3C03C0
3C03C0
FFFFF0
FFFFF0
3C03C0
3C03C0
3C03C0
3C03C0
3FFFC0
3FFFC0
3FFFC0
3C03C0
3C03C0
3C03C0
3C03C0
3C03C0
3C03C0
3C03C0
3C03C0
3C03C0
3C03C0
ENDCHAR
STARTCHAR 0127
ENCODING 295
SWIDTH 600 0
DWIDTH 20 0
BBX 17 24 0 0
BITMAP
1C0000
1C0000
1C0000
FFF000
FFF000
1C0000
1C0000
1CFE00
1DFF00
1F8F80
1E0780
1E0380
1C0380
1C0380
1C0380
1C0380
1C0380
1C0380
1C0380
1C0380
1C0380
1C0380
1C0380
1C0380
ENDCHAR
STARTCHAR 0128
ENCODING 296
SWIDTH 600 0
DWIDTH 20 0
BBX 12 29 4 0
BITMAP
7E30
7FE0
C7E0
0000
0000
0000
FFF0
FFF0
FFF0
0F00
0F00
0F00
0F00
0F00
0F00
0F00
0F00
0F00
0F00
0F00
0F00
0F00
0F00
0F00
0F00
0F00
FFF0
FFF0
FFF0
ENDCHAR
STARTCHAR 0129
ENCODING 297
SWIDTH 600 0
DWIDTH 20 0
BBX 15 24 3 0
BITMAP
1F0C
3FF8
31F8
2070
0000
0000
0000
FFC0
FFC0
FFC0
03C0
03C0
03C0
03C0
03C0
03C0
03C0
03C0
03C0
03C0
03C0
FFFE
FFFE
FFFE
ENDCHAR
STARTCHAR 012A
ENCODING 298
SWIDTH 600 0
DWIDTH 20 0
BBX 12 28 4 0
BITMAP
7FE0
7FE0
0000
0000
0000
FFF0
FFF0
FFF0
0F00
0F00
0F00
0F00
0F00
0F00
0F00
0F00
0F00
0F00
0F00
0F00
0F00
0F00
0F00
0F00
0F00
FFF0
FFF0
FFF0
ENDCHAR
STARTCHAR 012B
ENCODING 299
SWIDTH 600 0
DWIDTH 20 0
BBX 15 23 3 0
BITMAP
1FF8
1FF8
0000
0000
0000
0000
FFC0
FFC0
FFC0
03C0
03C0
03C0
03C0
03C0
03C0
03C0
03C0
03C0
03C0
03C0
FFFE
FFFE
FFFE
ENDCHAR
STARTCHAR 012C
ENCODING 300
SWIDTH 600 0
DWIDTH 20 0
BBX 12 29 4 0
BITMAP
6060
79E0
3FC0
0600
0000
0000
FFF0
FFF0
FFF0
0F00
0F00
0F00
0F00
0F00
0F00
0F00
0F00
0F00
0F00
0F00
0F00
0F00
0F00
0F00
0F00
0F00
FFF0
FFF0
FFF0
ENDCHAR
STARTCHAR 012D
ENCODING 301
SWIDTH 600 0
DWIDTH 20 0
BBX 15 25 3 0
BITMAP
3018
3818
1838
1FF0
0FE0
0000
0000
0000
FFC0
FFC0
FFC0
03C0
03C0
03C0
03C0
03C0
03C0
03C0
03C0
03C0
03C0
03C0
FFFE
FFFE
FFFE
ENDCHAR
STARTCHAR 012E
ENCODING 302
SWIDTH 600 0
DWIDTH 20 0
BBX 13 28 4 -5
BITMAP
FFF0
FFF0
FFF0
0F00
0F00
0F00
0F00
0F00
0F00
0F00
0F00
0F00
0F00
0F00
0F00
0F00
0F00
0F00
0F00
0F00
FFF0
FFF0
FFF0
0180
0380
0380
03F8
01E0
ENDCHAR
STARTCHAR 012F
ENCODING 303
SWIDTH 600 0
DWIDTH 20 0
BBX 15 29 3 -5
BITMAP
0380
0380
0380
0000
0000
0000
0000
FFC0
FFC0
FFC0
03C0
03C0
03C0
03C0
03C0
03C0
03C0
03C0
03C0
03C0
03C0
FFFE
FFFE
FFFE
0380
0300
0700
03F0
01E0
ENDCHAR
STARTCHAR 0130
ENCODING 304
SWIDTH 600 0
DWIDTH 20 0
BBX 12 29 4 0
BITMAP
0F00
0F00
0F00
0000
0000
0000
FFF0
FFF0
FFF0
0F00
0F00
0F00
0F00
0F00
0F00
0F00
0F00
0F00
0F00
0F00
0F00
0F00
0F00
0F00
0F00
0F00
FFF0
FFF0
FFF0
ENDCHAR
STARTCHAR 0131
ENCODING 305
SWIDTH 600 0
DWIDTH 20 0
BBX 15 17 3 0
BITMAP
FFC0
FFC0
FFC0
03C0
03C0
03C0
03C0
03C0
03C0
03C0
03C0
03C0
03C0
03C0
FFFE
FFFE
FFFE
ENDCHAR
STARTCHAR 0132
ENCODING 306
SWIDTH 600 0
DWIDTH 20 0
BBX 16 23 2 0
BITMAP
F00F
F00F
F00F
F00F
F00F
F00F
F00F
F00F
F00F
F00F
F00F
F00F
F00F
F00F
000F
000F
F00F
F00F
700E
781E
7E7E
3FFC
0FF0
ENDCHAR
STARTCHAR 0133
ENCODING 307
SWIDTH 600 0
DWIDTH 20 0
BBX 15 30 2 -6
BITMAP
F81E
F81E
F81E
F81E
0000
0000
0000
70FE
70FE
700E
700E
700E
700E
700E
700E
700E
700E
700E
700E
700E
700E
700E
700E
700E
000E
001E
001E
063C
07FC
03F8
ENDCHAR
STARTCHAR 0134
ENCODING 308
SWIDTH 600 0
DWIDTH 20 0
BBX 18 30 3 0
BITMAP
003C00
003E00
007700
00E380
01C1C0
000000
000000
003C00
003C00
003C00
003C00
003C00
003C00
003C00
003C00
003C00
003C00
003C00
003C00
003C00
003C00
003C00
003C00
E03C00
E03C00
F03C00
F03C00
7CF800
3FF000
1FE000
ENDCHAR
STARTCHAR 0135
ENCODING 309
SWIDTH 600 0
DWIDTH 20 0
BBX 13 31 3 -6
BITMAP
03C0
07E0
0EE0
0C70
1C38
2000
0000
0000
FFC0
FFC0
FFC0
03C0
03C0
03C0
03C0
03C0
03C0
03C0
03C0
03C0
03C0
03C0
03C0
03C0
03C0
03C0
03C0
0380
C780
FF00
7E00
ENDCHAR
STARTCHAR 0136
ENCODING 310
SWIDTH 600 0
DWIDTH 20 0
BBX 18 33 2 -10
BITMAP
F00780
F00F00
F00E00
F01E00
F03C00
F07800
F07800
F0F000
F1E000
F3C000
F7C000
F7C000
FFE000
FDE000
FCF000
F87800
F07800
F03C00
F01E00
F01E00
F00F00
F00780
F007C0
000000
000000
03C000
03C000
03C000
03C000
00C000
008000
018000
038000
ENDCHAR
STARTCHAR 0137
ENCODING 311
SWIDTH 600 0
DWIDTH 20 0
BBX 15 34 3 -10
BITMAP
E000
E000
E000
E000
E000
E000
E000
E03E
E038
E078
E0F0
E1E0
E3C0
E780
EF00
EF00
FF80
FBC0
F1E0
E1F0
E0F0
E078
E03C
E01E
0000
0000
0700
0700
0700
0700
0300
0300
0300
0600
ENDCHAR
STARTCHAR 0138
ENCODING 312
SWIDTH 600 0
DWIDTH 20 0
BBX 15 17 3 0
BITMAP
E03E
E038
E078
E0F0
E1E0
E3C0
E780
EF00
EF00
FF80
FBC0
F1E0
E1F0
E0F0
E078
E03C
E01E
ENDCHAR
STARTCHAR 0139
ENCODING 313
SWIDTH 600 0
DWIDTH 20 0
BBX 15 30 3 0
BITMAP
0E00
1E00
1C00
3800
7000
0000
0000
F000
F000
F000
F000
F000
F000
F000
F000
F000
F000
F000
F000
F000
F000
F000
F000
F000
F000
F000
F000
FFFC
FFFE
FFFE
ENDCHAR
STARTCHAR 013A
ENCODING 314
SWIDTH 600 0
DWIDTH 20 0
BBX 16 30 2 0
BITMAP
0038
0070
00E0
00C0
01C0
0000
FFC0
FFC0
FFC0
01C0
01C0
01C0
01C0
01C0
01C0
01C0
01C0
01C0
01C0
01C0
01C0
01C0
01C0
01C0
01C0
01C0
01C0
FFFF
FFFF
FFFF
ENDCHAR
STARTCHAR 013B
ENCODING 315
SWIDTH 600 0
DWIDTH 20 0
BBX 15 33 3 -10
BITMAP
F000
F000
F000
F000
F000
F000
F000
F000
F000
F000
F000
F000
F000
F000
F000
F000
F000
F000
F000
F000
FFFC
FFFE
FFFE
0000
0000
0380
0380
0380
0380
0080
0180
0180
0300
ENDCHAR
STARTCHAR 013C
ENCODING 316
SWIDTH 600 0
DWIDTH 20 0
BBX 16 34 2 -10
BITMAP
FFC0
FFC0
FFC0
01C0
01C0
01C0
01C0
01C0
01C0
01C0
01C0
01C0
01C0
01C0
01C0
01C0
01C0
01C0
01C0
01C0
01C0
FFFF
FFFF
FFFF
0000
0000
03C0
03C0
03C0
03C0
00C0
0080
0180
0380
ENDCHAR
STARTCHAR 013D
ENCODING 317
SWIDTH 600 0
DWIDTH 20 0
BBX 15 23 3 0
BITMAP
F03C
F03C
F03C
F03C
F00C
F008
F018
F030
F000
F000
F000
F000
F000
F000
F000
F000
F000
F000
F000
F000
FFFC
FFFE
FFFE
ENDCHAR
STARTCHAR 013E
ENCODING 318
SWIDTH 600 0
DWIDTH 20 0
BBX 16 24 2 0
BITMAP
FFC0
FFCE
FFCE
01CE
01CE
01C6
01C6
01C4
01CC
01C0
01C0
01C0
01C0
01C0
01C0
01C0
01C0
01C0
01C0
01C0
01C0
FFFF
FFFF
FFFF
ENDCHAR
STARTCHAR 013F
ENCODING 319
SWIDTH 600 0
DWIDTH 20 0
BBX 15 23 3 0
BITMAP
F000
F000
F000
F000
F000
F000
F000
F000
F078
F078
F078
F078
F078
F000
F000
F000
F000
F000
F000
F000
FFFC
FFFE
FFFE
ENDCHAR
STARTCHAR 0140
ENCODING 320
SWIDTH 600 0
DWIDTH 20 0
BBX 20 24 2 0
BITMAP
FFC000
FFC000
FFC000
01C000
01C000
01C000
01C000
01C000
01C000
01C0F0
01C0F0
01C0F0
01C0F0
01C0F0
01C000
01C000
01C000
01C000
01C000
01C000
01C000
FFFF00
FFFF00
FFFF00
ENDCHAR
STARTCHAR 0141
ENCODING 321
SWIDTH 600 0
DWIDTH 20 0
BBX 17 23 1 0
BITMAP
3C0000
3C0000
3C0000
3C0000
3C0000
3C0000
3C0000
3C2000
3CC000
3FC000
3F0000
3C0000
FC0000
FC0000
BC0000
3C0000
3C0000
3C0000
3C0000
3C0000
3FFF00
3FFF80
3FFF80
ENDCHAR
STARTCHAR 0142
ENCODING 322
SWIDTH 600 0
DWIDTH 20 0
BBX 16 24 2 0
BITMAP
FFC0
FFC0
FFC0
01C0
01C0
01C0
01C0
01C2
01CE
01FE
01F8
03E0
0FC0
3FC0
39C0
21C0
01C0
01C0
01C0
01C0
01C0
FFFF
FFFF
FFFF
ENDCHAR
STARTCHAR 0143
ENCODING 323
SWIDTH 600 0
DWIDTH 20 0
BBX 16 30 2 0
BITMAP
0038
0070
00E0
00C0
01C0
0000
0000
F00F
F80F
F80F
FC0F
FC0F
FE0F
FE0F
FF0F
F70F
F78F
F38F
F3CF
F1CF
F1EF
F0EF
F0FF
F07F
F07F
F03F
F03F
F01F
F01F
F00F
ENDCHAR
STARTCHAR 0144
ENCODING 324
SWIDTH 600 0
DWIDTH 20 0
BBX 14 25 3 0
BITMAP
00E0
01C0
01C0
0380
0300
0400
0000
0000
E7F0
FFF8
FC7C
F03C
F01C
E01C
E01C
E01C
E01C
E01C
E01C
E01C
E01C
E01C
E01C
E01C
E01C
ENDCHAR
STARTCHAR 0145
ENCODING 325
SWIDTH 600 0
DWIDTH 20 0
BBX 16 33 2 -10
BITMAP
F00F
F80F
F80F
FC0F
FC0F
FE0F
FE0F
FF0F
F70F
F78F
F38F
F3CF
F1CF
F1EF
F0EF
F0FF
F07F
F07F
F03F
F03F
F01F
F01F
F00F
0000
0000
03C0
03C0
03C0
03C0
00C0
0080
0180
0380
ENDCHAR
STARTCHAR 0146
ENCODING 326
SWIDTH 600 0
DWIDTH 20 0
BBX 14 27 3 -10
BITMAP
E7F0
FFF8
FC7C
F03C
F01C
E01C
E01C
E01C
E01C
E01C
E01C
E01C
E01C
E01C
E01C
E01C
E01C
0000
0000
0380
0380
0380
0380
0180
0180
0300
0700
ENDCHAR
STARTCHAR 0147
ENCODING 327
SWIDTH 600 0
DWIDTH 20 0
BBX 16 29 2 0
BITMAP
3C3C
0E70
07E0
03C0
0000
0000
F00F
F80F
F80F
FC0F
FC0F
FE0F
FE0F
FF0F
F70F
F78F
F38F
F3CF
F1CF
F1EF
F0EF
F0FF
F07F
F07F
F03F
F03F
F01F
F01F
F00F
ENDCHAR
STARTCHAR 0148
ENCODING 328
SWIDTH 600 0
DWIDTH 20 0
BBX 14 25 3 0
BITMAP
7878
1C70
1CE0
0FC0
0780
0000
0000
0000
E7F0
FFF8
FC7C
F03C
F01C
E01C
E01C
E01C
E01C
E01C
E01C
E01C
E01C
E01C
E01C
E01C
E01C
ENDCHAR
STARTCHAR 0149
ENCODING 329
SWIDTH 600 0
DWIDTH 20 0
BBX 17 26 0 0
BITMAP
700000
700000
700000
700000
300000
200000
600000
C00000
000000
1CFE00
1FFF00
1F8F80
1E0780
1E0380
1C0380
1C0380
1C0380
1C0380
1C0380
1C0380
1C0380
1C0380
1C0380
1C0380
1C0380
1C0380
ENDCHAR
STARTCHAR 014A
ENCODING 330
SWIDTH 600 0
DWIDTH 20 0
BBX 16 29 2 -6
BITMAP
F00F
F80F
F80F
FC0F
FC0F
FE0F
FE0F
FF0F
F70F
F78F
F38F
F3CF
F1CF
F1EF
F0EF
F0FF
F07F
F07F
F03F
F03F
F01F
F01F
F00F
000F
000F
000F
009E
00FE
00FC
ENDCHAR
STARTCHAR 014B
ENCODING 331
SWIDTH 600 0
DWIDTH 20 0
BBX 14 23 3 -6
BITMAP
E7F0
FFF8
FC7C
F03C
F01C
E01C
E01C
E01C
E01C
E01C
E01C
E01C
E01C
E01C
E01C
E01C
E01C
001C
001C
001C
013C
01FC
01F8
ENDCHAR
STARTCHAR 014C
ENCODING 332
SWIDTH 600 0
DWIDTH 20 0
BBX 18 28 1 0
BITMAP
0FFC00
0FFC00
000000
000000
000000
07F800
1FFE00
3FFF00
3C0F00
780780
700380
700380
F003C0
F003C0
F003C0
F003C0
F003C0
F003C0
F003C0
F003C0
F003C0
F00380
700380
780780
3C0F00
3FFF00
1FFE00
07F800
ENDCHAR
STARTCHAR 014D
ENCODING 333
SWIDTH 600 0
DWIDTH 20 0
BBX 16 23 2 0
BITMAP
1FF8
1FF8
0000
0000
0000
0000
0FF0
1FF8
3C3C
781E
700E
F00F
F00F
F00F
F00F
F00F
F00F
F00F
700E
781E
3C3C
1FF8
0FF0
ENDCHAR
STARTCHAR 014E
ENCODING 334
SWIDTH 600 0
DWIDTH 20 0
BBX 18 29 1 0
BITMAP
0C0C00
0F3C00
07F800
00C000
000000
000000
07F800
1FFE00
3FFF00
3C0F00
780780
700380
700380
F003C0
F003C0
F003C0
F003C0
F003C0
F003C0
F003C0
F003C0
F003C0
F00380
700380
780780
3C0F00
3FFF00
1FFE00
07F800
ENDCHAR
STARTCHAR 014F
ENCODING 335
SWIDTH 600 0
DWIDTH 20 0
BBX 16 25 2 0
BITMAP
381C
3818
1C38
1FF0
07E0
0000
0000
0000
0FF0
1FF8
3C3C
781E
700E
F00F
F00F
F00F
F00F
F00F
F00F
F00F
700E
781E
3C3C
1FF8
0FF0
ENDCHAR
STARTCHAR 0150
ENCODING 336
SWIDTH 600 0
DWIDTH 20 0
BBX 18 30 1 0
BITMAP
00E700
01CE00
039C00
031C00
073800
000000
000000
07F800
1FFE00
3FFF00
3C0F00
780780
700380
700380
F003C0
F003C0
F003C0
F003C0
F003C0
F003C0
F003C0
F003C0
F003C0
F00380
700380
780780
3C0F00
3FFF00
1FFE00
07F800
ENDCHAR
STARTCHAR 0151
ENCODING 337
SWIDTH 600 0
DWIDTH 20 0
BBX 16 25 2 0
BITMAP
03CE
039E
071C
0738
0E70
0000
0000
0000
0FF0
1FF8
3C3C
781E
700E
F00F
F00F
F00F
F00F
F00F
F00F
F00F
700E
781E
3C3C
1FF8
0FF0
ENDCHAR
STARTCHAR 0152
ENCODING 338
SWIDTH 600 0
DWIDTH 20 0
BBX 19 23 1 0
BITMAP
07FFC0
1FFFC0
3FFFC0
783800
703800
703800
F03800
E03800
E03800
E03800
E03F80
E03F80
E03F80
E03800
E03800
E03800
E03800
703800
703800
783800
3FFFC0
1FFFC0
0FFFE0
ENDCHAR
STARTCHAR 0153
ENCODING 339
SWIDTH 600 0
DWIDTH 20 0
BBX 20 17 0 0
BITMAP
1F8F80
3FDFC0
71F8E0
70F0E0
60F060
607060
E07060
E07FF0
E07FF0
E07000
607010
607060
60F060
70F060
71F8E0
3F9FC0
1F0F80
ENDCHAR
STARTCHAR 0154
ENCODING 340
SWIDTH 600 0
DWIDTH 20 0
BBX 18 30 2 0
BITMAP
003800
007000
00E000
00E000
01C000
000000
000000
FFF800
FFFE00
FFFF00
F00F00
F00780
F00780
F00780
F00780
F00700
F00F00
FFFE00
FFF800
FFFC00
F03E00
F00F00
F00F00
F00700
F00700
F00700
F00700
F00780
F00780
F003C0
ENDCHAR
STARTCHAR 0155
ENCODING 341
SWIDTH 600 0
DWIDTH 20 0
BBX 18 25 1 0
BITMAP
003C00
003800
007000
006000
00E000
000000
000000
000000
7F7F00
7FFF80
7FCF80
078380
0701C0
0701C0
070000
070000
070000
070000
070000
070000
070000
070000
FFFF00
FFFF00
FFFF00
ENDCHAR
STARTCHAR 0156
ENCODING 342
SWIDTH 600 0
DWIDTH 20 0
BBX 18 33 2 -10
BITMAP
FFF800
FFFE00
FFFF00
F00F00
F00780
F00780
F00780
F00780
F00700
F00F00
FFFE00
FFF800
FFFC00
F03E00
F00F00
F00F00
F00700
F00700
F00700
F00700
F00780
F00780
F003C0
000000
000000
01C000
01C000
01C000
01C000
00C000
00C000
00C000
018000
ENDCHAR
STARTCHAR 0157
ENCODING 343
SWIDTH 600 0
DWIDTH 20 0
BBX 18 27 1 -10
BITMAP
7F7F00
7FFF80
7FCF80
078380
0701C0
0701C0
070000
070000
070000
070000
070000
070000
070000
070000
FFFF00
FFFF00
FFFF00
000000
000000
01C000
01C000
01C000
01C000
00C000
00C000
008000
038000
ENDCHAR
STARTCHAR 0158
ENCODING 344
SWIDTH 600 0
DWIDTH 20 0
BBX 18 29 2 0
BITMAP
3C3C00
0E7000
07E000
03C000
000000
000000
FFF800
FFFE00
FFFF00
F00F00
F00780
F00780
F00780
F00780
F00700
F00F00
FFFE00
FFF800
FFFC00
F03E00
F00F00
F00F00
F00700
F00700
F00700
F00700
F00780
F00780
F003C0
ENDCHAR
STARTCHAR 0159
ENCODING 345
SWIDTH 600 0
DWIDTH 20 0
BBX 18 25 1 0
BITMAP
0E0E00
071C00
03B800
01B000
01F000
000000
000000
000000
7F7F00
7FFF80
7FCF80
078380
0701C0
0701C0
070000
070000
070000
070000
070000
070000
070000
070000
FFFF00
FFFF00
FFFF00
ENDCHAR
STARTCHAR 015A
ENCODING 346
SWIDTH 600 0
DWIDTH 20 0
BBX 18 30 1 0
BITMAP
001C00
003800
007000
006000
00E000
000000
000000
07F800
1FFE00
3FFF00
780780
780380
700380
700380
780000
7C0000
3FC000
1FF800
07FE00
00FF00
001F80
0007C0
0003C0
F003C0
F003C0
700380
780780
3FFF00
3FFF00
0FFC00
ENDCHAR
STARTCHAR 015B
ENCODING 347
SWIDTH 600 0
DWIDTH 20 0
BBX 14 25 3 0
BITMAP
01E0
01C0
0380
0380
0300
0400
0000
0000
1FE0
7FF8
F038
E01C
E01C
F000
FC00
7FE0
3FF8
03FC
003C
001C
E01C
E01C
F03C
7FF8
3FF0
ENDCHAR
STARTCHAR 015C
ENCODING 348
SWIDTH 600 0
DWIDTH 20 0
BBX 18 30 1 0
BITMAP
01E000
03F000
073800
0E3800
1E1E00
000000
000000
07F800
1FFE00
3FFF00
780780
780380
700380
700380
780000
7C0000
3FC000
1FF800
07FE00
00FF00
001F80
0007C0
0003C0
F003C0
F003C0
700380
780780
3FFF00
3FFF00
0FFC00
ENDCHAR
STARTCHAR 015D
ENCODING 349
SWIDTH 600 0
DWIDTH 20 0
BBX 14 25 3 0
BITMAP
0780
0FC0
1CC0
1CE0
3870
4008
0000
0000
1FE0
7FF8
F038
E01C
E01C
F000
FC00
7FE0
3FF8
03FC
003C
001C
E01C
E01C
F03C
7FF8
3FF0
ENDCHAR
STARTCHAR 015E
ENCODING 350
SWIDTH 600 0
DWIDTH 20 0
BBX 18 30 1 -7
BITMAP
07F800
1FFE00
3FFF00
780780
780380
700380
700380
780000
7C0000
3FC000
1FF800
07FE00
00FF00
001F80
0007C0
0003C0
F003C0
F003C0
700380
780780
3FFF00
3FFF00
0FFC00
000000
00E000
007000
003800
003000
03F000
07E000
ENDCHAR
STARTCHAR 015F
ENCODING 351
SWIDTH 600 0
DWIDTH 20 0
BBX 14 24 3 -7
BITMAP
1FE0
7FF8
F038
E01C
E01C
F000
FC00
7FE0
3FF8
03FC
003C
001C
E01C
E01C
F03C
7FF8
3FF0
0000
0380
01C0
00E0
00C0
0FC0
1F80
ENDCHAR
STARTCHAR 0160
ENCODING 352
SWIDTH 600 0
DWIDTH 20 0
BBX 18 29 1 0
BITMAP
1E1E00
073800
03F000
01E000
000000
000000
07F800
1FFE00
3FFF00
780780
780380
700380
700380
780000
7C0000
3FC000
1FF800
07FE00
00FF00
001F80
0007C0
0003C0
F003C0
F003C0
700380
780780
3FFF00
3FFF00
0FFC00
ENDCHAR
STARTCHAR 0161
ENCODING 353
SWIDTH 600 0
DWIDTH 20 0
BBX 14 25 3 0
BITMAP
7878
18E0
1CE0
0FC0
0780
0000
0000
0000
1FE0
7FF8
F038
E01C
E01C
F000
FC00
7FE0
3FF8
03FC
003C
001C
E01C
E01C
F03C
7FF8
3FF0
ENDCHAR
STARTCHAR 0162
ENCODING 354
SWIDTH 600 0
DWIDTH 20 0
BBX 18 30 1 -7
BITMAP
FFFFC0
FFFFC0
FFFFC0
01E000
01E000
01E000
01E000
01E000
01E000
01E000
01E000
01E000
01E000
01E000
01E000
01E000
01E000
01E000
01E000
01E000
01E000
01E000
01E000
000000
00E000
007000
003800
003000
03F000
07E000
ENDCHAR
STARTCHAR 0163
ENCODING 355
SWIDTH 600 0
DWIDTH 20 0
BBX 16 29 2 -7
BITMAP
0300
0700
0700
0700
0700
FFFF
FFFF
FFFF
0700
0700
0700
0700
0700
0700
0700
0700
0700
0700
0780
07E7
03FF
01FE
0000
0070
0038
0018
0018
01F8
03F0
ENDCHAR
STARTCHAR 0164
ENCODING 356
SWIDTH 600 0
DWIDTH 20 0
BBX 18 29 1 0
BITMAP
1E1E00
073800
03F000
01E000
000000
000000
FFFFC0
FFFFC0
FFFFC0
01E000
01E000
01E000
01E000
01E000
01E000
01E000
01E000
01E000
01E000
01E000
01E000
01E000
01E000
01E000
01E000
01E000
01E000
01E000
01E000
ENDCHAR
STARTCHAR 0165
ENCODING 357
SWIDTH 600 0
DWIDTH 20 0
BBX 16 26 2 0
BITMAP
003C
003C
003C
003C
030C
0708
0718
0730
0700
FFFF
FFFF
FFFF
0700
0700
0700
0700
0700
0700
0700
0700
0700
0700
0780
07E7
03FF
01FE
ENDCHAR
STARTCHAR 0166
ENCODING 358
SWIDTH 600 0
DWIDTH 20 0
BBX 18 23 1 0
BITMAP
FFFFC0
FFFFC0
FFFFC0
01E000
01E000
01E000
01E000
01E000
01E000
01E000
1FFE00
1FFE00
1FFE00
01E000
01E000
01E000
01E000
01E000
01E000
01E000
01E000
01E000
01E000
ENDCHAR
STARTCHAR 0167
ENCODING 359
SWIDTH 600 0
DWIDTH 20 0
BBX 16 22 2 0
BITMAP
0300
0700
0700
0700
0700
FFFF
FFFF
FFFF
0700
0700
0700
7FFC
7FFC
7FFC
0700
0700
0700
0700
0780
07E7
03FF
01FE
ENDCHAR
STARTCHAR 0168
ENCODING 360
SWIDTH 600 0
DWIDTH 20 0
BBX 16 29 2 0
BITMAP
1F8C
1FF8
31F8
0000
0000
0000
F00F
F00F
F00F
F00F
F00F
F00F
F00F
F00F
F00F
F00F
F00F
F00F
F00F
F00F
F00F
F00F
F00F
F00F
F00E
781E
7FFE
3FFC
0FF0
ENDCHAR
STARTCHAR 0169
ENCODING 361
SWIDTH 600 0
DWIDTH 20 0
BBX 17 24 2 0
BITMAP
1F0C00
3FF800
31F800
207000
000000
000000
000000
F00E00
F00E00
F00E00
F00E00
F00E00
F00E00
F00E00
F00E00
F00E00
F00E00
F00E00
F01E00
701E00
783E00
7C7E00
3FEF80
1FCF80
ENDCHAR
STARTCHAR 016A
ENCODING 362
SWIDTH 600 0
DWIDTH 20 0
BBX 16 28 2 0
BITMAP
1FF8
1FF8
0000
0000
0000
F00F
F00F
F00F
F00F
F00F
F00F
F00F
F00F
F00F
F00F
F00F
F00F
F00F
F00F
F00F
F00F
F00F
F00F
F00E
781E
7FFE
3FFC
0FF0
ENDCHAR
STARTCHAR 016B
ENCODING 363
SWIDTH 600 0
DWIDTH 20 0
BBX 17 23 2 0
BITMAP
1FF800
1FF800
000000
000000
000000
000000
F00E00
F00E00
F00E00
F00E00
F00E00
F00E00
F00E00
F00E00
F00E00
F00E00
F00E00
F01E00
701E00
783E00
7C7E00
3FEF80
1FCF80
ENDCHAR
STARTCHAR 016C
ENCODING 364
SWIDTH 600 0
DWIDTH 20 0
BBX 16 29 2 0
BITMAP
1818
1E78
0FF0
0180
0000
0000
F00F
F00F
F00F
F00F
F00F
F00F
F00F
F00F
F00F
F00F
F00F
F00F
F00F
F00F
F00F
F00F
F00F
F00F
F00E
781E
7FFE
3FFC
0FF0
ENDCHAR
STARTCHAR 016D
ENCODING 365
SWIDTH 600 0
DWIDTH 20 0
BBX 17 25 2 0
BITMAP
301800
381800
183800
1FF000
0FE000
000000
000000
000000
F00E00
F00E00
F00E00
F00E00
F00E00
F00E00
F00E00
F00E00
F00E00
F00E00
F00E00
F01E00
701E00
783E00
7C7E00
3FEF80
1FCF80
ENDCHAR
STARTCHAR 016E
ENCODING 366
SWIDTH 600 0
DWIDTH 20 0
BBX 16 31 2 0
BITMAP
07E0
0660
0C30
0430
0660
03C0
0000
0000
F00F
F00F
F00F
F00F
F00F
F00F
F00F
F00F
F00F
F00F
F00F
F00F
F00F
F00F
F00F
F00F
F00F
F00F
F00E
781E
7FFE
3FFC
0FF0
ENDCHAR
STARTCHAR 016F
ENCODING 367
SWIDTH 600 0
DWIDTH 20 0
BBX 17 26 2 0
BITMAP
07C000
06E000
0C6000
0C6000
0E6000
07C000
010000
000000
000000
F00E00
F00E00
F00E00
F00E00
F00E00
F00E00
F00E00
F00E00
F00E00
F00E00
F00E00
F01E00
701E00
783E00
7C7E00
3FEF80
1FCF80
ENDCHAR
STARTCHAR 0170
ENCODING 368
SWIDTH 600 0
DWIDTH 20 0
BBX 16 30 2 0
BITMAP
01CE
039C
0738
0638
0E70
0000
0000
F00F
F00F
F00F
F00F
F00F
F00F
F00F
F00F
F00F
F00F
F00F
F00F
F00F
F00F
F00F
F00F
F00F
F00F
F00E
781E
7FFE
3FFC
0FF0
ENDCHAR
STARTCHAR 0171
ENCODING 369
SWIDTH 600 0
DWIDTH 20 0
BBX 17 25 2 0
BITMAP
03DE00
039C00
073800
0E3800
0C7000
100000
000000
000000
F00E00
F00E00
F00E00
F00E00
F00E00
F00E00
F00E00
F00E00
F00E00
F00E00
F00E00
F01E00
701E00
783E00
7C7E00
3FEF80
1FCF80
ENDCHAR
STARTCHAR 0172
ENCODING 370
SWIDTH 600 0
DWIDTH 20 0
BBX 16 28 2 -5
BITMAP
F00F
F00F
F00F
F00F
F00F
F00F
F00F
F00F
F00F
F00F
F00F
F00F
F00F
F00F
F00F
F00F
F00F
F00F
F00E
781E
7FFE
3FFC
0FF0
00C0
0180
0180
01F8
00F0
ENDCHAR
STARTCHAR 0173
ENCODING 371
SWIDTH 600 0
DWIDTH 20 0
BBX 19 22 2 -5
BITMAP
F00E00
F00E00
F00E00
F00E00
F00E00
F00E00
F00E00
F00E00
F00E00
F00E00
F00E00
F01E00
701E00
783E00
7C7E00
3FEF80
1FCF80
000300
000600
000600
0007E0
0003C0
ENDCHAR
STARTCHAR 0174
ENCODING 372
SWIDTH 600 0
DWIDTH 20 0
BBX 20 30 0 0
BITMAP
00F000
01F800
039C00
071C00
0F0F00
000000
000000
E07070
E0F070
F0F070
70F060
70F0E0
70F8E0
70F8E0
70F8E0
79F8E0
7998E0
3998C0
3999C0
399DC0
399DC0
3B9DC0
3F8DC0
1F0D80
1F0F80
1F0F80
1F0F80
1F0F80
1F0F80
1E0780
ENDCHAR
STARTCHAR 0175
ENCODING 373
SWIDTH 600 0
DWIDTH 20 0
BBX 20 25 0 0
BITMAP
00F000
01F800
019C00
038C00
070E00
080100
000000
000000
E0F070
E0F070
60F060
70F0E0
70F8E0
71F8E0
71D8E0
3998C0
399DC0
3B9DC0
3B8DC0
1F0D80
1F0F80
1F0F80
1F0F80
0F0780
0E0700
ENDCHAR
STARTCHAR 0176
ENCODING 374
SWIDTH 600 0
DWIDTH 20 0
BBX 18 30 1 0
BITMAP
01E000
03F000
073800
0E3800
1E1E00
000000
000000
F001C0
F003C0
780380
780780
3C0700
3C0F00
1E1E00
0E1E00
0F3C00
073800
07F800
03F000
03F000
01E000
01E000
01E000
01E000
01E000
01E000
01E000
01E000
01E000
01E000
ENDCHAR
STARTCHAR 0177
ENCODING 375
SWIDTH 600 0
DWIDTH 20 0
BBX 16 31 2 -6
BITMAP
03C0
03E0
0770
0E38
1C38
0004
0000
0000
F007
F00F
700E
780E
381C
381C
3C1C
1C38
1E38
0E70
0E70
0F70
07E0
07E0
03E0
03C0
03C0
0380
0380
0700
4F00
7E00
7C00
ENDCHAR
STARTCHAR 0178
ENCODING 376
SWIDTH 600 0
DWIDTH 20 0
BBX 18 29 1 0
BITMAP
0E1C00
0E1C00
0E1C00
000000
000000
000000
F001C0
F003C0
780380
780780
3C0700
3C0F00
1E1E00
0E1E00
0F3C00
073800
07F800
03F000
03F000
01E000
01E000
01E000
01E000
01E000
01E000
01E000
01E000
01E000
01E000
ENDCHAR
STARTCHAR 0179
ENCODING 377
SWIDTH 600 0
DWIDTH 20 0
BBX 18 30 1 0
BITMAP
001C00
003800
007000
006000
00E000
000000
000000
7FFF80
7FFF80
7FFF80
000F00
001E00
001E00
003C00
007C00
007800
00F000
00F000
01E000
03C000
03C000
078000
0F0000
0F0000
1E0000
3C0000
3C0000
7FFFC0
FFFFC0
FFFFC0
ENDCHAR
STARTCHAR 017A
ENCODING 378
SWIDTH 600 0
DWIDTH 20 0
BBX 14 25 3 0
BITMAP
01E0
01C0
0380
0380
0300
0400
0000
0000
7FF8
7FF8
0070
00F0
01E0
01E0
03C0
0380
0780
0F00
0F00
1E00
3C00
3C00
7800
7FFC
FFFC
ENDCHAR
STARTCHAR 017B
ENCODING 379
SWIDTH 600 0
DWIDTH 20 0
BBX 18 29 1 0
BITMAP
01E000
01E000
01E000
000000
000000
000000
7FFF80
7FFF80
7FFF80
000F00
001E00
001E00
003C00
007C00
007800
00F000
00F000
01E000
03C000
03C000
078000
0F0000
0F0000
1E0000
3C0000
3C0000
7FFFC0
FFFFC0
FFFFC0
ENDCHAR
STARTCHAR 017C
ENCODING 380
SWIDTH 600 0
DWIDTH 20 0
BBX 14 24 3 0
BITMAP
0780
0780
0780
0000
0000
0000
0000
7FF8
7FF8
0070
00F0
01E0
01E0
03C0
0380
0780
0F00
0F00
1E00
3C00
3C00
7800
7FFC
FFFC
ENDCHAR
STARTCHAR 017D
ENCODING 381
SWIDTH 600 0
DWIDTH 20 0
BBX 18 29 1 0
BITMAP
1E1E00
073800
03F000
01E000
000000
000000
7FFF80
7FFF80
7FFF80
000F00
001E00
001E00
003C00
007C00
007800
00F000
00F000
01E000
03C000
03C000
078000
0F0000
0F0000
1E0000
3C0000
3C0000
7FFFC0
FFFFC0
FFFFC0
ENDCHAR
STARTCHAR 017E
ENCODING 382
SWIDTH 600 0
DWIDTH 20 0
BBX 14 25 3 0
BITMAP
7878
18E0
1CE0
0FC0
0780
0000
0000
0000
7FF8
7FF8
0070
00F0
01E0
01E0
03C0
0380
0780
0F00
0F00
1E00
3C00
3C00
7800
7FFC
FFFC
ENDCHAR
STARTCHAR 017F
ENCODING 383
SWIDTH 600 0
DWIDTH 20 0
BBX 15 24 3 0
BITMAP
01FE
03FE
07C2
0700
0700
0700
0700
FF00
FF00
FF00
0700
0700
0700
0700
0700
0700
0700
0700
0700
0700
0700
FFFE
FFFE
FFFE
ENDCHAR
STARTCHAR 018F
ENCODING 399
SWIDTH 600 0
DWIDTH 20 0
BBX 18 23 1 0
BITMAP
07F800
1FFE00
3FFF00
7C0F00
780780
700780
F00380
F003C0
0003C0
0003C0
0003C0
FFFFC0
FFFFC0
FFFFC0
F003C0
F003C0
F00380
700380
780780
7C0F00
3FFF00
1FFE00
07F800
ENDCHAR
STARTCHAR 0191
ENCODING 401
SWIDTH 600 0
DWIDTH 20 0
BBX 18 29 -1 -6
BITMAP
0FFFC0
0FFFC0
0FFFC0
0E0000
0E0000
0E0000
0E0000
0E0000
0E0000
0E0000
0FFF80
0FFF80
0FFF80
0E0000
0E0000
0E0000
0E0000
0E0000
0E0000
0E0000
0E0000
0E0000
0E0000
0E0000
0E0000
0E0000
9E0000
FE0000
FC0000
ENDCHAR
STARTCHAR 0192
ENCODING 402
SWIDTH 600 0
DWIDTH 20 0
BBX 16 30 1 -6
BITMAP
003F
007F
00F1
00F0
00E0
00E0
00E0
03FE
07FE
07FE
01C0
01C0
01C0
01C0
01C0
03C0
03C0
03C0
0380
0380
0380
0380
0780
0780
0780
0700
0700
4F00
7E00
FC00
ENDCHAR
STARTCHAR 0197
ENCODING 407
SWIDTH 600 0
DWIDTH 20 0
BBX 12 23 4 0
BITMAP
FFF0
FFF0
FFF0
0F00
0F00
0F00
0F00
0F00
0F00
0F00
FFF0
FFF0
FFF0
0F00
0F00
0F00
0F00
0F00
0F00
0F00
FFF0
FFF0
FFF0
ENDCHAR
STARTCHAR 019D
ENCODING 413
SWIDTH 600 0
DWIDTH 20 0
BBX 20 29 -2 -6
BITMAP
0F00F0
0F80F0
0F80F0
0FC0F0
0FC0F0
0FE0F0
0FE0F0
0FF0F0
0F70F0
0F78F0
0F38F0
0F3CF0
0F1CF0
0F1EF0
0F0EF0
0F0FF0
0F07F0
0F07F0
0F03F0
0F03F0
0F01F0
0F01F0
0F00F0
0F0000
0F0000
0F0000
8F0000
FE0000
FC0000
ENDCHAR
STARTCHAR 01A0
ENCODING 416
SWIDTH 600 0
DWIDTH 20 0
BBX 19 27 1 0
BITMAP
0000E0
0000E0
0000E0
0001C0
07F9C0
1FFF80
3FFF00
3C0F00
780780
700380
700380
F003C0
F003C0
F003C0
F003C0
F003C0
F003C0
F003C0
F003C0
F003C0
F00380
700380
780780
3C0F00
3FFF00
1FFE00
07F800
ENDCHAR
STARTCHAR 01A1
ENCODING 417
SWIDTH 600 0
DWIDTH 20 0
BBX 18 21 2 0
BITMAP
0001C0
0001C0
0001C0
0003C0
0FF780
1FFF00
3C3C00
781E00
700E00
F00F00
F00F00
F00F00
F00F00
F00F00
F00F00
F00F00
700E00
781E00
3C3C00
1FF800
0FF000
ENDCHAR
STARTCHAR 01AF
ENCODING 431
SWIDTH 600 0
DWIDTH 20 0
BBX 19 28 2 0
BITMAP
0000E0
0000E0
0000E0
0001C0
0001C0
F00F80
F00F00
F00F00
F00F00
F00F00
F00F00
F00F00
F00F00
F00F00
F00F00
F00F00
F00F00
F00F00
F00F00
F00F00
F00F00
F00F00
F00F00
F00E00
781E00
7FFE00
3FFC00
0FF000
ENDCHAR
STARTCHAR 01B0
ENCODING 432
SWIDTH 600 0
DWIDTH 20 0
BBX 19 22 2 0
BITMAP
0000E0
0001C0
0001C0
0001C0
000380
F00F00
F00E00
F00E00
F00E00
F00E00
F00E00
F00E00
F00E00
F00E00
F00E00
F00E00
F01E00
701E00
783E00
7C7E00
3FEF80
1FCF80
ENDCHAR
STARTCHAR 01C4
ENCODING 452
SWIDTH 600 0
DWIDTH 20 0
BBX 18 30 1 0
BITMAP
0030C0
001980
001F80
000F00
000F00
000000
000000
FC3FC0
FF3FC0
FFBFC0
E38380
E1C380
E1C380
E1C300
E1C700
E1C700
E1C700
E1CE00
E1CE00
E1CE00
E1CC00
E1DC00
E1DC00
E1DC00
E1F800
E1F800
E3B800
FFBFC0
FF7FC0
FE7FC0
ENDCHAR
STARTCHAR 01C5
ENCODING 453
SWIDTH 600 0
DWIDTH 20 0
BBX 18 24 1 0
BITMAP
0038C0
FC19C0
FF1D80
FF8F80
E38F00
E1C000
E1C000
E1DFC0
E1DFC0
E1C1C0
E1C380
E1C380
E1C300
E1C700
E1C700
E1C600
E1CE00
E1CE00
E1CC00
E1DC00
E39C00
FFB800
FF3FC0
FE3FC0
ENDCHAR
STARTCHAR 01C6
ENCODING 454
SWIDTH 600 0
DWIDTH 20 0
BBX 20 24 0 0
BITMAP
00DC70
00CC60
00C6C0
00C7C0
00C380
00C000
00C000
3ECFF0
7FCFE0
73C0E0
E1C0E0
E0C0C0
E0C1C0
E0C180
E0C380
E0C380
E0C300
E0C700
E0C600
E1CE00
E1CE00
73CC00
7FDFF0
3EDFF0
ENDCHAR
STARTCHAR 01C7
ENCODING 455
SWIDTH 600 0
DWIDTH 20 0
BBX 16 29 2 -6
BITMAP
F00F
F00F
F00F
F00F
F00F
F00F
F00F
F00F
F00F
F00F
F00F
F00F
F00F
F00F
F00F
F00F
F00F
F00F
F00F
F00F
FFCF
FFCF
FFCF
000F
1C0E
1C1E
1E3E
0FFC
07F8
ENDCHAR
STARTCHAR 01C8
ENCODING 456
SWIDTH 600 0
DWIDTH 20 0
BBX 16 30 2 -6
BITMAP
001F
F01F
F01F
F01F
F000
F000
F000
F00E
F00E
F00E
F00E
F00E
F00E
F00E
F00E
F00E
F00E
F00E
F00E
F00E
F00E
FFFE
FFFE
FFFE
000E
000E
001E
023E
03FC
03F8
ENDCHAR
STARTCHAR 01C9
ENCODING 457
SWIDTH 600 0
DWIDTH 20 0
BBX 14 30 3 -6
BITMAP
E03C
E03C
E03C
E03C
E000
E000
E000
E1FC
E1FC
E01C
E01C
E01C
E01C
E01C
E01C
E01C
E01C
E01C
E01C
E01C
E01C
E01C
E01C
E01C
001C
003C
003C
0C78
0FF8
07F0
ENDCHAR
STARTCHAR 01CA
ENCODING 458
SWIDTH 600 0
DWIDTH 20 0
BBX 16 29 2 -6
BITMAP
E1C7
F1C7
F1C7
F1C7
F1C7
F9C7
F9C7
F9C7
EDC7
EDC7
EDC7
EDC7
E7C7
E7C7
E7C7
E7C7
E3C7
E3C7
E3C7
E3C7
E1C7
E1C7
E1C7
0007
1C0F
1E0E
1F1E
0FFC
07F8
ENDCHAR
STARTCHAR 01CB
ENCODING 459
SWIDTH 600 0
DWIDTH 20 0
BBX 16 30 2 -6
BITMAP
000F
F0EF
F0EF
F0EF
F0E0
F8E0
F8E0
F8E7
ECE7
ECE7
ECE7
ECE7
E6E7
E6E7
E6E7
E6E7
E2E7
E3E7
E3E7
E3E7
E1E7
E1E7
E1E7
E1E7
0007
0007
0007
019E
01FE
01F8
ENDCHAR
STARTCHAR 01CC
ENCODING 460
SWIDTH 600 0
DWIDTH 20 0
BBX 17 30 2 -6
BITMAP
000F80
000F80
000F80
000F80
000000
000000
000000
DF0700
FF8700
F38700
E38700
E18700
E18700
E18700
E18700
E18700
E18700
E18700
E18700
E18700
E18700
E18700
E18700
E18700
000700
000700
000700
018F00
01FE00
00FC00
ENDCHAR
STARTCHAR 01CD
ENCODING 461
SWIDTH 600 0
DWIDTH 20 0
BBX 20 29 0 0
BITMAP
0F0F00
039C00
01F800
00F000
000000
000000
00F000
01F800
01F800
01F800
03FC00
039C00
039C00
079E00
071E00
070E00
0F0E00
0E0F00
0E0700
0E0700
1E0780
1FFF80
1FFF80
3FFFC0
3801C0
3801C0
7801E0
7000E0
F000F0
ENDCHAR
STARTCHAR 01CE
ENCODING 462
SWIDTH 600 0
DWIDTH 20 0
BBX 17 25 2 0
BITMAP
383800
1C7000
0EE000
07E000
07C000
000000
000000
000000
1FF000
3FF800
783C00
701C00
701E00
001E00
001E00
07FE00
3FFE00
7C1E00
701E00
F01E00
F01E00
F03E00
787E00
7FEF80
3FCF80
ENDCHAR
STARTCHAR 01CF
ENCODING 463
SWIDTH 600 0
DWIDTH 20 0
BBX 12 29 4 0
BITMAP
F0F0
39C0
1F80
0F00
0000
0000
FFF0
FFF0
FFF0
0F00
0F00
0F00
0F00
0F00
0F00
0F00
0F00
0F00
0F00
0F00
0F00
0F00
0F00
0F00
0F00
0F00
FFF0
FFF0
FFF0
ENDCHAR
STARTCHAR 01D0
ENCODING 464
SWIDTH 600 0
DWIDTH 20 0
BBX 15 25 3 0
BITMAP
3838
1C70
0EE0
07E0
03C0
0000
0000
0000
FFC0
FFC0
FFC0
03C0
03C0
03C0
03C0
03C0
03C0
03C0
03C0
03C0
03C0
03C0
FFFE
FFFE
FFFE
ENDCHAR
STARTCHAR 01D1
ENCODING 465
SWIDTH 600 0
DWIDTH 20 0
BBX 18 29 1 0
BITMAP
1E1E00
073800
03F000
01E000
000000
000000
07F800
1FFE00
3FFF00
3C0F00
780780
700380
700380
F003C0
F003C0
F003C0
F003C0
F003C0
F003C0
F003C0
F003C0
F003C0
F00380
700380
780780
3C0F00
3FFF00
1FFE00
07F800
ENDCHAR
STARTCHAR 01D2
ENCODING 466
SWIDTH 600 0
DWIDTH 20 0
BBX 16 25 2 0
BITMAP
3C3C
0C70
0E70
07E0
03C0
0000
0000
0000
0FF0
1FF8
3C3C
781E
700E
F00F
F00F
F00F
F00F
F00F
F00F
F00F
700E
781E
3C3C
1FF8
0FF0
ENDCHAR
STARTCHAR 01D3
ENCODING 467
SWIDTH 600 0
DWIDTH 20 0
BBX 16 29 2 0
BITMAP
3C3C
0E70
07E0
03C0
0000
0000
F00F
F00F
F00F
F00F
F00F
F00F
F00F
F00F
F00F
F00F
F00F
F00F
F00F
F00F
F00F
F00F
F00F
F00F
F00E
781E
7FFE
3FFC
0FF0
ENDCHAR
STARTCHAR 01D4
ENCODING 468
SWIDTH 600 0
DWIDTH 20 0
BBX 17 25 2 0
BITMAP
383800
1C7000
0EE000
07E000
03C000
000000
000000
000000
F00E00
F00E00
F00E00
F00E00
F00E00
F00E00
F00E00
F00E00
F00E00
F00E00
F00E00
F01E00
701E00
783E00
7C7E00
3FEF80
1FCF80
ENDCHAR
STARTCHAR 01D5
ENCODING 469
SWIDTH 600 0
DWIDTH 20 0
BBX 16 33 2 0
BITMAP
1FF8
1FF8
0000
0000
1E78
1E78
1E78
0000
0000
0000
F00F
F00F
F00F
F00F
F00F
F00F
F00F
F00F
F00F
F00F
F00F
F00F
F00F
F00F
F00F
F00F
F00F
F00F
F00E
781E
7FFE
3FFC
0FF0
ENDCHAR
STARTCHAR 01D6
ENCODING 470
SWIDTH 600 0
DWIDTH 20 0
BBX 17 28 2 0
BITMAP
3FF800
3FF800
000000
000000
3C7800
3C7800
3C7800
3C7800
000000
000000
000000
F00E00
F00E00
F00E00
F00E00
F00E00
F00E00
F00E00
F00E00
F00E00
F00E00
F00E00
F01E00
701E00
783E00
7C7E00
3FEF80
1FCF80
ENDCHAR
STARTCHAR 01D7
ENCODING 471
SWIDTH 600 0
DWIDTH 20 0
BBX 16 35 2 0
BITMAP
0038
0070
00E0
01C0
0000
0000
3C3C
3C3C
3C3C
0000
0000
0000
F00F
F00F
F00F
F00F
F00F
F00F
F00F
F00F
F00F
F00F
F00F
F00F
F00F
F00F
F00F
F00F
F00F
F00F
F00E
781E
7FFE
3FFC
0FF0
ENDCHAR
STARTCHAR 01D8
ENCODING 472
SWIDTH 600 0
DWIDTH 20 0
BBX 17 31 2 0
BITMAP
007800
007000
00E000
01C000
01C000
000000
000000
3C3C00
3C3C00
3C3C00
3C3C00
000000
000000
000000
F00E00
F00E00
F00E00
F00E00
F00E00
F00E00
F00E00
F00E00
F00E00
F00E00
F00E00
F01E00
701E00
783E00
7C7E00
3FEF80
1FCF80
ENDCHAR
STARTCHAR 01D9
ENCODING 473
SWIDTH 600 0
DWIDTH 20 0
BBX 16 34 2 0
BITMAP
3C3C
0F70
07E0
03C0
0000
3C3C
3C3C
3C3C
0000
0000
0000
F00F
F00F
F00F
F00F
F00F
F00F
F00F
F00F
F00F
F00F
F00F
F00F
F00F
F00F
F00F
F00F
F00F
F00F
F00E
781E
7FFE
3FFC
0FF0
ENDCHAR
STARTCHAR 01DA
ENCODING 474
SWIDTH 600 0
DWIDTH 20 0
BBX 17 30 2 0
BITMAP
383C00
1E7000
0FE000
07C000
000000
000000
3C3C00
3C3C00
3C3C00
3C3C00
000000
000000
000000
F00E00
F00E00
F00E00
F00E00
F00E00
F00E00
F00E00
F00E00
F00E00
F00E00
F00E00
F01E00
701E00
783E00
7C7E00
3FEF80
1FCF80
ENDCHAR
STARTCHAR 01DB
ENCODING 475
SWIDTH 600 0
DWIDTH 20 0
BBX 16 35 2 0
BITMAP
1E00
0E00
0700
0380
0000
0000
3C3C
3C3C
3C3C
0000
0000
0000
F00F
F00F
F00F
F00F
F00F
F00F
F00F
F00F
F00F
F00F
F00F
F00F
F00F
F00F
F00F
F00F
F00F
F00F
F00E
781E
7FFE
3FFC
0FF0
ENDCHAR
STARTCHAR 01DC
ENCODING 476
SWIDTH 600 0
DWIDTH 20 0
BBX 17 31 2 0
BITMAP
3C0000
1E0000
0E0000
070000
038000
000000
000000
3C3C00
3C3C00
3C3C00
3C3C00
000000
000000
000000
F00E00
F00E00
F00E00
F00E00
F00E00
F00E00
F00E00
F00E00
F00E00
F00E00
F00E00
F01E00
701E00
783E00
7C7E00
3FEF80
1FCF80
ENDCHAR
STARTCHAR 01E4
ENCODING 484
SWIDTH 600 0
DWIDTH 20 0
BBX 19 23 1 0
BITMAP
07F800
1FFE00
3FFF00
3C0F00
780780
700380
700380
F00380
F00000
F00000
F00000
F0FF80
F0FF80
F0FF80
F00380
F00380
F07FE0
707FE0
780780
3C0F80
3FFF80
1FFDC0
07F0C0
ENDCHAR
STARTCHAR 01E5
ENCODING 485
SWIDTH 600 0
DWIDTH 20 0
BBX 21 26 0 -6
BITMAP
0000E0
0000E0
0001C0
03FF80
0FFF00
0F0780
1E0380
1C0380
1C0380
1E0380
0E0780
0FFF00
07FE00
1F0000
1C0000
1C0000
1C0000
1FFF80
0FFFC0
1FFFE0
3801E0
FFFFF8
FFFFF8
3801E0
3FFFC0
1FFF80
ENDCHAR
STARTCHAR 01E6
ENCODING 486
SWIDTH 600 0
DWIDTH 20 0
BBX 18 29 1 0
BITMAP
1E1E00
073800
03F000
01E000
000000
000000
07F800
1FFE00
3FFF00
3C0F00
780780
700380
700380
F00380
F00000
F00000
F00000
F0FF80
F0FF80
F0FF80
F00380
F00380
F00380
700380
780780
3C0F80
3FFF80
1FFDC0
07F0C0
ENDCHAR
STARTCHAR 01E7
ENCODING 487
SWIDTH 600 0
DWIDTH 20 0
BBX 17 31 2 -6
BITMAP
3C3C00
0C7000
0E7000
07E000
03C000
000380
000380
000700
0FFE00
3FFC00
3C1E00
780E00
700E00
700E00
780E00
381E00
3FFC00
1FF800
7C0000
700000
700000
700000
7FFE00
3FFF00
7FFF80
E00780
E00380
E00380
E00780
FFFF00
7FFE00
ENDCHAR
STARTCHAR 01EA
ENCODING 490
SWIDTH 600 0
DWIDTH 20 0
BBX 18 28 1 -5
BITMAP
07F800
1FFE00
3FFF00
3C0F00
780780
700380
700380
F003C0
F003C0
F003C0
F003C0
F003C0
F003C0
F003C0
F003C0
F003C0
F00380
700380
780780
3C0F00
3FFF00
1FFE00
07F800
006000
00E000
00C000
00FE00
007800
ENDCHAR
STARTCHAR 01EB
ENCODING 491
SWIDTH 600 0
DWIDTH 20 0
BBX 16 22 2 -5
BITMAP
0FF0
1FF8
3C3C
781E
700E
F00F
F00F
F00F
F00F
F00F
F00F
F00F
700E
781E
3C3C
1FF8
0FF0
01C0
0380
0380
03F8
00E0
ENDCHAR
STARTCHAR 01FA
ENCODING 506
SWIDTH 600 0
DWIDTH 20 0
BBX 20 37 0 0
BITMAP
001C00
003800
003000
006000
000000
000000
00F000
019800
030C00
010C00
019800
00F000
000000
000000
00F000
01F800
01F800
01F800
03FC00
039C00
039C00
079E00
071E00
070E00
0F0E00
0E0F00
0E0700
0E0700
1E0780
1FFF80
1FFF80
3FFFC0
3801C0
3801C0
7801E0
7000E0
F000F0
ENDCHAR
STARTCHAR 01FB
ENCODING 507
SWIDTH 600 0
DWIDTH 20 0
BBX 17 32 2 0
BITMAP
007000
00E000
00C000
018000
000000
000000
07C000
06E000
0C6000
0C6000
0E6000
07C000
010000
000000
000000
1FF000
3FF800
783C00
701C00
701E00
001E00
001E00
07FE00
3FFE00
7C1E00
701E00
F01E00
F01E00
F03E00
787E00
7FEF80
3FCF80
ENDCHAR
STARTCHAR 01FC
ENCODING 508
SWIDTH 600 0
DWIDTH 20 0
BBX 20 30 0 0
BITMAP
000780
000700
000E00
001C00
003800
000000
000000
01FFE0
01FFE0
01FFE0
03F800
03B800
03B800
07B800
073800
073800
0F3800
0E3FC0
0E3FC0
1E3FC0
1C3800
1C3800
3FF800
3FF800
3FF800
783800
783800
703FE0
F03FE0
F03FF0
ENDCHAR
STARTCHAR 01FD
ENCODING 509
SWIDTH 600 0
DWIDTH 20 0
BBX 20 25 0 0
BITMAP
003C00
003800
007000
007000
006000
008000
000000
000000
1F8F80
3FDFC0
70F8E0
70F0E0
707060
007060
007060
0FFFF0
3FFFF0
787000
707010
607060
E0F060
60F060
71F8E0
7FBFC0
3F0F80
ENDCHAR
STARTCHAR 01FE
ENCODING 510
SWIDTH 600 0
DWIDTH 20 0
BBX 18 32 1 -2
BITMAP
001C00
003800
007000
006000
00E000
0000C0
000180
07F980
1FFF00
3FFF00
3C0F00
780F80
700F80
701B80
F03BC0
F033C0
F063C0
F063C0
F0C3C0
F1C3C0
F183C0
F303C0
F303C0
F60380
7E0380
7C0780
3C0F00
3FFF00
3FFE00
77F800
600000
C00000
ENDCHAR
STARTCHAR 01FF
ENCODING 511
SWIDTH 600 0
DWIDTH 20 0
BBX 16 27 2 -2
BITMAP
00F0
00E0
01C0
01C0
0180
0201
0006
000E
0FFC
1FF8
3C3C
783E
706E
F06F
F0CF
F1CF
F18F
F30F
F30F
F60F
7C0E
7C1E
3C3C
3FF8
3FF0
6000
E000
ENDCHAR
STARTCHAR 0200
ENCODING 512
SWIDTH 600 0
DWIDTH 20 0
BBX 20 30 0 0
BITMAP
3CE000
1C7000
0E3000
073800
039C00
000000
000000
00F000
01F800
01F800
01F800
03FC00
039C00
039C00
079E00
071E00
070E00
0F0E00
0E0F00
0E0700
0E0700
1E0780
1FFF80
1FFF80
3FFFC0
3801C0
3801C0
7801E0
7000E0
F000F0
ENDCHAR
STARTCHAR 0201
ENCODING 513
SWIDTH 600 0
DWIDTH 20 0
BBX 17 25 2 0
BITMAP
E38000
738000
39C000
18E000
1C7000
020000
000000
000000
1FF000
3FF800
783C00
701C00
701E00
001E00
001E00
07FE00
3FFE00
7C1E00
701E00
F01E00
F01E00
F03E00
787E00
7FEF80
3FCF80
ENDCHAR
STARTCHAR 0202
ENCODING 514
SWIDTH 600 0
DWIDTH 20 0
BBX 20 30 0 0
BITMAP
00F800
07FE00
0F0F00
0E0300
0C0300
000000
000000
00F000
01F800
01F800
01F800
03FC00
039C00
039C00
079E00
071E00
070E00
0F0E00
0E0F00
0E0700
0E0700
1E0780
1FFF80
1FFF80
3FFFC0
3801C0
3801C0
7801E0
7000E0
F000F0
ENDCHAR
STARTCHAR 0203
ENCODING 515
SWIDTH 600 0
DWIDTH 20 0
BBX 17 25 2 0
BITMAP
038000
1FF000
3EF800
381C00
300C00
000000
000000
000000
1FF000
3FF800
783C00
701C00
701E00
001E00
001E00
07FE00
3FFE00
7C1E00
701E00
F01E00
F01E00
F03E00
787E00
7FEF80
3FCF80
ENDCHAR
STARTCHAR 0204
ENCODING 516
SWIDTH 600 0
DWIDTH 20 0
BBX 15 30 3 0
BITMAP
E780
7380
39C0
18C0
1C60
0000
0000
FFFE
FFFE
FFFC
E000
E000
E000
E000
E000
E000
E000
FFF8
FFF8
FFF8
E000
E000
E000
E000
E000
E000
E000
FFFE
FFFE
FFFE
ENDCHAR
STARTCHAR 0205
ENCODING 517
SWIDTH 600 0
DWIDTH 20 0
BBX 16 25 2 0
BITMAP
7380
39C0
38E0
1CE0
0E70
0000
0000
0000
0FF0
1FF8
3C3C
781E
700E
F00E
F00F
FFFF
FFFF
F000
F000
F00F
700E
780E
3C3C
1FFC
0FF0
ENDCHAR
STARTCHAR 0206
ENCODING 518
SWIDTH 600 0
DWIDTH 20 0
BBX 15 30 3 0
BITMAP
07C0
1FF0
3C78
701C
700C
0000
0000
FFFE
FFFE
FFFC
E000
E000
E000
E000
E000
E000
E000
FFF8
FFF8
FFF8
E000
E000
E000
E000
E000
E000
E000
FFFE
FFFE
FFFE
ENDCHAR
STARTCHAR 0207
ENCODING 519
SWIDTH 600 0
DWIDTH 20 0
BBX 16 25 2 0
BITMAP
01C0
0FF8
1E7C
381C
300C
0000
0000
0000
0FF0
1FF8
3C3C
781E
700E
F00E
F00F
FFFF
FFFF
F000
F000
F00F
700E
780E
3C3C
1FFC
0FF0
ENDCHAR
STARTCHAR 0208
ENCODING 520
SWIDTH 600 0
DWIDTH 20 0
BBX 14 30 2 0
BITMAP
F380
71C0
38C0
1CE0
0E70
0000
0000
3FFC
3FFC
3FFC
03C0
03C0
03C0
03C0
03C0
03C0
03C0
03C0
03C0
03C0
03C0
03C0
03C0
03C0
03C0
03C0
03C0
3FFC
3FFC
3FFC
ENDCHAR
STARTCHAR 0209
ENCODING 521
SWIDTH 600 0
DWIDTH 20 0
BBX 15 25 3 0
BITMAP
E380
7380
39C0
18E0
0C70
0200
0000
0000
FFC0
FFC0
FFC0
03C0
03C0
03C0
03C0
03C0
03C0
03C0
03C0
03C0
03C0
03C0
FFFE
FFFE
FFFE
ENDCHAR
STARTCHAR 020A
ENCODING 522
SWIDTH 600 0
DWIDTH 20 0
BBX 12 30 4 0
BITMAP
0F80
7FE0
F0F0
E030
C030
0000
0000
FFF0
FFF0
FFF0
0F00
0F00
0F00
0F00
0F00
0F00
0F00
0F00
0F00
0F00
0F00
0F00
0F00
0F00
0F00
0F00
0F00
FFF0
FFF0
FFF0
ENDCHAR
STARTCHAR 020B
ENCODING 523
SWIDTH 600 0
DWIDTH 20 0
BBX 15 25 3 0
BITMAP
0380
1FF0
3EF8
381C
300C
0000
0000
0000
FFC0
FFC0
FFC0
03C0
03C0
03C0
03C0
03C0
03C0
03C0
03C0
03C0
03C0
03C0
FFFE
FFFE
FFFE
ENDCHAR
STARTCHAR 020C
ENCODING 524
SWIDTH 600 0
DWIDTH 20 0
BBX 18 30 1 0
BITMAP
79C000
38E000
1C6000
0E7000
073800
000000
000000
07F800
1FFE00
3FFF00
3C0F00
780780
700380
700380
F003C0
F003C0
F003C0
F003C0
F003C0
F003C0
F003C0
F003C0
F003C0
F00380
700380
780780
3C0F00
3FFF00
1FFE00
07F800
ENDCHAR
STARTCHAR 020D
ENCODING 525
SWIDTH 600 0
DWIDTH 20 0
BBX 16 25 2 0
BITMAP
7380
71C0
39C0
1CE0
0C70
0200
0000
0000
0FF0
1FF8
3C3C
781E
700E
F00F
F00F
F00F
F00F
F00F
F00F
F00F
700E
781E
3C3C
1FF8
0FF0
ENDCHAR
STARTCHAR 020E
ENCODING 526
SWIDTH 600 0
DWIDTH 20 0
BBX 18 30 1 0
BITMAP
01F000
0FFC00
1E1E00
1C0600
180600
000000
000000
07F800
1FFE00
3FFF00
3C0F00
780780
700380
700380
F003C0
F003C0
F003C0
F003C0
F003C0
F003C0
F003C0
F003C0
F003C0
F00380
700380
780780
3C0F00
3FFF00
1FFE00
07F800
ENDCHAR
STARTCHAR 020F
ENCODING 527
SWIDTH 600 0
DWIDTH 20 0
BBX 16 25 2 0
BITMAP
01C0
0FF0
1E78
381C
300C
0000
0000
0000
0FF0
1FF8
3C3C
781E
700E
F00F
F00F
F00F
F00F
F00F
F00F
F00F
700E
781E
3C3C
1FF8
0FF0
ENDCHAR
STARTCHAR 0210
ENCODING 528
SWIDTH 600 0
DWIDTH 20 0
BBX 18 30 2 0
BITMAP
F38000
79C000
38C000
1CE000
0E7000
000000
000000
FFF800
FFFE00
FFFF00
F00F00
F00780
F00780
F00780
F00780
F00700
F00F00
FFFE00
FFF800
FFFC00
F03E00
F00F00
F00F00
F00700
F00700
F00700
F00700
F00780
F00780
F003C0
ENDCHAR
STARTCHAR 0211
ENCODING 529
SWIDTH 600 0
DWIDTH 20 0
BBX 18 25 1 0
BITMAP
39E000
1CE000
0E7000
063800
071800
000400
000000
000000
7F7F00
7FFF80
7FCF80
078380
0701C0
0701C0
070000
070000
070000
070000
070000
070000
070000
070000
FFFF00
FFFF00
FFFF00
ENDCHAR
STARTCHAR 0212
ENCODING 530
SWIDTH 600 0
DWIDTH 20 0
BBX 18 30 2 0
BITMAP
03E000
1FF800
3C3C00
380C00
300E00
000000
000000
FFF800
FFFE00
FFFF00
F00F00
F00780
F00780
F00780
F00780
F00700
F00F00
FFFE00
FFF800
FFFC00
F03E00
F00F00
F00F00
F00700
F00700
F00700
F00700
F00780
F00780
F003C0
ENDCHAR
STARTCHAR 0213
ENCODING 531
SWIDTH 600 0
DWIDTH 20 0
BBX 18 25 1 0
BITMAP
00E000
07FC00
0FBE00
0C0600
1C0700
000000
000000
000000
7F7F00
7FFF80
7FCF80
078380
0701C0
0701C0
070000
070000
070000
070000
070000
070000
070000
070000
FFFF00
FFFF00
FFFF00
ENDCHAR
STARTCHAR 0214
ENCODING 532
SWIDTH 600 0
DWIDTH 20 0
BBX 16 30 2 0
BITMAP
F380
71C0
38C0
1CE0
0E70
0000
0000
F00F
F00F
F00F
F00F
F00F
F00F
F00F
F00F
F00F
F00F
F00F
F00F
F00F
F00F
F00F
F00F
F00F
F00F
F00E
781E
7FFE
3FFC
0FF0
ENDCHAR
STARTCHAR 0215
ENCODING 533
SWIDTH 600 0
DWIDTH 20 0
BBX 17 25 2 0
BITMAP
E38000
738000
39C000
18E000
0C7000
020000
000000
000000
F00E00
F00E00
F00E00
F00E00
F00E00
F00E00
F00E00
F00E00
F00E00
F00E00
F00E00
F01E00
701E00
783E00
7C7E00
3FEF80
1FCF80
ENDCHAR
STARTCHAR 0216
ENCODING 534
SWIDTH 600 0
DWIDTH 20 0
BBX 16 30 2 0
BITMAP
03E0
1FF8
3C3C
380C
300C
0000
0000
F00F
F00F
F00F
F00F
F00F
F00F
F00F
F00F
F00F
F00F
F00F
F00F
F00F
F00F
F00F
F00F
F00F
F00F
F00E
781E
7FFE
3FFC
0FF0
ENDCHAR
STARTCHAR 0217
ENCODING 535
SWIDTH 600 0
DWIDTH 20 0
BBX 17 25 2 0
BITMAP
038000
1FF000
3EF800
381C00
300C00
000000
000000
000000
F00E00
F00E00
F00E00
F00E00
F00E00
F00E00
F00E00
F00E00
F00E00
F00E00
F00E00
F01E00
701E00
783E00
7C7E00
3FEF80
1FCF80
ENDCHAR
STARTCHAR 0218
ENCODING 536
SWIDTH 600 0
DWIDTH 20 0
BBX 18 33 1 -10
BITMAP
07F800
1FFE00
3FFF00
780780
780380
700380
700380
780000
7C0000
3FC000
1FF800
07FE00
00FF00
001F80
0007C0
0003C0
F003C0
F003C0
700380
780780
3FFF00
3FFF00
0FFC00
000000
000000
01E000
01E000
01E000
01E000
006000
004000
00C000
01C000
ENDCHAR
STARTCHAR 0219
ENCODING 537
SWIDTH 600 0
DWIDTH 20 0
BBX 14 27 3 -10
BITMAP
1FE0
7FF8
F038
E01C
E01C
F000
FC00
7FE0
3FF8
03FC
003C
001C
E01C
E01C
F03C
7FF8
3FF0
0000
0000
0780
0780
0780
0780
0180
0100
0300
0700
ENDCHAR
STARTCHAR 021A
ENCODING 538
SWIDTH 600 0
DWIDTH 20 0
BBX 18 33 1 -10
BITMAP
FFFFC0
FFFFC0
FFFFC0
01E000
01E000
01E000
01E000
01E000
01E000
01E000
01E000
01E000
01E000
01E000
01E000
01E000
01E000
01E000
01E000
01E000
01E000
01E000
01E000
000000
000000
01E000
01E000
01E000
01E000
006000
004000
00C000
01C000
ENDCHAR
STARTCHAR 021B
ENCODING 539
SWIDTH 600 0
DWIDTH 20 0
BBX 16 32 2 -10
BITMAP
0300
0700
0700
0700
0700
FFFF
FFFF
FFFF
0700
0700
0700
0700
0700
0700
0700
0700
0700
0700
0780
07E7
03FF
01FE
0000
0000
00E0
00E0
00E0
00E0
0020
0060
0060
00C0
ENDCHAR
STARTCHAR 022A
ENCODING 554
SWIDTH 600 0
DWIDTH 20 0
BBX 18 33 1 0
BITMAP
0FFC00
0FFC00
000000
000000
0F3C00
0F3C00
0F3C00
000000
000000
000000
07F800
1FFE00
3FFF00
3C0F00
780780
700380
700380
F003C0
F003C0
F003C0
F003C0
F003C0
F003C0
F003C0
F003C0
F003C0
F00380
700380
780780
3C0F00
3FFF00
1FFE00
07F800
ENDCHAR
STARTCHAR 022B
ENCODING 555
SWIDTH 600 0
DWIDTH 20 0
BBX 16 28 2 0
BITMAP
1FF8
1FF8
0000
0000
1E78
1E78
1E78
1E78
0000
0000
0000
0FF0
1FF8
3C3C
781E
700E
F00F
F00F
F00F
F00F
F00F
F00F
F00F
700E
781E
3C3C
1FF8
0FF0
ENDCHAR
STARTCHAR 022C
ENCODING 556
SWIDTH 600 0
DWIDTH 20 0
BBX 18 33 1 0
BITMAP
1FFE00
1FFE00
000000
000000
0F8600
1FFE00
38FC00
000000
000000
000000
07F800
1FFE00
3FFF00
3C0F00
780780
700380
700380
F003C0
F003C0
F003C0
F003C0
F003C0
F003C0
F003C0
F003C0
F003C0
F00380
700380
780780
3C0F00
3FFF00
1FFE00
07F800
ENDCHAR
STARTCHAR 022D
ENCODING 557
SWIDTH 600 0
DWIDTH 20 0
BBX 16 28 2 0
BITMAP
3FFC
3FFC
0000
0000
1F06
3FFC
33FC
2030
0000
0000
0000
0FF0
1FF8
3C3C
781E
700E
F00F
F00F
F00F
F00F
F00F
F00F
F00F
700E
781E
3C3C
1FF8
0FF0
ENDCHAR
STARTCHAR 0230
ENCODING 560
SWIDTH 600 0
DWIDTH 20 0
BBX 18 33 1 0
BITMAP
0FFC00
0FFC00
000000
000000
01E000
01E000
01E000
000000
000000
000000
07F800
1FFE00
3FFF00
3C0F00
780780
700380
700380
F003C0
F003C0
F003C0
F003C0
F003C0
F003C0
F003C0
F003C0
F003C0
F00380
700380
780780
3C0F00
3FFF00
1FFE00
07F800
ENDCHAR
STARTCHAR 0231
ENCODING 561
SWIDTH 600 0
DWIDTH 20 0
BBX 16 27 2 0
BITMAP
1FF8
1FF8
0000
03C0
03C0
03C0
0000
0000
0000
0000
0FF0
1FF8
3C3C
781E
700E
F00F
F00F
F00F
F00F
F00F
F00F
F00F
700E
781E
3C3C
1FF8
0FF0
ENDCHAR
STARTCHAR 0232
ENCODING 562
SWIDTH 600 0
DWIDTH 20 0
BBX 18 28 1 0
BITMAP
0FFC00
0FFC00
000000
000000
000000
F001C0
F003C0
780380
780780
3C0700
3C0F00
1E1E00
0E1E00
0F3C00
073800
07F800
03F000
03F000
01E000
01E000
01E000
01E000
01E000
01E000
01E000
01E000
01E000
01E000
ENDCHAR
STARTCHAR 0233
ENCODING 563
SWIDTH 600 0
DWIDTH 20 0
BBX 16 29 2 -6
BITMAP
1FFC
1FFC
0000
0000
0000
0000
F007
F00F
700E
780E
381C
381C
3C1C
1C38
1E38
0E70
0E70
0F70
07E0
07E0
03E0
03C0
03C0
0380
0380
0700
4F00
7E00
7C00
ENDCHAR
STARTCHAR 0237
ENCODING 567
SWIDTH 600 0
DWIDTH 20 0
BBX 10 23 3 -6
BITMAP
FFC0
FFC0
FFC0
03C0
03C0
03C0
03C0
03C0
03C0
03C0
03C0
03C0
03C0
03C0
03C0
03C0
03C0
03C0
03C0
0380
C780
FF00
7E00
ENDCHAR
STARTCHAR 0244
ENCODING 580
SWIDTH 600 0
DWIDTH 20 0
BBX 20 23 0 0
BITMAP
3C03C0
3C03C0
3C03C0
3C03C0
3C03C0
3C03C0
3C03C0
3C03C0
3C03C0
FFFFF0
FFFFF0
FFFFF0
3C03C0
3C03C0
3C03C0
3C03C0
3C03C0
3C03C0
3C0380
1E0780
1FFF80
0FFF00
03FC00
ENDCHAR
STARTCHAR 0259
ENCODING 601
SWIDTH 600 0
DWIDTH 20 0
BBX 16 17 2 0
BITMAP
0FF0
3FFC
7C3C
701E
700E
F00F
000F
000F
FFFF
FFFF
F00F
700F
700E
781E
3C3C
1FF8
0FF0
ENDCHAR
STARTCHAR 0268
ENCODING 616
SWIDTH 600 0
DWIDTH 20 0
BBX 15 24 3 0
BITMAP
0380
0380
0380
0000
0000
0000
0000
FFC0
FFC0
FFC0
03C0
03C0
03C0
3FF8
3FF8
3FF8
03C0
03C0
03C0
03C0
03C0
FFFE
FFFE
FFFE
ENDCHAR
STARTCHAR 026A
ENCODING 618
SWIDTH 600 0
DWIDTH 20 0
BBX 10 17 5 0
BITMAP
FFC0
FFC0
FFC0
1E00
1E00
1E00
1E00
1E00
1E00
1E00
1E00
1E00
1E00
1E00
FFC0
FFC0
FFC0
ENDCHAR
STARTCHAR 0272
ENCODING 626
SWIDTH 600 0
DWIDTH 20 0
BBX 18 23 -1 -6
BITMAP
0E7F00
0FFF80
0FC7C0
0F03C0
0F01C0
0E01C0
0E01C0
0E01C0
0E01C0
0E01C0
0E01C0
0E01C0
0E01C0
0E01C0
0E01C0
0E01C0
0E01C0
0E0000
0E0000
0E0000
9E0000
FE0000
F80000
ENDCHAR
STARTCHAR 0289
ENCODING 649
SWIDTH 600 0
DWIDTH 20 0
BBX 19 17 0 0
BITMAP
3C0380
3C0380
3C0380
3C0380
3C0380
3C0380
FFFFE0
FFFFE0
FFFFE0
3C0380
3C0380
3C0780
1C0780
1E0F80
1F1F80
0FFBE0
07F3E0
ENDCHAR
STARTCHAR 02B9
ENCODING 697
SWIDTH 600 0
DWIDTH 20 0
BBX 4 6 8 19
BITMAP
70
70
70
E0
E0
C0
ENDCHAR
STARTCHAR 02BA
ENCODING 698
SWIDTH 600 0
DWIDTH 20 0
BBX 10 6 5 19
BITMAP
39C0
7380
7380
7380
6300
E700
ENDCHAR
STARTCHAR 02BC
ENCODING 700
SWIDTH 600 0
DWIDTH 20 0
BBX 4 8 8 18
BITMAP
F0
F0
F0
F0
20
20
60
C0
ENDCHAR
STARTCHAR 02C6
ENCODING 710
SWIDTH 600 0
DWIDTH 20 0
BBX 12 5 4 20
BITMAP
0F00
1F80
3980
39C0
F0F0
ENDCHAR
STARTCHAR 02C7
ENCODING 711
SWIDTH 600 0
DWIDTH 20 0
BBX 12 5 4 20
BITMAP
F0F0
31C0
39C0
1F80
0F00
ENDCHAR
STARTCHAR 02C9
ENCODING 713
SWIDTH 600 0
DWIDTH 20 0
BBX 10 2 5 23
BITMAP
FFC0
FFC0
ENDCHAR
STARTCHAR 02CD
ENCODING 717
SWIDTH 600 0
DWIDTH 20 0
BBX 10 2 5 -5
BITMAP
FFC0
FFC0
ENDCHAR
STARTCHAR 02D8
ENCODING 728
SWIDTH 600 0
DWIDTH 20 0
BBX 12 5 4 20
BITMAP
E070
E060
70E0
7FC0
1F80
ENDCHAR
STARTCHAR 02D9
ENCODING 729
SWIDTH 600 0
DWIDTH 20 0
BBX 4 3 8 21
BITMAP
F0
F0
F0
ENDCHAR
STARTCHAR 02DA
ENCODING 730
SWIDTH 600 0
DWIDTH 20 0
BBX 8 7 6 19
BITMAP
3C
66
43
C3
66
7E
10
ENDCHAR
STARTCHAR 02DB
ENCODING 731
SWIDTH 600 0
DWIDTH 20 0
BBX 6 5 7 -5
BITMAP
70
C0
C0
FC
78
ENDCHAR
STARTCHAR 02DC
ENCODING 732
SWIDTH 600 0
DWIDTH 20 0
BBX 12 4 4 20
BITMAP
7C30
7FF0
C7E0
C1C0
ENDCHAR
STARTCHAR 02DD
ENCODING 733
SWIDTH 600 0
DWIDTH 20 0
BBX 12 5 4 20
BITMAP
1EF0
3CE0
39C0
7380
E700
ENDCHAR
STARTCHAR 0300
ENCODING 768
SWIDTH 0 0
DWIDTH 0 0
BBX 6 5 7 20
BITMAP
F0
70
30
38
1C
ENDCHAR
STARTCHAR 0301
ENCODING 769
SWIDTH 0 0
DWIDTH 0 0
BBX 6 5 7 20
BITMAP
3C
38
70
70
E0
ENDCHAR
STARTCHAR 0302
ENCODING 770
SWIDTH 0 0
DWIDTH 0 0
BBX 12 5 4 20
BITMAP
0F00
1F80
3980
39C0
F0F0
ENDCHAR
STARTCHAR 0303
ENCODING 771
SWIDTH 0 0
DWIDTH 0 0
BBX 12 4 4 20
BITMAP
7C30
7FF0
C7E0
C1C0
ENDCHAR
STARTCHAR 0304
ENCODING 772
SWIDTH 0 0
DWIDTH 0 0
BBX 10 2 5 21
BITMAP
FFC0
FFC0
ENDCHAR
STARTCHAR 0306
ENCODING 774
SWIDTH 0 0
DWIDTH 0 0
BBX 12 5 4 20
BITMAP
E070
E060
70E0
7FC0
1F80
ENDCHAR
STARTCHAR 0307
ENCODING 775
SWIDTH 0 0
DWIDTH 0 0
BBX 4 3 8 21
BITMAP
F0
F0
F0
ENDCHAR
STARTCHAR 0308
ENCODING 776
SWIDTH 0 0
DWIDTH 0 0
BBX 10 4 5 20
BITMAP
E1C0
E1C0
E1C0
E1C0
ENDCHAR
STARTCHAR 0309
ENCODING 777
SWIDTH 0 0
DWIDTH 0 0
BBX 6 7 7 19
BITMAP
F0
FC
9C
0C
0C
38
30
ENDCHAR
STARTCHAR 030A
ENCODING 778
SWIDTH 0 0
DWIDTH 0 0
BBX 8 7 6 19
BITMAP
3C
66
43
C3
66
7E
10
ENDCHAR
STARTCHAR 030B
ENCODING 779
SWIDTH 0 0
DWIDTH 0 0
BBX 12 5 4 20
BITMAP
1EF0
3CE0
39C0
7380
E700
ENDCHAR
STARTCHAR 030C
ENCODING 780
SWIDTH 0 0
DWIDTH 0 0
BBX 12 5 4 20
BITMAP
F0F0
31C0
39C0
1F80
0F00
ENDCHAR
STARTCHAR 030F
ENCODING 783
SWIDTH 0 0
DWIDTH 0 0
BBX 12 5 4 20
BITMAP
E780
7380
39C0
18E0
1C70
ENDCHAR
STARTCHAR 0311
ENCODING 785
SWIDTH 0 0
DWIDTH 0 0
BBX 12 5 4 20
BITMAP
0700
3FC0
79E0
E070
C030
ENDCHAR
STARTCHAR 0312
ENCODING 786
SWIDTH 0 0
DWIDTH 0 0
BBX 4 8 8 20
BITMAP
70
60
40
C0
F0
F0
F0
F0
ENDCHAR
STARTCHAR 0313
ENCODING 787
SWIDTH 0 0
DWIDTH 0 0
BBX 4 8 8 20
BITMAP
F0
F0
F0
F0
20
60
60
C0
ENDCHAR
STARTCHAR 031B
ENCODING 795
SWIDTH 0 0
DWIDTH 0 0
BBX 6 7 7 15
BITMAP
1C
1C
1C
38
78
F0
C0
ENDCHAR
STARTCHAR 0323
ENCODING 803
SWIDTH 0 0
DWIDTH 0 0
BBX 4 3 8 -6
BITMAP
F0
F0
F0
ENDCHAR
STARTCHAR 0324
ENCODING 804
SWIDTH 0 0
DWIDTH 0 0
BBX 10 4 5 -7
BITMAP
E1C0
E1C0
E1C0
E1C0
ENDCHAR
STARTCHAR 0326
ENCODING 806
SWIDTH 0 0
DWIDTH 0 0
BBX 4 8 8 -10
BITMAP
F0
F0
F0
F0
30
20
60
E0
ENDCHAR
STARTCHAR 0327
ENCODING 807
SWIDTH 0 0
DWIDTH 0 0
BBX 8 6 6 -7
BITMAP
1C
0E
07
06
7E
FC
ENDCHAR
STARTCHAR 0328
ENCODING 808
SWIDTH 0 0
DWIDTH 0 0
BBX 6 5 7 -5
BITMAP
70
C0
C0
FC
78
ENDCHAR
STARTCHAR 032E
ENCODING 814
SWIDTH 0 0
DWIDTH 0 0
BBX 12 5 4 -7
BITMAP
C030
C030
E070
7FE0
3FC0
ENDCHAR
STARTCHAR 0330
ENCODING 816
SWIDTH 0 0
DWIDTH 0 0
BBX 12 4 4 -6
BITMAP
7C30
7FF0
C7E0
C1C0
ENDCHAR
STARTCHAR 0331
ENCODING 817
SWIDTH 0 0
DWIDTH 0 0
BBX 10 2 5 -5
BITMAP
FFC0
FFC0
ENDCHAR
STARTCHAR 0335
ENCODING 821
SWIDTH 0 0
DWIDTH 0 0
BBX 12 3 4 10
BITMAP
FFF0
FFF0
FFF0
ENDCHAR
STARTCHAR 0336
ENCODING 822
SWIDTH 0 0
DWIDTH 0 0
BBX 20 3 0 11
BITMAP
FFFFF0
FFFFF0
FFFFF0
ENDCHAR
STARTCHAR 0337
ENCODING 823
SWIDTH 0 0
DWIDTH 0 0
BBX 12 9 4 8
BITMAP
0010
0030
00F0
03E0
0F80
3E00
F000
C000
8000
ENDCHAR
STARTCHAR 0338
ENCODING 824
SWIDTH 0 0
DWIDTH 0 0
BBX 16 21 2 -2
BITMAP
0007
000E
000C
0018
0018
0030
0060
0060
00C0
01C0
0180
0300
0300
0600
0C00
0C00
1800
3800
3000
6000
E000
ENDCHAR
STARTCHAR 0394
ENCODING 916
SWIDTH 600 0
DWIDTH 20 0
BBX 18 23 1 0
BITMAP
01E000
03F000
03F000
03F000
07F800
073800
073800
0F3C00
0E3C00
0E1C00
1E1E00
1C1E00
1C0E00
3C0F00
380F00
380700
380700
780780
700380
700380
FFFFC0
FFFFC0
FFFFC0
ENDCHAR
STARTCHAR 03A9
ENCODING 937
SWIDTH 600 0
DWIDTH 20 0
BBX 20 23 0 0
BITMAP
03FC00
0FFF00
1FFF80
3E07C0
3C03C0
7801E0
7801E0
7801E0
7000E0
7000E0
7000E0
7000E0
7000E0
7000E0
7000E0
7000E0
7801E0
3801C0
3801C0
1C0380
FE07F0
FF9FF0
FF9FF0
ENDCHAR
STARTCHAR 03BC
ENCODING 956
SWIDTH 600 0
DWIDTH 20 0
BBX 17 22 2 -5
BITMAP
F00E00
F00E00
F00E00
F00E00
F00E00
F00E00
F00E00
F00E00
F00E00
F00E00
F00E00
F01E00
F01E00
F83E00
FC7E00
FFEF80
FFCF80
F00000
F00000
F00000
F00000
F00000
ENDCHAR
STARTCHAR 03C0
ENCODING 960
SWIDTH 600 0
DWIDTH 20 0
BBX 18 17 1 0
BITMAP
7FFFC0
FFFFC0
8E0E00
0E0E00
1E0E00
1E0E00
1C0E00
1C0E00
1C0E00
1C0E00
1C0E00
1C0E00
3C0E00
380E00
380E00
380E00
780F00
ENDCHAR
STARTCHAR 1E24
ENCODING 7716
SWIDTH 600 0
DWIDTH 20 0
BBX 16 29 2 -6
BITMAP
F00F
F00F
F00F
F00F
F00F
F00F
F00F
F00F
F00F
F00F
FFFF
FFFF
FFFF
F00F
F00F
F00F
F00F
F00F
F00F
F00F
F00F
F00F
F00F
0000
0000
0000
03C0
03C0
03C0
ENDCHAR
STARTCHAR 1E25
ENCODING 7717
SWIDTH 600 0
DWIDTH 20 0
BBX 14 30 3 -6
BITMAP
E000
E000
E000
E000
E000
E000
E000
E7F0
EFF8
FC7C
F03C
F01C
E01C
E01C
E01C
E01C
E01C
E01C
E01C
E01C
E01C
E01C
E01C
E01C
0000
0000
0000
0780
0780
0780
ENDCHAR
STARTCHAR 1E62
ENCODING 7778
SWIDTH 600 0
DWIDTH 20 0
BBX 18 29 1 -6
BITMAP
07F800
1FFE00
3FFF00
780780
780380
700380
700380
780000
7C0000
3FC000
1FF800
07FE00
00FF00
001F80
0007C0
0003C0
F003C0
F003C0
700380
780780
3FFF00
3FFF00
0FFC00
000000
000000
000000
01E000
01E000
01E000
ENDCHAR
STARTCHAR 1E63
ENCODING 7779
SWIDTH 600 0
DWIDTH 20 0
BBX 14 23 3 -6
BITMAP
1FE0
7FF8
F038
E01C
E01C
F000
FC00
7FE0
3FF8
03FC
003C
001C
E01C
E01C
F03C
7FF8
3FF0
0000
0000
0000
0780
0780
0780
ENDCHAR
STARTCHAR 1E6C
ENCODING 7788
SWIDTH 600 0
DWIDTH 20 0
BBX 18 29 1 -6
BITMAP
FFFFC0
FFFFC0
FFFFC0
01E000
01E000
01E000
01E000
01E000
01E000
01E000
01E000
01E000
01E000
01E000
01E000
01E000
01E000
01E000
01E000
01E000
01E000
01E000
01E000
000000
000000
000000
01E000
01E000
01E000
ENDCHAR
STARTCHAR 1E6D
ENCODING 7789
SWIDTH 600 0
DWIDTH 20 0
BBX 16 28 2 -6
BITMAP
0300
0700
0700
0700
0700
FFFF
FFFF
FFFF
0700
0700
0700
0700
0700
0700
0700
0700
0700
0700
0780
07E7
03FF
01FE
0000
0000
0000
00F0
00F0
00F0
ENDCHAR
STARTCHAR 1E80
ENCODING 7808
SWIDTH 600 0
DWIDTH 20 0
BBX 20 30 0 0
BITMAP
070000
038000
01C000
00E000
007000
000000
000000
E07070
E0F070
F0F070
70F060
70F0E0
70F8E0
70F8E0
70F8E0
79F8E0
7998E0
3998C0
3999C0
399DC0
399DC0
3B9DC0
3F8DC0
1F0D80
1F0F80
1F0F80
1F0F80
1F0F80
1F0F80
1E0780
ENDCHAR
STARTCHAR 1E81
ENCODING 7809
SWIDTH 600 0
DWIDTH 20 0
BBX 20 25 0 0
BITMAP
03C000
01C000
00C000
00E000
006000
001000
000000
000000
E0F070
E0F070
60F060
70F0E0
70F8E0
71F8E0
71D8E0
3998C0
399DC0
3B9DC0
3B8DC0
1F0D80
1F0F80
1F0F80
1F0F80
0F0780
0E0700
ENDCHAR
STARTCHAR 1E82
ENCODING 7810
SWIDTH 600 0
DWIDTH 20 0
BBX 20 30 0 0
BITMAP
000E00
001C00
003800
003000
007000
000000
000000
E07070
E0F070
F0F070
70F060
70F0E0
70F8E0
70F8E0
70F8E0
79F8E0
7998E0
3998C0
3999C0
399DC0
399DC0
3B9DC0
3F8DC0
1F0D80
1F0F80
1F0F80
1F0F80
1F0F80
1F0F80
1E0780
ENDCHAR
STARTCHAR 1E83
ENCODING 7811
SWIDTH 600 0
DWIDTH 20 0
BBX 20 25 0 0
BITMAP
001C00
003800
003000
007000
006000
008000
000000
000000
E0F070
E0F070
60F060
70F0E0
70F8E0
71F8E0
71D8E0
3998C0
399DC0
3B9DC0
3B8DC0
1F0D80
1F0F80
1F0F80
1F0F80
0F0780
0E0700
ENDCHAR
STARTCHAR 1E84
ENCODING 7812
SWIDTH 600 0
DWIDTH 20 0
BBX 20 29 0 0
BITMAP
070E00
070E00
070E00
000000
000000
000000
E07070
E0F070
F0F070
70F060
70F0E0
70F8E0
70F8E0
70F8E0
79F8E0
7998E0
3998C0
3999C0
399DC0
399DC0
3B9DC0
3F8DC0
1F0D80
1F0F80
1F0F80
1F0F80
1F0F80
1F0F80
1E0780
ENDCHAR
STARTCHAR 1E85
ENCODING 7813
SWIDTH 600 0
DWIDTH 20 0
BBX 20 24 0 0
BITMAP
070E00
070E00
070E00
070E00
000000
000000
000000
E0F070
E0F070
60F060
70F0E0
70F8E0
71F8E0
71D8E0
3998C0
399DC0
3B9DC0
3B8DC0
1F0D80
1F0F80
1F0F80
1F0F80
0F0780
0E0700
ENDCHAR
STARTCHAR 1E9E
ENCODING 7838
SWIDTH 600 0
DWIDTH 20 0
BBX 17 23 2 0
BITMAP
07F800
1FFC00
3FFE00
780F00
780700
700700
F00700
F00700
F00F00
F01E00
F1FC00
F1FC00
F1FE00
F00F00
F00700
F00780
F00780
F00780
F00700
F00F00
F1FF00
F1FE00
F1F800
ENDCHAR
STARTCHAR 1EA0
ENCODING 7840
SWIDTH 600 0
DWIDTH 20 0
BBX 20 29 0 -6
BITMAP
00F000
01F800
01F800
01F800
03FC00
039C00
039C00
079E00
071E00
070E00
0F0E00
0E0F00
0E0700
0E0700
1E0780
1FFF80
1FFF80
3FFFC0
3801C0
3801C0
7801E0
7000E0
F000F0
000000
000000
000000
00F000
00F000
00F000
ENDCHAR
STARTCHAR 1EA1
ENCODING 7841
SWIDTH 600 0
DWIDTH 20 0
BBX 17 23 2 -6
BITMAP
1FF000
3FF800
783C00
701C00
701E00
001E00
001E00
07FE00
3FFE00
7C1E00
701E00
F01E00
F01E00
F03E00
787E00
7FEF80
3FCF80
000000
000000
000000
03C000
03C000
03C000
ENDCHAR
STARTCHAR 1EA2
ENCODING 7842
SWIDTH 600 0
DWIDTH 20 0
BBX 20 32 0 0
BITMAP
00F000
00F800
013800
001C00
001800
007800
006000
000000
000000
00F000
01F800
01F800
01F800
03FC00
039C00
039C00
079E00
071E00
070E00
0F0E00
0E0F00
0E0700
0E0700
1E0780
1FFF80
1FFF80
3FFFC0
3801C0
3801C0
7801E0
7000E0
F000F0
ENDCHAR
STARTCHAR 1EA3
ENCODING 7843
SWIDTH 600 0
DWIDTH 20 0
BBX 17 26 2 0
BITMAP
07C000
07E000
04E000
006000
006000
01C000
018000
000000
000000
1FF000
3FF800
783C00
701C00
701E00
001E00
001E00
07FE00
3FFE00
7C1E00
701E00
F01E00
F01E00
F03E00
787E00
7FEF80
3FCF80
ENDCHAR
STARTCHAR 1EA4
ENCODING 7844
SWIDTH 600 0
DWIDTH 20 0
BBX 20 35 0 0
BITMAP
001E00
001800
003800
007000
000000
006000
00F800
03FC00
079E00
0E0700
000000
000000
00F000
01F800
01F800
01F800
03FC00
039C00
039C00
079E00
071E00
070E00
0F0E00
0E0F00
0E0700
0E0700
1E0780
1FFF80
1FFF80
3FFFC0
3801C0
3801C0
7801E0
7000E0
F000F0
ENDCHAR
STARTCHAR 1EA5
ENCODING 7845
SWIDTH 600 0
DWIDTH 20 0
BBX 17 31 2 0
BITMAP
007800
007000
00E000
01C000
018000
000000
038000
07C000
0FE000
1E7000
383800
000400
000000
000000
1FF000
3FF800
783C00
701C00
701E00
001E00
001E00
07FE00
3FFE00
7C1E00
701E00
F01E00
F01E00
F03E00
787E00
7FEF80
3FCF80
ENDCHAR
STARTCHAR 1EA6
ENCODING 7846
SWIDTH 600 0
DWIDTH 20 0
BBX 20 35 0 0
BITMAP
078000
038000
01C000
00E000
000000
006000
00F800
03FC00
079E00
0E0700
000000
000000
00F000
01F800
01F800
01F800
03FC00
039C00
039C00
079E00
071E00
070E00
0F0E00
0E0F00
0E0700
0E0700
1E0780
1FFF80
1FFF80
3FFFC0
3801C0
3801C0
7801E0
7000E0
F000F0
ENDCHAR
STARTCHAR 1EA7
ENCODING 7847
SWIDTH 600 0
DWIDTH 20 0
BBX 17 31 2 0
BITMAP
1C0000
0E0000
0E0000
070000
038000
000000
038000
07C000
0FE000
1E7000
383800
000400
000000
000000
1FF000
3FF800
783C00
701C00
701E00
001E00
001E00
07FE00
3FFE00
7C1E00
701E00
F01E00
F01E00
F03E00
787E00
7FEF80
3FCF80
ENDCHAR
STARTCHAR 1EA8
ENCODING 7848
SWIDTH 600 0
DWIDTH 20 0
BBX 20 37 0 0
BITMAP
00F000
00F800
001800
001800
003800
007000
000000
006000
00F800
03FC00
079E00
0E0700
000000
000000
00F000
01F800
01F800
01F800
03FC00
039C00
039C00
079E00
071E00
070E00
0F0E00
0E0F00
0E0700
0E0700
1E0780
1FFF80
1FFF80
3FFFC0
3801C0
3801C0
7801E0
7000E0
F000F0
ENDCHAR
STARTCHAR 1EA9
ENCODING 7849
SWIDTH 600 0
DWIDTH 20 0
BBX 17 32 2 0
BITMAP
03C000
03E000
006000
006000
01C000
018000
000000
038000
07C000
0FE000
1C7000
383800
000400
000000
000000
1FF000
3FF800
783C00
701C00
701E00
001E00
001E00
07FE00
3FFE00
7C1E00
701E00
F01E00
F01E00
F03E00
787E00
7FEF80
3FCF80
ENDCHAR
STARTCHAR 1EAA
ENCODING 7850
SWIDTH 600 0
DWIDTH 20 0
BBX 20 34 0 0
BITMAP
07E300
0FFF00
0C7E00
000000
006000
00F000
03FC00
079E00
0E0700
000000
000000
00F000
01F800
01F800
01F800
03FC00
039C00
039C00
079E00
071E00
070E00
0F0E00
0E0F00
0E0700
0E0700
1E0780
1FFF80
1FFF80
3FFFC0
3801C0
3801C0
7801E0
7000E0
F000F0
ENDCHAR
STARTCHAR 1EAB
ENCODING 7851
SWIDTH 600 0
DWIDTH 20 0
BBX 17 30 2 0
BITMAP
040C00
1F9C00
3FF800
31F000
000000
038000
07C000
0FE000
1E7000
383800
000400
000000
000000
1FF000
3FF800
783C00
701C00
701E00
001E00
001E00
07FE00
3FFE00
7C1E00
701E00
F01E00
F01E00
F03E00
787E00
7FEF80
3FCF80
ENDCHAR
STARTCHAR 1EAC
ENCODING 7852
SWIDTH 600 0
DWIDTH 20 0
BBX 20 36 0 -6
BITMAP
00F000
01F800
039C00
071C00
0F0F00
000000
000000
00F000
01F800
01F800
01F800
03FC00
039C00
039C00
079E00
071E00
070E00
0F0E00
0E0F00
0E0700
0E0700
1E0780
1FFF80
1FFF80
3FFFC0
3801C0
3801C0
7801E0
7000E0
F000F0
000000
000000
000000
00F000
00F000
00F000
ENDCHAR
STARTCHAR 1EAD
ENCODING 7853
SWIDTH 600 0
DWIDTH 20 0
BBX 17 31 2 -6
BITMAP
03C000
07C000
0EE000
1C7000
1C3800
200000
000000
000000
1FF000
3FF800
783C00
701C00
701E00
001E00
001E00
07FE00
3FFE00
7C1E00
701E00
F01E00
F01E00
F03E00
787E00
7FEF80
3FCF80
000000
000000
000000
03C000
03C000
03C000
ENDCHAR
STARTCHAR 1EAE
ENCODING 7854
SWIDTH 600 0
DWIDTH 20 0
BBX 20 35 0 0
BITMAP
001E00
001C00
003800
007000
006000
0C8300
0E0700
079E00
03FC00
00F000
000000
000000
00F000
01F800
01F800
01F800
03FC00
039C00
039C00
079E00
071E00
070E00
0F0E00
0E0F00
0E0700
0E0700
1E0780
1FFF80
1FFF80
3FFFC0
3801C0
3801C0
7801E0
7000E0
F000F0
ENDCHAR
STARTCHAR 1EAF
ENCODING 7855
SWIDTH 600 0
DWIDTH 20 0
BBX 17 29 2 0
BITMAP
007000
00E000
01C000
018000
020000
301C00
383800
1FF000
07C000
000000
000000
000000
1FF000
3FF800
783C00
701C00
701E00
001E00
001E00
07FE00
3FFE00
7C1E00
701E00
F01E00
F01E00
F03E00
787E00
7FEF80
3FCF80
ENDCHAR
STARTCHAR 1EB0
ENCODING 7856
SWIDTH 600 0
DWIDTH 20 0
BBX 20 35 0 0
BITMAP
078000
038000
01C000
00E000
006000
0C1300
0E0700
079E00
03FC00
00F000
000000
000000
00F000
01F800
01F800
01F800
03FC00
039C00
039C00
079E00
071E00
070E00
0F0E00
0E0F00
0E0700
0E0700
1E0780
1FFF80
1FFF80
3FFFC0
3801C0
3801C0
7801E0
7000E0
F000F0
ENDCHAR
STARTCHAR 1EB1
ENCODING 7857
SWIDTH 600 0
DWIDTH 20 0
BBX 17 30 2 0
BITMAP
1C0000
0E0000
070000
030000
038000
300C00
301C00
3C7800
1FF000
038000
000000
000000
000000
1FF000
3FF800
783C00
701C00
701E00
001E00
001E00
07FE00
3FFE00
7C1E00
701E00
F01E00
F01E00
F03E00
787E00
7FEF80
3FCF80
ENDCHAR
STARTCHAR 1EB2
ENCODING 7858
SWIDTH 600 0
DWIDTH 20 0
BBX 20 36 0 0
BITMAP
00F000
00F800
001800
001800
007000
006000
0C0300
0E0700
079E00
03FC00
00F000
000000
000000
00F000
01F800
01F800
01F800
03FC00
039C00
039C00
079E00
071E00
070E00
0F0E00
0E0F00
0E0700
0E0700
1E0780
1FFF80
1FFF80
3FFFC0
3801C0
3801C0
7801E0
7000E0
F000F0
ENDCHAR
STARTCHAR 1EB3
ENCODING 7859
SWIDTH 600 0
DWIDTH 20 0
BBX 17 31 2 0
BITMAP
03C000
03C000
006000
006000
01C000
018000
300C00
301C00
3C7800
1FF000
038000
000000
000000
000000
1FF000
3FF800
783C00
701C00
701E00
001E00
001E00
07FE00
3FFE00
7C1E00
701E00
F01E00
F01E00
F03E00
787E00
7FEF80
3FCF80
ENDCHAR
STARTCHAR 1EB4
ENCODING 7860
SWIDTH 600 0
DWIDTH 20 0
BBX 20 34 0 0
BITMAP
07E700
0FFF00
0C3E00
000000
0C0300
0E0700
079E00
03FC00
00F000
000000
000000
00F000
01F800
01F800
01F800
03FC00
039C00
039C00
079E00
071E00
070E00
0F0E00
0E0F00
0E0700
0E0700
1E0780
1FFF80
1FFF80
3FFFC0
3801C0
3801C0
7801E0
7000E0
F000F0
ENDCHAR
STARTCHAR 1EB5
ENCODING 7861
SWIDTH 600 0
DWIDTH 20 0
BBX 17 29 2 0
BITMAP
1F9C00
3FF800
31F000
000000
300C00
301C00
3C7800
1FF000
038000
000000
000000
000000
1FF000
3FF800
783C00
701C00
701E00
001E00
001E00
07FE00
3FFE00
7C1E00
701E00
F01E00
F01E00
F03E00
787E00
7FEF80
3FCF80
ENDCHAR
STARTCHAR 1EB6
ENCODING 7862
SWIDTH 600 0
DWIDTH 20 0
BBX 20 35 0 -6
BITMAP
060600
079E00
03FC00
006000
000000
000000
00F000
01F800
01F800
01F800
03FC00
039C00
039C00
079E00
071E00
070E00
0F0E00
0E0F00
0E0700
0E0700
1E0780
1FFF80
1FFF80
3FFFC0
3801C0
3801C0
7801E0
7000E0
F000F0
000000
000000
000000
00F000
00F000
00F000
ENDCHAR
STARTCHAR 1EB7
ENCODING 7863
SWIDTH 600 0
DWIDTH 20 0
BBX 17 31 2 -6
BITMAP
301800
381800
383800
1FF000
0FE000
000000
000000
000000
1FF000
3FF800
783C00
701C00
701E00
001E00
001E00
07FE00
3FFE00
7C1E00
701E00
F01E00
F01E00
F03E00
787E00
7FEF80
3FCF80
000000
000000
000000
03C000
03C000
03C000
ENDCHAR
STARTCHAR 1EB8
ENCODING 7864
SWIDTH 600 0
DWIDTH 20 0
BBX 15 29 3 -6
BITMAP
FFFE
FFFE
FFFC
E000
E000
E000
E000
E000
E000
E000
FFF8
FFF8
FFF8
E000
E000
E000
E000
E000
E000
E000
FFFE
FFFE
FFFE
0000
0000
0000
03C0
03C0
03C0
ENDCHAR
STARTCHAR 1EB9
ENCODING 7865
SWIDTH 600 0
DWIDTH 20 0
BBX 16 23 2 -6
BITMAP
0FF0
1FF8
3C3C
781E
700E
F00E
F00F
FFFF
FFFF
F000
F000
F00F
700E
780E
3C3C
1FFC
0FF0
0000
0000
0000
03C0
03C0
03C0
ENDCHAR
STARTCHAR 1EBA
ENCODING 7866
SWIDTH 600 0
DWIDTH 20 0
BBX 15 32 3 0
BITMAP
0780
07E0
04E0
0060
00E0
01C0
0100
0000
0000
FFFE
FFFE
FFFC
E000
E000
E000
E000
E000
E000
E000
FFF8
FFF8
FFF8
E000
E000
E000
E000
E000
E000
E000
FFFE
FFFE
FFFE
ENDCHAR
STARTCHAR 1EBB
ENCODING 7867
SWIDTH 600 0
DWIDTH 20 0
BBX 16 26 2 0
BITMAP
03C0
03E0
0470
0070
0060
01E0
01C0
0000
0000
0FF0
1FF8
3C3C
781E
700E
F00E
F00F
FFFF
FFFF
F000
F000
F00F
700E
780E
3C3C
1FFC
0FF0
ENDCHAR
STARTCHAR 1EBC
ENCODING 7868
SWIDTH 600 0
DWIDTH 20 0
BBX 15 29 3 0
BITMAP
1F18
3FF8
31F0
0000
0000
0000
FFFE
FFFE
FFFC
E000
E000
E000
E000
E000
E000
E000
FFF8
FFF8
FFF8
E000
E000
E000
E000
E000
E000
E000
FFFE
FFFE
FFFE
ENDCHAR
STARTCHAR 1EBD
ENCODING 7869
SWIDTH 600 0
DWIDTH 20 0
BBX 16 24 2 0
BITMAP
1F0C
1FFC
31F8
3070
0000
0000
0000
0FF0
1FF8
3C3C
781E
700E
F00E
F00F
FFFF
FFFF
F000
F000
F00F
700E
780E
3C3C
1FFC
0FF0
ENDCHAR
STARTCHAR 1EBE
ENCODING 7870
SWIDTH 600 0
DWIDTH 20 0
BBX 15 35 3 0
BITMAP
0070
00E0
01C0
0180
0200
0380
07C0
0FE0
1C70
3838
0000
0000
FFFE
FFFE
FFFC
E000
E000
E000
E000
E000
E000
E000
FFF8
FFF8
FFF8
E000
E000
E000
E000
E000
E000
E000
FFFE
FFFE
FFFE
ENDCHAR
STARTCHAR 1EBF
ENCODING 7871
SWIDTH 600 0
DWIDTH 20 0
BBX 16 31 2 0
BITMAP
0038
0070
0070
00E0
01C0
0000
01C0
03E0
07F0
0E78
1C3C
2000
0000
0000
0FF0
1FF8
3C3C
781E
700E
F00E
F00F
FFFF
FFFF
F000
F000
F00F
700E
780E
3C3C
1FFC
0FF0
ENDCHAR
STARTCHAR 1EC0
ENCODING 7872
SWIDTH 600 0
DWIDTH 20 0
BBX 15 35 3 0
BITMAP
1C00
0E00
0700
0300
0080
0380
07C0
0FE0
1C70
3838
0000
0000
FFFE
FFFE
FFFC
E000
E000
E000
E000
E000
E000
E000
FFF8
FFF8
FFF8
E000
E000
E000
E000
E000
E000
E000
FFFE
FFFE
FFFE
ENDCHAR
STARTCHAR 1EC1
ENCODING 7873
SWIDTH 600 0
DWIDTH 20 0
BBX 16 31 2 0
BITMAP
1E00
0E00
0700
0300
0180
0000
01C0
03E0
07F0
0E78
1C1C
2000
0000
0000
0FF0
1FF8
3C3C
781E
700E
F00E
F00F
FFFF
FFFF
F000
F000
F00F
700E
780E
3C3C
1FFC
0FF0
ENDCHAR
STARTCHAR 1EC2
ENCODING 7874
SWIDTH 600 0
DWIDTH 20 0
BBX 15 37 3 0
BITMAP
0380
03C0
0060
0060
00C0
0180
0000
0380
07C0
0FE0
1C70
3838
0000
0000
FFFE
FFFE
FFFC
E000
E000
E000
E000
E000
E000
E000
FFF8
FFF8
FFF8
E000
E000
E000
E000
E000
E000
E000
FFFE
FFFE
FFFE
ENDCHAR
STARTCHAR 1EC3
ENCODING 7875
SWIDTH 600 0
DWIDTH 20 0
BBX 16 32 2 0
BITMAP
03C0
03E0
0020
0060
00E0
00C0
0000
01C0
03E0
07F0
0E78
1C1C
2000
0000
0000
0FF0
1FF8
3C3C
781E
700E
F00E
F00F
FFFF
FFFF
F000
F000
F00F
700E
780E
3C3C
1FFC
0FF0
ENDCHAR
STARTCHAR 1EC4
ENCODING 7876
SWIDTH 600 0
DWIDTH 20 0
BBX 15 34 3 0
BITMAP
1F1C
3FF8
71F0
0000
0380
07C0
0FE0
1C70
3838
0000
0000
FFFE
FFFE
FFFC
E000
E000
E000
E000
E000
E000
E000
FFF8
FFF8
FFF8
E000
E000
E000
E000
E000
E000
E000
FFFE
FFFE
FFFE
ENDCHAR
STARTCHAR 1EC5
ENCODING 7877
SWIDTH 600 0
DWIDTH 20 0
BBX 16 30 2 0
BITMAP
0404
1FCC
3FFC
30F8
0000
01C0
03E0
07F0
0E78
1C1C
2000
0000
0000
0FF0
1FF8
3C3C
781E
700E
F00E
F00F
FFFF
FFFF
F000
F000
F00F
700E
780E
3C3C
1FFC
0FF0
ENDCHAR
STARTCHAR 1EC6
ENCODING 7878
SWIDTH 600 0
DWIDTH 20 0
BBX 15 36 3 -6
BITMAP
0380
07C0
0EE0
1C70
3838
0000
0000
FFFE
FFFE
FFFC
E000
E000
E000
E000
E000
E000
E000
FFF8
FFF8
FFF8
E000
E000
E000
E000
E000
E000
E000
FFFE
FFFE
FFFE
0000
0000
0000
03C0
03C0
03C0
ENDCHAR
STARTCHAR 1EC7
ENCODING 7879
SWIDTH 600 0
DWIDTH 20 0
BBX 16 31 2 -6
BITMAP
03C0
07E0
0770
0E30
1C38
0004
0000
0000
0FF0
1FF8
3C3C
781E
700E
F00E
F00F
FFFF
FFFF
F000
F000
F00F
700E
780E
3C3C
1FFC
0FF0
0000
0000
0000
03C0
03C0
03C0
ENDCHAR
STARTCHAR 1EC8
ENCODING 7880
SWIDTH 600 0
DWIDTH 20 0
BBX 12 32 4 0
BITMAP
0F00
0F80
1380
01C0
0180
0780
0600
0000
0000
FFF0
FFF0
FFF0
0F00
0F00
0F00
0F00
0F00
0F00
0F00
0F00
0F00
0F00
0F00
0F00
0F00
0F00
0F00
0F00
0F00
FFF0
FFF0
FFF0
ENDCHAR
STARTCHAR 1EC9
ENCODING 7881
SWIDTH 600 0
DWIDTH 20 0
BBX 15 26 3 0
BITMAP
07C0
07E0
04E0
0060
0060
01C0
0180
0000
0000
FFC0
FFC0
FFC0
03C0
03C0
03C0
03C0
03C0
03C0
03C0
03C0
03C0
03C0
03C0
FFFE
FFFE
FFFE
ENDCHAR
STARTCHAR 1ECA
ENCODING 7882
SWIDTH 600 0
DWIDTH 20 0
BBX 12 29 4 -6
BITMAP
FFF0
FFF0
FFF0
0F00
0F00
0F00
0F00
0F00
0F00
0F00
0F00
0F00
0F00
0F00
0F00
0F00
0F00
0F00
0F00
0F00
FFF0
FFF0
FFF0
0000
0000
0000
0F00
0F00
0F00
ENDCHAR
STARTCHAR 1ECB
ENCODING 7883
SWIDTH 600 0
DWIDTH 20 0
BBX 15 30 3 -6
BITMAP
0380
0380
0380
0000
0000
0000
0000
FFC0
FFC0
FFC0
03C0
03C0
03C0
03C0
03C0
03C0
03C0
03C0
03C0
03C0
03C0
FFFE
FFFE
FFFE
0000
0000
0000
03C0
03C0
03C0
ENDCHAR
STARTCHAR 1ECC
ENCODING 7884
SWIDTH 600 0
DWIDTH 20 0
BBX 18 29 1 -6
BITMAP
07F800
1FFE00
3FFF00
3C0F00
780780
700380
700380
F003C0
F003C0
F003C0
F003C0
F003C0
F003C0
F003C0
F003C0
F003C0
F00380
700380
780780
3C0F00
3FFF00
1FFE00
07F800
000000
000000
000000
01E000
01E000
01E000
ENDCHAR
STARTCHAR 1ECD
ENCODING 7885
SWIDTH 600 0
DWIDTH 20 0
BBX 16 23 2 -6
BITMAP
0FF0
1FF8
3C3C
781E
700E
F00F
F00F
F00F
F00F
F00F
F00F
F00F
700E
781E
3C3C
1FF8
0FF0
0000
0000
0000
03C0
03C0
03C0
ENDCHAR
STARTCHAR 1ECE
ENCODING 7886
SWIDTH 600 0
DWIDTH 20 0
BBX 18 32 1 0
BITMAP
01E000
01F000
027000
003800
003000
00F000
00C000
000000
000000
07F800
1FFE00
3FFF00
3C0F00
780780
700380
700380
F003C0
F003C0
F003C0
F003C0
F003C0
F003C0
F003C0
F003C0
F003C0
F00380
700380
780780
3C0F00
3FFF00
1FFE00
07F800
ENDCHAR
STARTCHAR 1ECF
ENCODING 7887
SWIDTH 600 0
DWIDTH 20 0
BBX 16 26 2 0
BITMAP
07C0
07E0
0460
0060
0060
01E0
0180
0000
0000
0FF0
1FF8
3C3C
781E
700E
F00F
F00F
F00F
F00F
F00F
F00F
F00F
700E
781E
3C3C
1FF8
0FF0
ENDCHAR
STARTCHAR 1ED0
ENCODING 7888
SWIDTH 600 0
DWIDTH 20 0
BBX 18 35 1 0
BITMAP
003C00
003000
007000
00E000
000000
00C000
01F000
07F800
0F3C00
1C0E00
000000
000000
07F800
1FFE00
3FFF00
3C0F00
780780
700380
700380
F003C0
F003C0
F003C0
F003C0
F003C0
F003C0
F003C0
F003C0
F003C0
F00380
700380
780780
3C0F00
3FFF00
1FFE00
07F800
ENDCHAR
STARTCHAR 1ED1
ENCODING 7889
SWIDTH 600 0
DWIDTH 20 0
BBX 16 31 2 0
BITMAP
0038
0070
00E0
00C0
01C0
0000
0180
03C0
07E0
0E70
1C38
2004
0000
0000
0FF0
1FF8
3C3C
781E
700E
F00F
F00F
F00F
F00F
F00F
F00F
F00F
700E
781E
3C3C
1FF8
0FF0
ENDCHAR
STARTCHAR 1ED2
ENCODING 7890
SWIDTH 600 0
DWIDTH 20 0
BBX 18 35 1 0
BITMAP
0F0000
070000
038000
01C000
000000
00C000
01F000
07F800
0F3C00
1C0E00
000000
000000
07F800
1FFE00
3FFF00
3C0F00
780780
700380
700380
F003C0
F003C0
F003C0
F003C0
F003C0
F003C0
F003C0
F003C0
F003C0
F00380
700380
780780
3C0F00
3FFF00
1FFE00
07F800
ENDCHAR
STARTCHAR 1ED3
ENCODING 7891
SWIDTH 600 0
DWIDTH 20 0
BBX 16 31 2 0
BITMAP
1C00
0E00
0700
0300
0380
0000
0180
03C0
07E0
0E70
1C38
2004
0000
0000
0FF0
1FF8
3C3C
781E
700E
F00F
F00F
F00F
F00F
F00F
F00F
F00F
700E
781E
3C3C
1FF8
0FF0
ENDCHAR
STARTCHAR 1ED4
ENCODING 7892
SWIDTH 600 0
DWIDTH 20 0
BBX 18 37 1 0
BITMAP
01E000
01F000
003000
003000
007000
00E000
000000
00C000
01F000
07F800
0F3C00
1C0E00
000000
000000
07F800
1FFE00
3FFF00
3C0F00
780780
700380
700380
F003C0
F003C0
F003C0
F003C0
F003C0
F003C0
F003C0
F003C0
F003C0
F00380
700380
780780
3C0F00
3FFF00
1FFE00
07F800
ENDCHAR
STARTCHAR 1ED5
ENCODING 7893
SWIDTH 600 0
DWIDTH 20 0
BBX 16 32 2 0
BITMAP
03C0
03E0
0060
0060
01E0
0180
0000
0180
03C0
07E0
0E70
1C3C
2000
0000
0000
0FF0
1FF8
3C3C
781E
700E
F00F
F00F
F00F
F00F
F00F
F00F
F00F
700E
781E
3C3C
1FF8
0FF0
ENDCHAR
STARTCHAR 1ED6
ENCODING 7894
SWIDTH 600 0
DWIDTH 20 0
BBX 18 34 1 0
BITMAP
0FC600
1FFE00
18FC00
000000
00C000
01E000
07F800
0F3C00
1C0E00
000000
000000
07F800
1FFE00
3FFF00
3C0F00
780780
700380
700380
F003C0
F003C0
F003C0
F003C0
F003C0
F003C0
F003C0
F003C0
F003C0
F00380
700380
780780
3C0F00
3FFF00
1FFE00
07F800
ENDCHAR
STARTCHAR 1ED7
ENCODING 7895
SWIDTH 600 0
DWIDTH 20 0
BBX 16 30 2 0
BITMAP
040C
1F9C
3FF8
30F8
0000
0180
03C0
07E0
0E70
1C38
2004
0000
0000
0FF0
1FF8
3C3C
781E
700E
F00F
F00F
F00F
F00F
F00F
F00F
F00F
700E
781E
3C3C
1FF8
0FF0
ENDCHAR
STARTCHAR 1ED8
ENCODING 7896
SWIDTH 600 0
DWIDTH 20 0
BBX 18 36 1 -6
BITMAP
01E000
03F000
073800
0E3800
1E1E00
000000
000000
07F800
1FFE00
3FFF00
3C0F00
780780
700380
700380
F003C0
F003C0
F003C0
F003C0
F003C0
F003C0
F003C0
F003C0
F003C0
F00380
700380
780780
3C0F00
3FFF00
1FFE00
07F800
000000
000000
000000
01E000
01E000
01E000
ENDCHAR
STARTCHAR 1ED9
ENCODING 7897
SWIDTH 600 0
DWIDTH 20 0
BBX 16 31 2 -6
BITMAP
03C0
07E0
0E60
0E70
1C38
2004
0000
0000
0FF0
1FF8
3C3C
781E
700E
F00F
F00F
F00F
F00F
F00F
F00F
F00F
700E
781E
3C3C
1FF8
0FF0
0000
0000
0000
03C0
03C0
03C0
ENDCHAR
STARTCHAR 1EDA
ENCODING 7898
SWIDTH 600 0
DWIDTH 20 0
BBX 19 30 1 0
BITMAP
001C00
003800
007000
0060E0
00E0E0
0000E0
0001C0
07F9C0
1FFF80
3FFF00
3C0F00
780780
700380
700380
F003C0
F003C0
F003C0
F003C0
F003C0
F003C0
F003C0
F003C0
F003C0
F00380
700380
780780
3C0F00
3FFF00
1FFE00
07F800
ENDCHAR
STARTCHAR 1EDB
ENCODING 7899
SWIDTH 600 0
DWIDTH 20 0
BBX 18 25 2 0
BITMAP
00F000
00E000
01C000
01C000
0181C0
0201C0
0001C0
0003C0
0FF780
1FFF00
3C3C00
781E00
700E00
F00F00
F00F00
F00F00
F00F00
F00F00
F00F00
F00F00
700E00
781E00
3C3C00
1FF800
0FF000
ENDCHAR
STARTCHAR 1EDC
ENCODING 7900
SWIDTH 600 0
DWIDTH 20 0
BBX 19 30 1 0
BITMAP
0E0000
070000
038000
01C0E0
00E0E0
0000E0
0001C0
07F9C0
1FFF80
3FFF00
3C0F00
780780
700380
700380
F003C0
F003C0
F003C0
F003C0
F003C0
F003C0
F003C0
F003C0
F003C0
F00380
700380
780780
3C0F00
3FFF00
1FFE00
07F800
ENDCHAR
STARTCHAR 1EDD
ENCODING 7901
SWIDTH 600 0
DWIDTH 20 0
BBX 18 25 2 0
BITMAP
0E0000
070000
070000
038000
0181C0
0041C0
0001C0
0003C0
0FF780
1FFF00
3C3C00
781E00
700E00
F00F00
F00F00
F00F00
F00F00
F00F00
F00F00
F00F00
700E00
781E00
3C3C00
1FF800
0FF000
ENDCHAR
STARTCHAR 1EDE
ENCODING 7902
SWIDTH 600 0
DWIDTH 20 0
BBX 19 32 1 0
BITMAP
01E000
01F000
027000
003800
003000
00F0E0
00C0E0
0000E0
0001C0
07F9C0
1FFF80
3FFF00
3C0F00
780780
700380
700380
F003C0
F003C0
F003C0
F003C0
F003C0
F003C0
F003C0
F003C0
F003C0
F00380
700380
780780
3C0F00
3FFF00
1FFE00
07F800
ENDCHAR
STARTCHAR 1EDF
ENCODING 7903
SWIDTH 600 0
DWIDTH 20 0
BBX 18 26 2 0
BITMAP
07C000
07E000
046000
006000
006000
01E1C0
0181C0
0001C0
0003C0
0FF780
1FFF00
3C3C00
781E00
700E00
F00F00
F00F00
F00F00
F00F00
F00F00
F00F00
F00F00
700E00
781E00
3C3C00
1FF800
0FF000
ENDCHAR
STARTCHAR 1EE0
ENCODING 7904
SWIDTH 600 0
DWIDTH 20 0
BBX 19 29 1 0
BITMAP
07CC00
0FFC00
0CF800
0000E0
0000E0
0001C0
07F9C0
1FFF80
3FFF00
3C0F00
780780
700380
700380
F003C0
F003C0
F003C0
F003C0
F003C0
F003C0
F003C0
F003C0
F003C0
F00380
700380
780780
3C0F00
3FFF00
1FFE00
07F800
ENDCHAR
STARTCHAR 1EE1
ENCODING 7905
SWIDTH 600 0
DWIDTH 20 0
BBX 18 24 2 0
BITMAP
0F0800
1FF800
19F800
1071C0
0001C0
0001C0
0001C0
0FF380
1FFF00
3C3E00
781E00
700E00
F00F00
F00F00
F00F00
F00F00
F00F00
F00F00
F00F00
700E00
781E00
3C3C00
1FF800
0FF000
ENDCHAR
STARTCHAR 1EE2
ENCODING 7906
SWIDTH 600 0
DWIDTH 20 0
BBX 19 33 1 -6
BITMAP
0000E0
0000E0
0000E0
0001C0
07F9C0
1FFF80
3FFF00
3C0F00
780780
700380
700380
F003C0
F003C0
F003C0
F003C0
F003C0
F003C0
F003C0
F003C0
F003C0
F00380
700380
780780
3C0F00
3FFF00
1FFE00
07F800
000000
000000
000000
01E000
01E000
01E000
ENDCHAR
STARTCHAR 1EE3
ENCODING 7907
SWIDTH 600 0
DWIDTH 20 0
BBX 18 27 2 -6
BITMAP
0001C0
0001C0
0001C0
0003C0
0FF780
1FFF00
3C3C00
781E00
700E00
F00F00
F00F00
F00F00
F00F00
F00F00
F00F00
F00F00
700E00
781E00
3C3C00
1FF800
0FF000
000000
000000
000000
03C000
03C000
03C000
ENDCHAR
STARTCHAR 1EE4
ENCODING 7908
SWIDTH 600 0
DWIDTH 20 0
BBX 16 29 2 -6
BITMAP
F00F
F00F
F00F
F00F
F00F
F00F
F00F
F00F
F00F
F00F
F00F
F00F
F00F
F00F
F00F
F00F
F00F
F00F
F00E
781E
7FFE
3FFC
0FF0
0000
0000
0000
03C0
03C0
03C0
ENDCHAR
STARTCHAR 1EE5
ENCODING 7909
SWIDTH 600 0
DWIDTH 20 0
BBX 17 23 2 -6
BITMAP
F00E00
F00E00
F00E00
F00E00
F00E00
F00E00
F00E00
F00E00
F00E00
F00E00
F00E00
F01E00
701E00
783E00
7C7E00
3FEF80
1FCF80
000000
000000
000000
03C000
03C000
03C000
ENDCHAR
STARTCHAR 1EE6
ENCODING 7910
SWIDTH 600 0
DWIDTH 20 0
BBX 16 32 2 0
BITMAP
03C0
03E0
04E0
0070
0060
01E0
0180
0000
0000
F00F
F00F
F00F
F00F
F00F
F00F
F00F
F00F
F00F
F00F
F00F
F00F
F00F
F00F
F00F
F00F
F00F
F00F
F00E
781E
7FFE
3FFC
0FF0
ENDCHAR
STARTCHAR 1EE7
ENCODING 7911
SWIDTH 600 0
DWIDTH 20 0
BBX 17 26 2 0
BITMAP
07C000
07E000
04E000
006000
006000
01C000
018000
000000
000000
F00E00
F00E00
F00E00
F00E00
F00E00
F00E00
F00E00
F00E00
F00E00
F00E00
F00E00
F01E00
701E00
783E00
7C7E00
3FEF80
1FCF80
ENDCHAR
STARTCHAR 1EE8
ENCODING 7912
SWIDTH 600 0
DWIDTH 20 0
BBX 19 30 2 0
BITMAP
003800
007000
00E0E0
00C0E0
01C0E0
0001C0
0001C0
F00F80
F00F00
F00F00
F00F00
F00F00
F00F00
F00F00
F00F00
F00F00
F00F00
F00F00
F00F00
F00F00
F00F00
F00F00
F00F00
F00F00
F00F00
F00E00
781E00
7FFE00
3FFC00
0FF000
ENDCHAR
STARTCHAR 1EE9
ENCODING 7913
SWIDTH 600 0
DWIDTH 20 0
BBX 19 25 2 0
BITMAP
00F000
00E000
01C000
0180E0
0381C0
0001C0
0001C0
000380
F00F00
F00E00
F00E00
F00E00
F00E00
F00E00
F00E00
F00E00
F00E00
F00E00
F00E00
F01E00
701E00
783E00
7C7E00
3FEF80
1FCF80
ENDCHAR
STARTCHAR 1EEA
ENCODING 7914
SWIDTH 600 0
DWIDTH 20 0
BBX 19 30 2 0
BITMAP
1C0000
0E0000
0700E0
0380E0
01C0E0
0001C0
0001C0
F00F80
F00F00
F00F00
F00F00
F00F00
F00F00
F00F00
F00F00
F00F00
F00F00
F00F00
F00F00
F00F00
F00F00
F00F00
F00F00
F00F00
F00F00
F00E00
781E00
7FFE00
3FFC00
0FF000
ENDCHAR
STARTCHAR 1EEB
ENCODING 7915
SWIDTH 600 0
DWIDTH 20 0
BBX 19 25 2 0
BITMAP
0E0000
070000
070000
0300E0
0381C0
0001C0
0001C0
000380
F00F00
F00E00
F00E00
F00E00
F00E00
F00E00
F00E00
F00E00
F00E00
F00E00
F00E00
F01E00
701E00
783E00
7C7E00
3FEF80
1FCF80
ENDCHAR
STARTCHAR 1EEC
ENCODING 7916
SWIDTH 600 0
DWIDTH 20 0
BBX 19 32 2 0
BITMAP
03C000
03E000
04E000
007000
0060E0
01E0E0
0180E0
0001C0
0001C0
F00F80
F00F00
F00F00
F00F00
F00F00
F00F00
F00F00
F00F00
F00F00
F00F00
F00F00
F00F00
F00F00
F00F00
F00F00
F00F00
F00F00
F00F00
F00E00
781E00
7FFE00
3FFC00
0FF000
ENDCHAR
STARTCHAR 1EED
ENCODING 7917
SWIDTH 600 0
DWIDTH 20 0
BBX 19 26 2 0
BITMAP
07C000
07E000
04E000
006000
0060E0
01C1C0
0181C0
0001C0
000380
F00F00
F00E00
F00E00
F00E00
F00E00
F00E00
F00E00
F00E00
F00E00
F00E00
F00E00
F01E00
701E00
783E00
7C7E00
3FEF80
1FCF80
ENDCHAR
STARTCHAR 1EEE
ENCODING 7918
SWIDTH 600 0
DWIDTH 20 0
BBX 19 29 2 0
BITMAP
1F8C00
1FF8E0
31F8E0
0000E0
0001C0
0001C0
F00F80
F00F00
F00F00
F00F00
F00F00
F00F00
F00F00
F00F00
F00F00
F00F00
F00F00
F00F00
F00F00
F00F00
F00F00
F00F00
F00F00
F00F00
F00E00
781E00
7FFE00
3FFC00
0FF000
ENDCHAR
STARTCHAR 1EEF
ENCODING 7919
SWIDTH 600 0
DWIDTH 20 0
BBX 19 24 2 0
BITMAP
1F1800
1FF800
31F0E0
3061C0
0001C0
0001C0
000380
F00F00
F00E00
F00E00
F00E00
F00E00
F00E00
F00E00
F00E00
F00E00
F00E00
F00E00
F01E00
701E00
783E00
7C7E00
3FEF80
1FCF80
ENDCHAR
STARTCHAR 1EF0
ENCODING 7920
SWIDTH 600 0
DWIDTH 20 0
BBX 19 34 2 -6
BITMAP
0000E0
0000E0
0000E0
0001C0
0001C0
F00F80
F00F00
F00F00
F00F00
F00F00
F00F00
F00F00
F00F00
F00F00
F00F00
F00F00
F00F00
F00F00
F00F00
F00F00
F00F00
F00F00
F00F00
F00E00
781E00
7FFE00
3FFC00
0FF000
000000
000000
000000
03C000
03C000
03C000
ENDCHAR
STARTCHAR 1EF1
ENCODING 7921
SWIDTH 600 0
DWIDTH 20 0
BBX 19 28 2 -6
BITMAP
0000E0
0001C0
0001C0
0001C0
000380
F00F00
F00E00
F00E00
F00E00
F00E00
F00E00
F00E00
F00E00
F00E00
F00E00
F00E00
F01E00
701E00
783E00
7C7E00
3FEF80
1FCF80
000000
000000
000000
03C000
03C000
03C000
ENDCHAR
STARTCHAR 1EF2
ENCODING 7922
SWIDTH 600 0
DWIDTH 20 0
BBX 18 30 1 0
BITMAP
0E0000
070000
038000
01C000
00E000
000000
000000
F001C0
F003C0
780380
780780
3C0700
3C0F00
1E1E00
0E1E00
0F3C00
073800
07F800
03F000
03F000
01E000
01E000
01E000
01E000
01E000
01E000
01E000
01E000
01E000
01E000
ENDCHAR
STARTCHAR 1EF3
ENCODING 7923
SWIDTH 600 0
DWIDTH 20 0
BBX 16 31 2 -6
BITMAP
0F00
0700
0380
0380
01C0
0000
0000
0000
F007
F00F
700E
780E
381C
381C
3C1C
1C38
1E38
0E70
0E70
0F70
07E0
07E0
03E0
03C0
03C0
0380
0380
0700
4F00
7E00
7C00
ENDCHAR
STARTCHAR 1EF4
ENCODING 7924
SWIDTH 600 0
DWIDTH 20 0
BBX 18 29 1 -6
BITMAP
F001C0
F003C0
780380
780780
3C0700
3C0F00
1E1E00
0E1E00
0F3C00
073800
07F800
03F000
03F000
01E000
01E000
01E000
01E000
01E000
01E000
01E000
01E000
01E000
01E000
000000
000000
000000
01E000
01E000
01E000
ENDCHAR
STARTCHAR 1EF5
ENCODING 7925
SWIDTH 600 0
DWIDTH 20 0
BBX 16 23 2 -6
BITMAP
F007
F00F
700E
780E
381C
381C
3C1C
1C38
1E38
0E70
0E70
0F70
07E0
07E0
03E0
03C0
03C0
0380
0380
0700
4F0F
7E0F
7C0F
ENDCHAR
STARTCHAR 1EF6
ENCODING 7926
SWIDTH 600 0
DWIDTH 20 0
BBX 18 32 1 0
BITMAP
01E000
01F000
027000
003800
003000
00F000
00C000
000000
000000
F001C0
F003C0
780380
780780
3C0700
3C0F00
1E1E00
0E1E00
0F3C00
073800
07F800
03F000
03F000
01E000
01E000
01E000
01E000
01E000
01E000
01E000
01E000
01E000
01E000
ENDCHAR
STARTCHAR 1EF7
ENCODING 7927
SWIDTH 600 0
DWIDTH 20 0
BBX 16 32 2 -6
BITMAP
03C0
03E0
0470
0030
0070
01E0
01C0
0000
0000
F007
F00F
700E
780E
381C
381C
3C1C
1C38
1E38
0E70
0E70
0F70
07E0
07E0
03E0
03C0
03C0
0380
0380
0700
4F00
7E00
7C00
ENDCHAR
STARTCHAR 1EF8
ENCODING 7928
SWIDTH 600 0
DWIDTH 20 0
BBX 18 29 1 0
BITMAP
0FC600
0FFC00
18FC00
000000
000000
000000
F001C0
F003C0
780380
780780
3C0700
3C0F00
1E1E00
0E1E00
0F3C00
073800
07F800
03F000
03F000
01E000
01E000
01E000
01E000
01E000
01E000
01E000
01E000
01E000
01E000
ENDCHAR
STARTCHAR 1EF9
ENCODING 7929
SWIDTH 600 0
DWIDTH 20 0
BBX 16 30 2 -6
BITMAP
0F8C
1FFC
39F8
3070
0000
0000
0000
F007
F00F
700E
780E
381C
381C
3C1C
1C38
1E38
0E70
0E70
0F70
07E0
07E0
03E0
03C0
03C0
0380
0380
0700
4F00
7E00
7C00
ENDCHAR
STARTCHAR 2009
ENCODING 8201
SWIDTH 600 0
DWIDTH 20 0
BBX 0 0 0 0
BITMAP
ENDCHAR
STARTCHAR 2010
ENCODING 8208
SWIDTH 600 0
DWIDTH 20 0
BBX 8 4 6 7
BITMAP
FF
FF
FF
FF
ENDCHAR
STARTCHAR 2011
ENCODING 8209
SWIDTH 600 0
DWIDTH 20 0
BBX 8 4 6 7
BITMAP
FF
FF
FF
FF
ENDCHAR
STARTCHAR 2013
ENCODING 8211
SWIDTH 600 0
DWIDTH 20 0
BBX 14 4 3 7
BITMAP
FFFC
FFFC
FFFC
FFFC
ENDCHAR
STARTCHAR 2014
ENCODING 8212
SWIDTH 600 0
DWIDTH 20 0
BBX 20 4 0 7
BITMAP
FFFFF0
FFFFF0
FFFFF0
FFFFF0
ENDCHAR
STARTCHAR 2018
ENCODING 8216
SWIDTH 600 0
DWIDTH 20 0
BBX 4 10 8 13
BITMAP
30
60
60
C0
C0
F0
F0
F0
F0
F0
ENDCHAR
STARTCHAR 2019
ENCODING 8217
SWIDTH 600 0
DWIDTH 20 0
BBX 4 10 8 14
BITMAP
F0
F0
F0
F0
F0
30
30
60
60
C0
ENDCHAR
STARTCHAR 201A
ENCODING 8218
SWIDTH 600 0
DWIDTH 20 0
BBX 4 10 8 -5
BITMAP
F0
F0
F0
F0
F0
30
30
60
60
C0
ENDCHAR
STARTCHAR 201C
ENCODING 8220
SWIDTH 600 0
DWIDTH 20 0
BBX 10 10 5 13
BITMAP
30C0
61C0
E180
C180
C300
F3C0
F3C0
F3C0
F3C0
F3C0
ENDCHAR
STARTCHAR 201D
ENCODING 8221
SWIDTH 600 0
DWIDTH 20 0
BBX 10 10 5 14
BITMAP
F3C0
F3C0
F3C0
F3C0
F3C0
30C0
60C0
61C0
E180
C300
ENDCHAR
STARTCHAR 201E
ENCODING 8222
SWIDTH 600 0
DWIDTH 20 0
BBX 10 10 5 -5
BITMAP
F3C0
F3C0
F3C0
F3C0
F3C0
30C0
60C0
61C0
E180
C300
ENDCHAR
STARTCHAR 2020
ENCODING 8224
SWIDTH 600 0
DWIDTH 20 0
BBX 16 29 2 -6
BITMAP
03C0
0180
0180
0180
0180
0180
FFBF
FFFF
FDBF
0180
0180
0180
0180
0180
0180
0180
0180
0180
0180
0180
0180
0180
0180
0180
0180
0180
0180
0180
03C0
ENDCHAR
STARTCHAR 2021
ENCODING 8225
SWIDTH 600 0
DWIDTH 20 0
BBX 16 29 2 -6
BITMAP
03C0
0180
0180
0180
0180
0180
FFBF
FFFF
FDBF
0180
0180
0180
0180
0180
03C0
0180
0180
0180
0180
0180
FFFF
FFFF
FDBF
0180
0180
0180
0180
0180
03C0
ENDCHAR
STARTCHAR 2022
ENCODING 8226
SWIDTH 600 0
DWIDTH 20 0
BBX 10 11 5 6
BITMAP
0800
3F00
7F80
FFC0
FFC0
FFC0
FFC0
FFC0
7F80
3F00
0800
ENDCHAR
STARTCHAR 2026
ENCODING 8230
SWIDTH 600 0
DWIDTH 20 0
BBX 16 4 2 0
BITMAP
E3C7
E3C7
E3C7
E3C7
ENDCHAR
STARTCHAR 2030
ENCODING 8240
SWIDTH 600 0
DWIDTH 20 0
BBX 18 23 1 0
BITMAP
1C0000
7F0000
630000
E38000
C38000
C38000
C38000
630000
7F0000
3E0000
000000
FFFFC0
000000
3E1F00
7F3F80
633180
E3F1C0
C3F1C0
C3F1C0
C3F1C0
633180
7F3F80
3E1F00
ENDCHAR
STARTCHAR 2032
ENCODING 8242
SWIDTH 600 0
DWIDTH 20 0
BBX 4 6 8 17
BITMAP
70
70
E0
E0
E0
C0
ENDCHAR
STARTCHAR 2033
ENCODING 8243
SWIDTH 600 0
DWIDTH 20 0
BBX 10 6 5 17
BITMAP
7BC0
7380
7380
6380
E700
E700
ENDCHAR
STARTCHAR 2039
ENCODING 8249
SWIDTH 600 0
DWIDTH 20 0
BBX 6 12 7 5
BITMAP
1C
18
38
70
70
E0
F0
70
38
38
1C
0C
ENDCHAR
STARTCHAR 203A
ENCODING 8250
SWIDTH 600 0
DWIDTH 20 0
BBX 6 12 7 5
BITMAP
E0
60
70
38
38
1C
3C
38
70
70
E0
C0
ENDCHAR
STARTCHAR 2044
ENCODING 8260
SWIDTH 600 0
DWIDTH 20 0
BBX 20 23 0 0
BITMAP
000070
000060
0000C0
000180
000380
000300
000600
000C00
001800
000000
000000
000000
000000
000000
018000
030000
060000
0E0000
0C0000
180000
300000
700000
E00000
ENDCHAR
STARTCHAR 2052
ENCODING 8274
SWIDTH 600 0
DWIDTH 20 0
BBX 18 29 1 -5
BITMAP
0000C0
0001C0
000380
3C0380
3C0700
3C0700
3C0E00
000C00
001C00
001800
003800
007000
007000
00E000
00E000
01C000
018000
038000
070000
070000
0E0000
0E0000
1C0000
180F00
380F00
300F00
700F00
E00000
E00000
ENDCHAR
STARTCHAR 2070
ENCODING 8304
SWIDTH 600 0
DWIDTH 20 0
BBX 8 13 6 14
BITMAP
3C
7E
E3
C3
C3
C3
C3
C3
C3
C3
C3
FF
7E
ENDCHAR
STARTCHAR 2074
ENCODING 8308
SWIDTH 600 0
DWIDTH 20 0
BBX 9 13 5 14
BITMAP
1C00
1800
1B00
3300
3300
6700
6700
C700
FF80
FF80
0700
0700
0700
ENDCHAR
STARTCHAR 2075
ENCODING 8309
SWIDTH 600 0
DWIDTH 20 0
BBX 9 13 5 14
BITMAP
7F80
7F80
6000
6000
6000
7F00
7380
2180
0180
C180
E180
7F80
3E00
ENDCHAR
STARTCHAR 2076
ENCODING 8310
SWIDTH 600 0
DWIDTH 20 0
BBX 9 13 5 14
BITMAP
1C00
7F00
6380
E180
C000
DE00
FF00
E180
C180
C180
E180
7F00
3E00
ENDCHAR
STARTCHAR 2077
ENCODING 8311
SWIDTH 600 0
DWIDTH 20 0
BBX 8 12 6 14
BITMAP
FF
FF
06
0C
0C
18
18
30
30
30
30
70
ENDCHAR
STARTCHAR 2078
ENCODING 8312
SWIDTH 600 0
DWIDTH 20 0
BBX 10 13 5 14
BITMAP
0E00
3F00
6180
6180
6180
7380
3F00
7F80
6180
E0C0
61C0
7B80
3F00
ENDCHAR
STARTCHAR 2079
ENCODING 8313
SWIDTH 600 0
DWIDTH 20 0
BBX 9 13 5 14
BITMAP
1C00
7F00
E380
C180
C180
C180
6380
7F80
0180
C180
C180
7700
3E00
ENDCHAR
STARTCHAR 207F
ENCODING 8319
SWIDTH 600 0
DWIDTH 20 0
BBX 9 10 6 13
BITMAP
9E00
FF00
C380
C380
C380
C380
C380
C380
C380
C380
ENDCHAR
STARTCHAR 2080
ENCODING 8320
SWIDTH 600 0
DWIDTH 20 0
BBX 8 13 6 -6
BITMAP
3C
7E
E3
C3
C3
C3
C3
C3
C3
C3
C3
FF
7E
ENDCHAR
STARTCHAR 2081
ENCODING 8321
SWIDTH 600 0
DWIDTH 20 0
BBX 8 13 6 -6
BITMAP
08
F8
F8
18
18
18
18
18
18
18
18
FF
FF
ENDCHAR
STARTCHAR 2082
ENCODING 8322
SWIDTH 600 0
DWIDTH 20 0
BBX 9 13 5 -6
BITMAP
1E00
3F00
6380
6180
6180
0180
0380
0F00
1C00
3800
6000
7F80
FF80
ENDCHAR
STARTCHAR 2083
ENCODING 8323
SWIDTH 600 0
DWIDTH 20 0
BBX 9 13 5 -6
BITMAP
1E00
3F00
6380
6180
0180
0380
1E00
0780
0180
C180
E180
7F80
3F00
ENDCHAR
STARTCHAR 2084
ENCODING 8324
SWIDTH 600 0
DWIDTH 20 0
BBX 9 13 5 -6
BITMAP
1C00
1800
1B00
3300
3300
6700
6700
C700
FF80
FF80
0700
0700
0700
ENDCHAR
STARTCHAR 2085
ENCODING 8325
SWIDTH 600 0
DWIDTH 20 0
BBX 9 13 5 -6
BITMAP
7F80
7F80
6000
6000
6000
7F00
7380
2180
0180
C180
E180
7F80
3E00
ENDCHAR
STARTCHAR 2086
ENCODING 8326
SWIDTH 600 0
DWIDTH 20 0
BBX 9 13 5 -6
BITMAP
1C00
7F00
6380
E180
C000
DE00
FF00
E180
C180
C180
E180
7F00
3E00
ENDCHAR
STARTCHAR 2087
ENCODING 8327
SWIDTH 600 0
DWIDTH 20 0
BBX 8 12 6 -6
BITMAP
FF
FF
06
0C
0C
18
18
30
30
30
30
70
ENDCHAR
STARTCHAR 2088
ENCODING 8328
SWIDTH 600 0
DWIDTH 20 0
BBX 10 13 5 -6
BITMAP
0E00
3F00
6180
6180
6180
7380
3F00
7F80
6180
E0C0
61C0
7B80
3F00
ENDCHAR
STARTCHAR 2089
ENCODING 8329
SWIDTH 600 0
DWIDTH 20 0
BBX 9 13 5 -6
BITMAP
1C00
7F00
E380
C180
C180
C180
6380
7F80
0180
C180
C180
7700
3E00
ENDCHAR
STARTCHAR 2099
ENCODING 8345
SWIDTH 600 0
DWIDTH 20 0
BBX 9 10 6 -4
BITMAP
9E00
FF00
C380
C380
C380
C380
C380
C380
C380
C380
ENDCHAR
STARTCHAR 20A1
ENCODING 8353
SWIDTH 600 0
DWIDTH 20 0
BBX 18 28 1 -2
BITMAP
001080
0018C0
001980
00FF80
03FF80
0FFF00
1FE300
3E6700
3C6600
78C600
78CC00
71CC00
718C00
F19800
F31800
F33800
733000
763000
7E7000
7E6000
3C6000
3EC000
1FC000
1FFC00
1FFC00
31FC00
338000
330000
ENDCHAR
STARTCHAR 20A3
ENCODING 8355
SWIDTH 600 0
DWIDTH 20 0
BBX 16 23 1 0
BITMAP
3FFF
3FFF
3FFF
3800
3800
3800
3800
3800
3800
3800
3FFE
3FFE
3FFE
3800
3800
3800
FFE0
FFE0
FFE0
3800
3800
3800
3800
ENDCHAR
STARTCHAR 20A4
ENCODING 8356
SWIDTH 600 0
DWIDTH 20 0
BBX 18 23 1 0
BITMAP
01FC00
07FF00
0FDF80
0F0780
0E0380
1E03C0
1E03C0
1E0000
1E0000
FFF800
FFF800
1E0000
1E0000
1E0000
FFF800
FFF800
1E0000
1E0000
1E0000
1C0000
FFFF80
FFFF80
FFFF80
ENDCHAR
STARTCHAR 20A6
ENCODING 8358
SWIDTH 600 0
DWIDTH 20 0
BBX 20 23 0 0
BITMAP
3C03C0
3E03C0
3E03C0
3F03C0
3F03C0
3F83C0
3F83C0
3FC3C0
FFFFF0
FFFFF0
3CE3C0
3CF3C0
3C73C0
3C7BC0
FFFFF0
FFFFF0
3C1FC0
3C1FC0
3C0FC0
3C0FC0
3C07C0
3C07C0
3C03C0
ENDCHAR
STARTCHAR 20A7
ENCODING 8359
SWIDTH 600 0
DWIDTH 20 0
BBX 20 23 1 0
BITMAP
7FFC00
7FFE00
7FFF00
780780
7803C0
7803C0
FFFFF0
FFFFF0
7803C0
7803C0
780780
7FFF00
7FFE00
7FF800
780000
780000
780000
780000
780000
780000
780000
780000
780000
ENDCHAR
STARTCHAR 20A9
ENCODING 8361
SWIDTH 600 0
DWIDTH 20 0
BBX 20 23 0 0
BITMAP
E07070
E0F070
F0F070
70F060
70F0E0
70F8E0
70F8E0
FFFFF0
FFFFF0
FFFFF0
3998C0
3999C0
399DC0
399DC0
FFFFF0
FFFFF0
1F0D80
1F0F80
1F0F80
1F0F80
1F0F80
1F0F80
1E0780
ENDCHAR
STARTCHAR 20AB
ENCODING 8363
SWIDTH 600 0
DWIDTH 20 0
BBX 17 29 2 -5
BITMAP
000E00
000E00
03FF80
03FF80
03FF80
000E00
000E00
1FCE00
3FEE00
7C7E00
701E00
F01E00
E01E00
E00E00
E00E00
E00E00
E00E00
E00E00
E01E00
F01E00
701E00
7C7E00
3FEE00
1FCE00
000000
000000
000000
FFFE00
FFFE00
ENDCHAR
STARTCHAR 20AC
ENCODING 8364
SWIDTH 600 0
DWIDTH 20 0
BBX 17 23 1 0
BITMAP
003F80
00FF80
03FF80
03E000
078000
0F0000
0F0000
1E0000
FFF800
FFF800
1C0000
1C0000
1C0000
FFF800
FFF800
1E0000
0E0000
0F0000
078000
07C000
03FF80
00FF80
007F80
ENDCHAR
STARTCHAR 20AD
ENCODING 8365
SWIDTH 600 0
DWIDTH 20 0
BBX 19 23 1 0
BITMAP
7803C0
780380
780780
780F00
781E00
781C00
783C00
787800
787000
78F000
FFFFC0
FFFFC0
78E000
78F000
787800
783800
783C00
781E00
781E00
780F00
780780
7807C0
7803E0
ENDCHAR
STARTCHAR 20B1
ENCODING 8369
SWIDTH 600 0
DWIDTH 20 0
BBX 21 23 0 0
BITMAP
3FFE00
3FFF00
3FFF80
3C03C0
FC01F8
FC01F8
3C01E0
3C01E0
FC01F8
FC01F8
3C03C0
3FFF80
3FFF00
3FFC00
3C0000
3C0000
3C0000
3C0000
3C0000
3C0000
3C0000
3C0000
3C0000
ENDCHAR
STARTCHAR 20B2
ENCODING 8370
SWIDTH 600 0
DWIDTH 20 0
BBX 18 27 1 -2
BITMAP
00C000
00C000
07F800
1FFE00
3FFF00
3CCF00
78C780
70C380
70C380
F0C380
F0C000
F0C000
F0C000
F0FF80
F0FF80
F0FF80
F0C380
F0C380
F0C380
70C380
78C780
7CC780
3FFF80
1FFDC0
07F0C0
00C000
00C000
ENDCHAR
STARTCHAR 20B5
ENCODING 8373
SWIDTH 600 0
DWIDTH 20 0
BBX 17 28 1 -2
BITMAP
000800
000C00
001C00
07F800
1FFE00
3FFF00
3C3F00
783780
703380
706380
F06380
F06380
F0C000
F0C000
F0C000
F1C000
F18000
F18380
F18380
F30380
730380
7B0780
3E0700
3FFF00
1FFE00
0FF800
0C0000
0C0000
ENDCHAR
STARTCHAR 20B9
ENCODING 8377
SWIDTH 600 0
DWIDTH 20 0
BBX 18 23 2 0
BITMAP
FFFFC0
FFFFC0
FFFF80
00F000
007800
FFFF80
FFFF80
FFFF00
007800
007800
00F000
FFF000
FFC000
F00000
780000
3C0000
1E0000
0F0000
078000
03C000
03E000
01F000
00F800
ENDCHAR
STARTCHAR 20BA
ENCODING 8378
SWIDTH 600 0
DWIDTH 20 0
BBX 17 23 1 0
BITMAP
1C0000
1C0000
1C0000
1C0000
1C2000
1CE000
1DE000
1FC000
1F0000
7C2000
FC6000
FDE000
9FC000
1F0000
3E0000
FC0780
FC0780
9C0780
1C0780
1C0F00
1FFF00
1FFE00
1FF800
ENDCHAR
STARTCHAR 20BC
ENCODING 8380
SWIDTH 600 0
DWIDTH 20 0
BBX 18 25 1 0
BITMAP
00C000
00C000
07F800
1FFE00
3FFF00
7CCF80
70C380
F0C3C0
E0C1C0
E0C1C0
E0C1C0
E0C1C0
E0C1C0
E0C1C0
E0C1C0
E0C1C0
E0C1C0
E0C1C0
E0C1C0
E0C1C0
E0C1C0
E001C0
E001C0
E001C0
E001C0
ENDCHAR
STARTCHAR 20BD
ENCODING 8381
SWIDTH 600 0
DWIDTH 20 0
BBX 19 23 0 0
BITMAP
3FFE00
3FFF00
3FFFC0
3C03C0
3C01E0
3C01E0
3C01E0
3C01E0
3C01E0
3C03C0
3C0FC0
FFFF80
FFFF00
3C0000
3C0000
3C0000
FFE000
FFE000
FFE000
3C0000
3C0000
3C0000
3C0000
ENDCHAR
STARTCHAR 2113
ENCODING 8467
SWIDTH 600 0
DWIDTH 20 0
BBX 14 23 2 0
BITMAP
07F0
0FF8
0F38
1E1C
1C1C
1C0C
1C0C
1C0C
1C1C
1C1C
1C18
1C38
1C70
FFE0
FFC0
1C00
1C00
1C00
1C00
1C00
1E10
0FF0
07F0
ENDCHAR
STARTCHAR 2116
ENCODING 8470
SWIDTH 600 0
DWIDTH 20 0
BBX 18 23 1 0
BITMAP
F1C000
F1C000
F1C000
F1C000
F9C000
F9C000
F9C000
F9C000
F9CF80
FDCFC0
EDD8C0
EDD8C0
EDD8C0
EDD8C0
E7D8C0
E7D8C0
E7D8C0
E7CDC0
E7CF80
E3C300
E3C000
E3DFC0
E3DFC0
ENDCHAR
STARTCHAR 2117
ENCODING 8471
SWIDTH 600 0
DWIDTH 20 0
BBX 20 23 0 0
BITMAP
03FC00
0E0700
180180
3000C0
200040
63FC60
43FE20
430620
C30730
C30730
C30630
C3FE30
C3F830
C30030
C30030
430020
430020
630060
230040
3000C0
180180
0E0700
03FC00
ENDCHAR
STARTCHAR 2122
ENCODING 8482
SWIDTH 600 0
DWIDTH 20 0
BBX 20 13 0 10
BITMAP
FFF0F0
FFF0F0
18F0F0
18F0B0
18D1B0
18D9B0
18D9B0
18D930
18C930
18CF30
18CF30
18CE30
18CE30
ENDCHAR
STARTCHAR 2126
ENCODING 8486
SWIDTH 600 0
DWIDTH 20 0
BBX 20 23 0 0
BITMAP
03FC00
0FFF00
1FFF80
3E07C0
3C03C0
7801E0
7801E0
7801E0
7000E0
7000E0
7000E0
7000E0
7000E0
7000E0
7000E0
7000E0
7801E0
3801C0
3801C0
1C0380
FE07F0
FF9FF0
FF9FF0
ENDCHAR
STARTCHAR 212E
ENCODING 8494
SWIDTH 600 0
DWIDTH 20 0
BBX 20 23 0 0
BITMAP
03FC00
0FFF00
1E0780
3801C0
3801C0
7801E0
7801E0
7801E0
F801F0
F801F0
F801F0
FFFFF0
FFFFF0
F80000
F80000
780000
780000
780000
380040
3800E0
1E03C0
0FFF80
03FE00
ENDCHAR
STARTCHAR 2202
ENCODING 8706
SWIDTH 600 0
DWIDTH 20 0
BBX 16 23 2 0
BITMAP
0FE0
0FF8
0FFC
001E
001E
000E
000E
000F
000F
1FCF
3FFF
783F
F01F
E00F
E00F
E00F
E00E
E00E
F00E
701E
7C7C
3FF8
0FE0
ENDCHAR
STARTCHAR 2205
ENCODING 8709
SWIDTH 600 0
DWIDTH 20 0
BBX 16 17 2 3
BITMAP
0102
0FF3
1FFF
381E
701E
E03F
E077
C0E3
C1C3
C383
C703
EE07
7C06
780E
7E3C
FFF8
C7E0
ENDCHAR
STARTCHAR 2206
ENCODING 8710
SWIDTH 600 0
DWIDTH 20 0
BBX 18 23 1 0
BITMAP
01E000
03F000
03F000
03F000
07F800
073800
073800
0F3C00
0E3C00
0E1C00
1E1E00
1C1E00
1C0E00
3C0F00
380F00
380700
380700
780780
700380
700380
FFFFC0
FFFFC0
FFFFC0
ENDCHAR
STARTCHAR 220F
ENCODING 8719
SWIDTH 600 0
DWIDTH 20 0
BBX 20 27 0 -3
BITMAP
FFFFF0
FFFFF0
FFFFF0
FFFFF0
1E0380
1E0380
1E0380
1E0380
1E0380
1E0380
1E0380
1E0380
1E0380
1E0380
1E0380
1E0380
1E0380
1E0380
1E0380
1E0380
1E0380
1E0380
1E0380
1E0380
1E0380
1E0380
1E0380
ENDCHAR
STARTCHAR 2211
ENCODING 8721
SWIDTH 600 0
DWIDTH 20 0
BBX 18 27 1 -3
BITMAP
7FFF80
7FFF80
7FFF80
7C0000
3C0000
1E0000
0F0000
0F8000
07C000
03C000
01E000
00F000
00F800
007800
007800
00F000
01E000
03C000
038000
078000
0F0000
1E0000
3C0000
380000
7FFFC0
FFFFC0
FFFFC0
ENDCHAR
STARTCHAR 2212
ENCODING 8722
SWIDTH 600 0
DWIDTH 20 0
BBX 18 3 1 7
BITMAP
FFFFC0
FFFFC0
FFFFC0
ENDCHAR
STARTCHAR 2215
ENCODING 8725
SWIDTH 600 0
DWIDTH 20 0
BBX 16 23 2 0
BITMAP
0003
0006
000E
000C
0018
0018
0030
0070
0060
00C0
00C0
0180
0300
0300
0600
0600
0C00
1800
1800
3000
3000
6000
C000
ENDCHAR
STARTCHAR 2219
ENCODING 8729
SWIDTH 600 0
DWIDTH 20 0
BBX 4 3 8 8
BITMAP
F0
F0
F0
ENDCHAR
STARTCHAR 221A
ENCODING 8730
SWIDTH 600 0
DWIDTH 20 0
BBX 18 32 1 -5
BITMAP
0001C0
0001C0
0001C0
000180
000380
000380
000380
000380
000300
000700
000700
000700
000600
000600
0C0E00
3C0E00
FC0E00
DC0C00
1E1C00
0E1C00
0E1C00
0F1C00
071800
073800
07B800
03B800
03B000
03B000
01F000
01F000
01F000
01E000
ENDCHAR
STARTCHAR 221E
ENCODING 8734
SWIDTH 600 0
DWIDTH 20 0
BBX 18 11 1 4
BITMAP
1C0F00
7E1F80
6339C0
C1F0C0
C1E0C0
C0C0C0
C0E0C0
C1E0C0
E331C0
7E1F80
3C0F00
ENDCHAR
STARTCHAR 222B
ENCODING 8747
SWIDTH 600 0
DWIDTH 20 0
BBX 8 33 6 -8
BITMAP
0F
1F
38
38
38
38
38
38
38
38
38
38
18
18
18
18
18
18
18
18
18
18
1C
1C
1C
1C
1C
1C
1C
1C
1C
38
F0
ENDCHAR
STARTCHAR 2248
ENCODING 8776
SWIDTH 600 0
DWIDTH 20 0
BBX 18 13 1 2
BITMAP
000040
3F0040
FFE1C0
F3FFC0
807F80
800800
000000
000040
3F8040
FFE3C0
F3FFC0
807F80
800800
ENDCHAR
STARTCHAR 2260
ENCODING 8800
SWIDTH 600 0
DWIDTH 20 0
BBX 18 17 1 0
BITMAP
000700
000E00
000C00
001C00
FFFFC0
FFFFC0
007000
00E000
00C000
01C000
038000
FFFFC0
FFFFC0
0E0000
1C0000
1C0000
380000
ENDCHAR
STARTCHAR 2264
ENCODING 8804
SWIDTH 600 0
DWIDTH 20 0
BBX 17 17 1 0
BITMAP
000380
001F80
00FF80
07FC00
7FC000
FE0000
F00000
FC0000
7FC000
0FF800
01FF80
003F80
000380
000080
FFFF80
FFFF80
FFFF80
ENDCHAR
STARTCHAR 2265
ENCODING 8805
SWIDTH 600 0
DWIDTH 20 0
BBX 17 17 2 0
BITMAP
E00000
FC0000
FF8000
1FF000
03FF00
003F80
000780
001F80
01FF00
0FF800
7FC000
FE0000
E00000
800000
FFFF80
FFFF80
FFFF80
ENDCHAR
STARTCHAR 25CA
ENCODING 9674
SWIDTH 600 0
DWIDTH 20 0
BBX 14 23 3 0
BITMAP
0780
0780
0FC0
0FC0
1CE0
1CE0
3870
3870
7038
7038
E01C
E01C
E01C
7038
7038
3870
3870
1C60
1CE0
0EC0
0FC0
07C0
0780
ENDCHAR
STARTCHAR 27E8
ENCODING 10216
SWIDTH 600 0
DWIDTH 20 0
BBX 10 21 5 -1
BITMAP
01C0
0380
0300
0600
0E00
0C00
1800
3800
3000
7000
E000
7000
3000
3800
1800
0C00
0E00
0600
0300
0380
01C0
ENDCHAR
STARTCHAR 27E9
ENCODING 10217
SWIDTH 600 0
DWIDTH 20 0
BBX 10 21 5 -1
BITMAP
E000
7000
3000
1800
1C00
0C00
0600
0700
0300
0380
01C0
0380
0300
0700
0600
0C00
1C00
1800
3000
7000
E000
ENDCHAR
STARTCHAR FB01
ENCODING 64257
SWIDTH 600 0
DWIDTH 20 0
BBX 17 24 0 0
BITMAP
07EF80
0FEF80
0E2F80
0E0F80
0E0000
0E0000
0E0000
FFFF00
FFFF00
FFFF00
0E0700
0E0700
0E0700
0E0700
0E0700
0E0700
0E0700
0E0700
0E0700
0E0700
0E0700
0E0700
0E0700
0E0700
ENDCHAR
STARTCHAR FB02
ENCODING 64258
SWIDTH 600 0
DWIDTH 20 0
BBX 16 24 0 0
BITMAP
07E7
0FE7
0E27
0E07
0E07
0E07
0E07
FFE7
FFE7
FFE7
0E07
0E07
0E07
0E07
0E07
0E07
0E07
0E07
0E07
0E07
0E07
0E07
0E07
0E07
ENDCHAR
STARTCHAR FEFF
ENCODING 65279
SWIDTH 0 0
DWIDTH 0 0
BBX 0 0 0 0
BITMAP
ENDCHAR
ENDFONT
